<?xml version="1.0" encoding="UTF-8" standalone="no"?>
<!-- Created with Inkscape (http://www.inkscape.org/) -->

<svg
   version="1.1"
   id="svg1109"
   width="500"
   height="500"
   viewBox="0 0 500 500"
   sodipodi:docname="Progress Clock 1-0.svg"
   inkscape:version="1.2 (dc2aedaf03, 2022-05-15)"
   xmlns:inkscape="http://www.inkscape.org/namespaces/inkscape"
   xmlns:sodipodi="http://sodipodi.sourceforge.net/DTD/sodipodi-0.dtd"
   xmlns="http://www.w3.org/2000/svg"
   xmlns:svg="http://www.w3.org/2000/svg">
  <defs
     id="defs1113" />
  <sodipodi:namedview
     id="namedview1111"
     pagecolor="#ffffff"
     bordercolor="#000000"
     borderopacity="0.25"
     inkscape:showpageshadow="2"
     inkscape:pageopacity="0.0"
     inkscape:pagecheckerboard="0"
     inkscape:deskcolor="#d1d1d1"
     showgrid="false"
     inkscape:zoom="1.4142136"
     inkscape:cx="195.16147"
     inkscape:cy="303.34881"
     inkscape:window-width="1920"
     inkscape:window-height="1017"
     inkscape:window-x="-8"
     inkscape:window-y="-8"
     inkscape:window-maximized="1"
     inkscape:current-layer="g1115" />
  <g
     inkscape:groupmode="layer"
     inkscape:label="Image"
     id="g1115">
    <path
       style="fill:#ad1d1c"
       id="path1121"
       sodipodi:type="arc"
       sodipodi:cx="249.53033"
       sodipodi:cy="252.79289"
       sodipodi:rx="9"
       sodipodi:ry="9"
       sodipodi:start="4.7226682"
       sodipodi:end="4.721257"
       sodipodi:arc-type="slice"
       d="m 249.62285,243.79337 a 9,9 0 0 1 8.90704,9.08886 9,9 0 0 1 -9.08572,8.91025 9,9 0 0 1 -8.91345,-9.08257 9,9 0 0 1 9.07943,-8.91666 l -0.0798,8.99964 z" />
    <path
       style="fill:#000000"
       d="m 238,498.52587 c -3.07946,-1.00747 -5.48672,-1.20128 -7.62574,-0.61396 -3.38227,0.92869 -8.07154,0.38691 -8.94973,-1.03402 -0.30818,-0.49864 -1.36385,-0.44555 -2.4242,0.12194 -2.00975,1.07558 -11.67603,-0.43836 -13.45033,-2.10661 C 205.0275,494.40195 202.47214,494 199.87143,494 c -2.62749,0 -5.32617,-0.59759 -6.07348,-1.34491 -0.7397,-0.7397 -4.32679,-1.58426 -7.97131,-1.87681 -3.64451,-0.29254 -8.09059,-1.26234 -9.88016,-2.15509 C 174.15692,487.73044 172.08204,487 171.33566,487 c -0.74639,0 -5.5898,-1.62012 -10.76312,-3.60027 -7.68849,-2.94285 -9.51791,-4.04593 -10.01861,-6.0409 -0.33691,-1.34234 -1.05435,-2.16759 -1.59431,-1.83387 -0.53997,0.33371 -2.36139,-0.77288 -4.04761,-2.4591 -3.28501,-3.28502 -4.51895,-3.74505 -5.1298,-1.9125 -0.43007,1.29023 -4.57124,-0.9669 -8.79102,-4.79152 -1.37985,-1.25063 -3.40485,-2.25085 -4.5,-2.22271 -3.45628,0.0888 -17.02424,-7.43718 -16.72328,-9.27623 0.16913,-1.03349 -0.66045,-1.8701 -2.25,-2.26905 C 106.13306,452.24628 105,451.46537 105,450.8585 c 0,-0.80432 -0.36023,-0.80443 -1.32902,-4e-4 -1.02333,0.84929 -2.92092,-0.19878 -8.249999,-4.55661 C 86.468522,438.98067 71.462951,423.486 68.981267,419 c -2.842321,-5.13791 -4.111176,-6.50141 -7.846169,-8.43142 -2.474459,-1.27865 -3.069869,-2.03381 -2.25,-2.85368 1.69599,-1.69599 1.359114,-2.43679 -1.425996,-3.13581 -1.397494,-0.35075 -2.256678,-1.0976 -1.909297,-1.65968 0.625676,-1.01236 -2.024048,-3.75253 -6.973783,-7.21181 -1.410568,-0.98582 -3.47847,-3.79832 -4.595339,-6.25 -1.116868,-2.45168 -2.581923,-4.45868 -3.255676,-4.46 -1.487059,-0.003 -9.158191,-13.36642 -9.39158,-16.36061 -0.4409,-5.65637 -1.22649,-7.75117 -4.159669,-11.09187 C 25.428191,355.55703 24,352.96257 24,351.77965 c 0,-1.18291 -0.912274,-3.12182 -2.027275,-4.30868 -1.115002,-1.18687 -2.20854,-3.09917 -2.430085,-4.24956 -0.221545,-1.15039 -0.861167,-2.94807 -1.421383,-3.99484 -0.560216,-1.04677 -0.784973,-2.79652 -0.49946,-3.88832 0.285513,-1.09181 -0.44702,-3.62258 -1.627852,-5.62394 -1.180831,-2.00136 -2.010463,-4.6805 -1.843625,-5.95365 0.166838,-1.27314 -0.740932,-3.78136 -2.017267,-5.5738 -1.276335,-1.79245 -2.4153834,-3.90474 -2.5312197,-4.69398 C 9.4859971,312.70363 9.0781971,311.74486 8.695611,311.36228 8.313025,310.97969 8,308.49167 8,305.83333 8,302.36846 7.6055582,301 6.6068494,301 5.104103,301 2.6617778,290.04497 3.6122966,287.56796 3.9005245,286.81685 3.6556692,285.90523 3.0681737,285.54213 1.5207698,284.58579 1.7335231,283.60849 4.1609113,280.52256 6.6719477,277.3303 7.7358672,267 5.5536028,267 c -1.3285214,0 -1.3503008,-3.65705 -0.061109,-10.26096 0.4211485,-2.15734 0.3151844,-4.28927 -0.2485172,-5 C 4.7034816,251.05757 3.953598,246.55754 3.5775685,241.73898 3.037421,234.81735 3.177957,232.86894 4.2469393,232.45873 6.0516354,231.76621 6.0712987,225 4.2686152,225 c -0.7322616,0 -1.5634159,-0.60466 -1.8470094,-1.3437 -0.6809843,-1.77461 1.2836705,-13.84191 2.3737849,-14.58026 1.0294492,-0.69725 2.5898336,-4.2663 2.3483013,-5.37124 -0.4205234,-1.92377 6.297618,-21.54769 8.490178,-24.8001 1.378292,-2.04453 2.685812,-5.80829 3.031361,-8.72591 0.443253,-3.74258 1.099657,-5.28678 2.42626,-5.70783 1.473641,-0.46771 1.642145,-1.04135 0.888312,-3.02408 -0.704,-1.85166 -0.59981,-2.44688 0.428316,-2.44688 1.5674,0 2.558638,-3.03034 2.578226,-7.88197 0.01293,-3.20348 3.179999,-9.77874 5.460869,-11.33752 0.722551,-0.4938 0.66069,-1.35215 -0.197214,-2.73643 -1.712654,-2.76346 -1.567927,-4.54985 0.5,-6.17164 1.591282,-1.24796 1.623706,-1.21153 0.357499,0.40173 -0.765875,0.97579 -1.103375,2.06329 -0.75,2.41666 0.79788,0.79788 0.652464,0.98764 4.552559,-5.94083 1.780198,-3.1625 3.846036,-5.75 4.590752,-5.75 0.744717,0 2.238955,-1.125 3.32053,-2.5 1.081575,-1.375 2.464236,-2.5 3.07258,-2.5 C 46.502264,117 47,116.07765 47,114.95034 c 0,-2.92385 2.675551,-7.70633 5.01035,-8.95588 C 53.104658,105.40881 54,104.0152 54,102.89756 c 0,-2.61798 5.989298,-9.856012 8.175076,-9.879534 0.92736,-0.01 2.716881,-1.915129 4.00899,-4.268026 1.283653,-2.3375 3.329718,-4.688761 4.546812,-5.225024 1.217093,-0.536263 2.725459,-2.212456 3.351922,-3.724874 0.996996,-2.406961 3.119632,-5.460498 5.64199,-8.116334 0.426366,-0.448928 2.259984,-1.693359 4.074708,-2.765403 1.814723,-1.072044 3.019972,-2.401451 2.678331,-2.954239 -0.341641,-0.552787 0.519652,-2.458356 1.913986,-4.234597 C 93.392557,55.359085 94.133681,54.733681 95.3,55.9 c 1.809656,1.809656 2.77625,1.251985 2.150606,-1.240779 -0.583114,-2.32331 -0.549004,-2.332894 4.570424,-1.284191 4.51476,0.924838 5.27765,0.842637 6.11814,-0.659221 0.52811,-0.943695 1.95035,-1.7227 3.16052,-1.731122 3.02036,-0.02102 4.87379,-1.361307 4.23797,-3.064637 -0.51702,-1.385071 2.08554,-2.900126 10.21234,-5.945007 1.7875,-0.669726 3.25,-1.770825 3.25,-2.446888 0,-0.676062 2.33619,-2.758968 5.19153,-4.628679 8.76014,-5.73624 9.76619,-6.179457 11.24353,-4.953368 1.00045,0.830294 1.47688,0.725753 1.91677,-0.420585 C 147.6738,28.686486 148.62635,28 149.46862,28 c 1.00022,0 1.53669,-0.95384 1.54669,-2.75 0.0205,-3.674084 1.17774,-5.366755 2.92918,-4.284305 0.86521,0.534726 2.24263,0.302579 3.64095,-0.613636 1.23708,-0.810567 4.64894,-1.558877 7.5819,-1.662909 2.93296,-0.104033 5.57652,-0.514187 5.87456,-0.911455 1.02297,-1.363533 23.80058,-5.7592 26.76793,-5.165729 1.71762,0.343523 3.23569,0.123392 3.63799,-0.527534 0.37971,-0.614381 1.08223,-0.874878 1.56116,-0.578882 0.47893,0.295995 2.32801,-0.348022 4.10908,-1.43115 2.99384,-1.8206648 3.3299,-1.8440363 4.4519,-0.3096085 1.06363,1.4545945 1.42782,1.4819395 2.94685,0.2212608 0.95327,-0.7911497 2.996,-1.3059972 4.53939,-1.1441057 1.54338,0.1618915 4.05482,-0.5238181 5.58098,-1.5237992 1.93471,-1.2676804 4.7561,-1.8360256 9.31882,-1.8771977 3.93743,-0.03553 6.46525,-0.470939 6.34629,-1.0931294 -0.22461,-1.1747719 16.84185,-0.6627838 17.68799,0.5306339 1.29669,1.8288701 8.67958,3.051486 12.33384,2.042497 2.88121,-0.7955403 4.3978,-0.707292 6.58352,0.3830851 1.91212,0.9538948 3.38833,1.1098322 4.51858,0.4773142 2.06352,-1.1548055 9.28661,-0.08812 12.2886,1.8147467 C 294.93297,10.368244 297.93832,11 300.39339,11 c 2.65188,0 5.07801,0.614259 5.97705,1.513299 1.07728,1.07728 3.39695,1.472455 8.0509,1.371538 4.88667,-0.105962 7.23724,0.327684 9.30813,1.71722 1.52379,1.022439 4.34553,1.903337 6.27053,1.957551 11.80371,0.332427 12.17779,0.40425 12.71025,2.440392 0.53417,2.042674 2.28975,2.809386 2.28975,1 0,-2.757387 2.03355,-0.415068 3.51691,4.050908 0.96238,2.897459 2.1691,4.868371 2.83037,4.622768 0.63399,-0.235478 2.63485,0.973913 4.44634,2.687534 2.5458,2.408261 3.4822,2.810538 4.1242,1.771756 0.93855,-1.518594 4.35619,0.206018 9.27248,4.679073 1.47967,1.346265 3.30407,2.212232 4.05422,1.92437 0.75016,-0.287862 3.13953,0.551379 5.3097,1.864979 2.17018,1.313601 4.55131,2.390671 5.29141,2.393489 2.41701,0.0092 7.09517,3.995831 6.50221,5.541052 C 390.00489,51.429641 390.38423,52 391.32158,52 c 0.84456,0 2.19802,0.662455 3.00768,1.472121 1.29617,1.296162 1.61816,1.296162 2.69388,0 1.31896,-1.589252 6.47476,-2.086765 5.51391,-0.532068 -0.31954,0.517029 -0.009,1.404239 0.69098,1.971578 4.63671,3.760226 6.77197,5.975101 6.77197,7.024468 0,1.255634 2.889,4.563901 3.9855,4.563901 0.83225,0 12.92439,13.737325 15.67298,17.805354 1.18717,1.757055 3.08359,4.207146 4.21427,5.444646 1.13068,1.2375 1.73436,2.269888 1.34152,2.294196 -0.39285,0.02431 1.00562,0.951674 3.1077,2.060814 3.23079,1.704686 3.62744,2.251022 2.56431,3.53202 -1.01945,1.228358 -0.98573,1.687481 0.17802,2.42387 0.78964,0.49966 2.02476,0.91537 2.74472,0.92379 0.71996,0.008 1.0345,0.45948 0.69898,1.00236 -0.7372,1.19283 1.69309,3.73751 6.73517,7.05218 2.05874,1.35343 3.77913,3.13577 3.82309,3.96077 0.14899,2.79635 3.60626,7.5068 5.28902,7.20616 1.07256,-0.19161 1.64472,0.39665 1.64472,1.69099 0,1.09165 0.45332,2.26498 1.00738,2.60741 1.60069,0.98928 5.18256,8.70683 5.56732,11.99544 0.74908,6.40246 1.13913,7.41004 4.23226,10.93292 1.75617,2.00017 3.19304,4.60451 3.19304,5.78743 0,1.18291 0.91227,3.12182 2.02728,4.30868 1.115,1.18687 2.20853,3.09917 2.43008,4.24956 0.22154,1.15039 0.86117,2.94807 1.42138,3.99484 0.56022,1.04677 0.78498,2.79652 0.49946,3.88832 -0.28551,1.09181 0.44702,3.62258 1.62785,5.62394 1.18084,2.00136 2.03326,4.66832 1.89427,5.92657 -0.13899,1.25826 0.83837,4.08774 2.1719,6.28774 1.33354,2.2 2.42532,4.3 2.4262,4.66667 8.7e-4,0.36666 0.33908,1.00416 0.75158,1.41666 0.4125,0.4125 0.75,2.925 0.75,5.58334 0,3.44861 0.39634,4.83333 1.38342,4.83333 0.76089,0 1.62958,1.0125 1.93043,2.25 0.30085,1.2375 1.00373,4.03863 1.56195,6.22474 0.75,2.93715 0.7029,4.197 -0.18042,4.82613 -0.91967,0.65502 -0.90708,0.96838 0.0546,1.35859 1.90074,0.77125 1.4973,3.4484 -0.90503,6.00556 C 493.18461,227.49684 492.21939,238 494.61951,238 c 0.94208,0 1.26258,0.75578 0.95414,2.25 -1.27045,6.15454 -1.61713,11.9984 -0.77491,13.06243 0.517,0.65316 1.24766,5.13003 1.62369,9.94859 0.54015,6.92163 0.39961,8.87004 -0.66937,9.28025 C 494.0213,273.2058 493.91921,280 495.64098,280 c 0.68254,0 1.50151,0.42153 1.81992,0.93674 0.75686,1.22462 -1.53146,15.06326 -2.49082,15.06326 -0.82137,0 -2.10376,3.43348 -2.42772,6.5 -0.48328,4.57456 -6.70812,22.44101 -8.70166,24.97539 -1.27675,1.62312 -2.34543,4.72203 -2.62237,7.60423 -0.34374,3.5773 -0.95185,5.01841 -2.29793,5.44565 -1.48569,0.47153 -1.65526,1.0419 -0.9002,3.02785 0.704,1.85166 0.59981,2.44688 -0.42832,2.44688 -1.6769,0 -2.82908,3.43005 -2.60563,7.75702 0.15381,2.97845 -3.01202,9.80031 -5.26965,11.35526 -0.48894,0.33676 -0.76241,1.46176 -0.60771,2.5 0.42843,2.87546 -7.12648,16.0519 -8.96974,15.64403 -0.60572,-0.13403 -1.83658,0.87847 -2.73524,2.25 -0.89866,1.37153 -2.19966,2.49369 -2.89111,2.49369 -0.69145,0 -1.53845,1.75895 -1.88222,3.90878 -0.42058,2.63013 -1.60731,4.7353 -3.62781,6.43544 -1.65152,1.38966 -3.00277,3.28381 -3.00277,4.2092 0,2.01271 -5.59421,8.65723 -8.12333,9.64848 -0.98497,0.38605 -2.97378,2.57578 -4.41957,4.86606 -1.4458,2.29029 -3.43946,4.37617 -4.43036,4.6353 -0.9909,0.25912 -2.54866,2.1194 -3.46169,4.13394 -0.91304,2.01454 -3.20431,5.0128 -5.09173,6.6628 -1.88742,1.65 -5.37994,4.8 -7.76114,7 -9.50459,8.7813 -14.52574,11.96591 -18.34743,11.63665 -2.40441,-0.20715 -3.36636,0.0517 -2.91372,0.78412 0.69804,1.12945 0.0523,1.47087 -4.8058,2.54106 -2.10371,0.46342 -2.73266,1.09585 -2.3906,2.40387 0.35403,1.35382 -0.74822,2.3035 -4.64523,4.00226 -7.04139,3.06944 -8.15878,3.73237 -7.7864,4.61954 0.17765,0.42324 -1.61744,1.87172 -3.98908,3.21884 -2.37164,1.34711 -4.54199,2.80149 -4.823,3.23195 -0.28101,0.43045 -2.00575,1.54871 -3.83275,2.485 -2.44199,1.25146 -3.66918,1.41409 -4.63322,0.61401 -0.97492,-0.80911 -1.46158,-0.69694 -1.89678,0.43718 C 352.3262,476.31351 351.37365,477 350.53138,477 349.68912,477 349,477.60391 349,478.34201 c 0,1.20834 -4.38041,3.16068 -18,8.02256 -8.78062,3.13447 -20.58244,5.85762 -26.5,6.1146 -3.3,0.1433 -6.225,0.37241 -6.5,0.50911 -0.275,0.13671 -0.83047,0.19761 -1.23439,0.13535 -0.40391,-0.0623 -2.17159,0.76079 -3.92817,1.82904 -2.9544,1.79667 -3.28475,1.81785 -4.4074,0.28254 -1.06363,-1.4546 -1.42782,-1.48194 -2.94685,-0.22126 -0.95327,0.79115 -2.996,1.30599 -4.53939,1.1441 -1.54338,-0.16189 -3.88495,0.41251 -5.20348,1.27644 -3.55317,2.32813 -31.4906,3.13603 -37.74032,1.09138 z m 55.98749,-15.75555 c 0.009,0.8913 1.2618,0.63299 4.19953,-0.86573 2.3775,-1.21291 6.77641,-2.31325 10.17854,-2.54605 3.29533,-0.22549 6.51507,-0.84451 7.15498,-1.37559 0.63991,-0.53108 1.41776,-0.71132 1.72854,-0.40054 1.00472,1.00472 6.75092,-2.58305 6.75092,-4.21508 0,-1.03088 0.55041,-1.3701 1.58125,-0.97452 0.86969,0.33373 2.54482,-0.0681 3.72251,-0.89302 1.17769,-0.82488 2.60362,-1.48978 3.16875,-1.47755 1.44722,0.0313 -3.69813,3.92841 -5.22251,3.95552 -1.37802,0.0245 -1.50228,1.52129 -0.36654,4.41504 0.66905,1.70465 1.1193,1.50584 4.52945,-2 2.08261,-2.14104 4.4178,-5.11012 5.18932,-6.59795 0.97267,-1.87578 2.39841,-2.84591 4.65026,-3.16424 6.63435,-0.93786 7.74751,-0.66485 7.74751,1.90015 0,1.72824 -0.42275,2.24424 -1.5,1.83087 -0.91821,-0.35236 -1.5,1.8e-4 -1.5,0.90894 0,0.8165 0.675,2.04474 1.5,2.72943 1.19859,0.99474 1.80992,0.98768 3.04238,-0.0352 0.88945,-0.73818 1.16941,-1.65304 0.66132,-2.16113 -1.08645,-1.08645 0.881,-7.79872 2.29099,-7.81608 0.55292,-0.007 2.01372,-1.56925 3.24622,-3.4721 1.37443,-2.12199 2.7853,-3.25082 3.64885,-2.91945 0.77436,0.29715 1.70501,0.0596 2.06811,-0.5279 0.36309,-0.58749 1.89361,-1.06817 3.40115,-1.06817 3.1743,0 5.14098,-1.61871 5.14098,-4.23138 0,-1.00727 0.7875,-2.11012 1.75,-2.45079 0.9625,-0.34067 2.89383,-1.82676 4.29185,-3.30244 1.39802,-1.47567 3.40176,-3.16427 4.45276,-3.75244 1.62046,-0.90685 1.70956,-1.31201 0.58622,-2.66556 -1.17512,-1.41593 -0.9882,-1.52886 1.65534,-1.00016 2.39159,0.47832 3.07969,0.21492 3.48473,-1.33394 0.27758,-1.06148 1.24143,-2.00496 2.1419,-2.09662 0.90046,-0.0917 2.29284,-0.24167 3.09417,-0.33334 0.80133,-0.0917 1.68721,-0.76666 1.96861,-1.5 C 394.70699,432.6 395.60524,432 396.4217,432 c 0.81646,0 2.23185,-1.575 3.14532,-3.5 1.87312,-3.9473 4.60066,-4.87733 3.66595,-1.25 -0.51648,2.00427 -0.39704,2.10011 1.09362,0.87756 C 405.24696,427.37271 406,425.98403 406,425.0416 406,423.32392 413.35625,416 415.08151,416 415.58668,416 416,414.425 416,412.5 c 0,-2.44444 0.45238,-3.5 1.5,-3.5 0.825,0 1.50297,-0.7875 1.50659,-1.75 0.0114,-3.03873 3.37529,-7.25005 4.99265,-6.25047 1.91294,1.18226 3.71527,-0.42323 4.5034,-4.01156 0.44982,-2.04802 1.07201,-2.70469 2.16521,-2.28519 2.35948,0.90542 3.50275,-1.85679 1.62657,-3.92994 -1.47313,-1.62779 -1.47187,-1.77284 0.0154,-1.77284 0.89089,0 2.14187,-1.0125 2.77995,-2.25 0.63808,-1.2375 2.06084,-3.2396 3.1617,-4.44912 1.10085,-1.20951 1.75072,-2.85277 1.44415,-3.65167 -0.39562,-1.03098 0.40892,-1.63384 2.77204,-2.07717 4.91563,-0.92218 8.13648,-3.94697 9.36621,-8.7961 1.2639,-4.98386 4.29039,-7.53606 6.20329,-5.23116 2.27325,2.73911 2.78159,1.45441 1.43874,-3.63609 C 457.89158,352.90276 458.38177,351 461.51337,351 c 1.84834,0 2.19096,-0.41465 1.74661,-2.11385 -0.4686,-1.79191 -0.22684,-2.01041 1.58732,-1.43461 1.67723,0.53233 2.01019,0.34066 1.53942,-0.88615 C 466.05634,345.70443 465.38417,345 464.89301,345 c -1.74401,0 -0.8537,-1.56135 1.85699,-3.25661 2.73383,-1.70973 2.73677,-1.72354 0.5,-2.34825 -2.71783,-0.75906 -2.74843,-1.11923 -0.39801,-4.68388 1.6143,-2.44824 1.99474,-2.60087 3.11586,-1.25 1.08379,1.30589 0.94325,1.53874 -0.92874,1.53874 -1.30947,0 -2.03799,0.50335 -1.79287,1.23872 0.47989,1.43966 7.51296,4.33541 8.39278,3.45559 0.32679,-0.32678 -0.84164,-2.92763 -2.59651,-5.77965 -1.8817,-3.05815 -2.59839,-4.95821 -1.74696,-4.63149 1.1331,0.43481 1.55035,-0.77465 1.93943,-5.62177 0.35586,-4.43327 1.23287,-7.26199 3.10829,-10.02559 2.11401,-3.11515 2.40691,-4.23409 1.53488,-5.86349 -0.77955,-1.45659 -0.77344,-1.82564 0.0221,-1.33398 C 478.63093,306.88994 479,305.75587 479,303.05902 479,300.65655 478.52863,299 477.84501,299 c -0.71475,0 -0.55609,-0.66704 0.41624,-1.75 0.97024,-1.08063 1.40384,-2.89749 1.13361,-4.75 -0.4264,-2.92307 -0.41002,-2.93626 0.63874,-0.51426 0.592,1.36716 0.87981,3.23737 0.63958,4.15602 -0.29862,1.14192 0.31665,1.8143 1.94502,2.12559 2.02714,0.38751 2.3818,0.0585 2.3818,-2.20968 0,-1.46574 -1.19987,-5.07281 -2.66638,-8.01571 l -2.66638,-5.35073 2.32775,-4.38786 c 2.42117,-4.56395 5.50382,-5.56439 5.50633,-1.78701 10e-4,1.81162 0.56308,2.07398 3.49868,1.63364 0.55,-0.0825 1,-1.09814 1,-2.25699 0,-1.38446 -0.47503,-1.9247 -1.38524,-1.57542 -1.51811,0.58255 -5.91872,-3.90016 -6.19348,-6.30904 -0.0946,-0.8297 -0.90918,-3.19605 -1.81009,-5.25855 -0.90092,-2.0625 -1.28023,-3.75 -0.84293,-3.75 0.43731,0 1.39796,-2.04173 2.13478,-4.53717 1.1973,-4.05502 1.15727,-4.73871 -0.37672,-6.43374 -0.944,-1.04312 -1.87239,-3.16389 -2.06308,-4.71283 -1.43244,-11.63561 -1.66852,-12.38588 -3.69485,-11.74275 -1.82799,0.58018 -1.81297,0.47107 0.21425,-1.55615 2.00149,-2.00149 2.05036,-2.32342 0.59654,-3.92987 -0.87095,-0.96239 -1.25494,-2.0784 -0.85331,-2.48003 1.55941,-1.55941 0.97053,-10.10134 -0.8798,-12.76183 -2.7756,-3.99089 -2.08598,-6.68554 0.93726,-3.6623 2.34566,2.34566 2.13847,0.0992 -0.29505,-3.19922 C 476.11972,202.12914 475,199.64887 475,198.47239 c 0,-1.17648 -0.31692,-2.45597 -0.70426,-2.84332 -0.38734,-0.38734 -0.72484,-1.92484 -0.75,-3.41666 -0.0308,-1.82437 -0.78012,-3.03462 -2.28881,-3.69656 -1.52186,-0.66771 -2.06287,-1.55191 -1.68262,-2.75 0.35116,-1.1064 0.0443,-1.76585 -0.82171,-1.76585 -1.60143,0 -5.07015,-6.67717 -4.20007,-8.08499 0.32212,-0.5212 1.00457,-0.68874 1.51657,-0.3723 2.12117,1.31095 0.72688,-2.82728 -1.71512,-5.09046 -1.45532,-1.34874 -2.13032,-2.45225 -1.5,-2.45225 1.433,0 1.5155,-3.65362 0.10222,-4.52707 -0.5741,-0.35481 -1.77374,-0.0439 -2.66588,0.69098 -1.4419,1.18769 -1.54918,1.04336 -0.96586,-1.29949 0.43228,-1.73619 0.16957,-3.03945 -0.76985,-3.8191 -0.78433,-0.65093 -1.72241,-2.53283 -2.08463,-4.18199 -0.36221,-1.64916 -1.25715,-3.22817 -1.98875,-3.50891 -0.89901,-0.34498 -1.15598,-1.58387 -0.79277,-3.82206 0.29557,-1.82139 -0.19693,-6.93574 -1.09446,-11.3652 -0.89752,-4.42947 -1.51084,-8.60178 -1.36293,-9.2718 0.14982,-0.67866 -1.70747,-1.8102 -4.19332,-2.55476 -5.55093,-1.66261 -7.97119,-3.80716 -6.24489,-5.53346 1.8038,-1.8038 1.46501,-2.80714 -0.94785,-2.80714 -2.12896,0 -2.13198,-0.0259 -0.25,-2.14547 1.90077,-2.14073 1.8989,-2.14435 -0.84501,-1.63867 -2.5816,0.47576 -2.75204,0.28565 -2.78327,-3.10453 l -0.0333,-3.61133 -1.82767,2.18906 c -1.3672,1.63753 -2.11466,1.90207 -2.96673,1.05 C 429.4782,107.0782 429.74345,106 431.81291,106 c 0.9971,0 3.10629,-1.35 4.68709,-3 l 2.87418,-3 -6.43709,-0.07895 c -3.5404,-0.04342 -5.8556,-0.312251 -5.14489,-0.5974 0.78855,-0.316381 -0.38072,-1.590783 -3,-3.269733 -4.85423,-3.111538 -8.08399,-6.434317 -8.40942,-8.651606 -0.38095,-2.595591 -2.52955,-4.401742 -5.25522,-4.417627 -2.04071,-0.01189 -2.29363,-0.226418 -1.13243,-0.960515 1.2832,-0.811221 1.21232,-1.164635 -0.5,-2.493246 -1.09732,-0.851425 -3.00763,-1.381596 -4.24513,-1.178157 -1.99728,0.328341 -2.68363,-0.391641 -2.39763,-2.515128 0.0491,-0.364297 -1.32062,-1.153826 -3.04374,-1.754509 -1.72312,-0.600682 -2.85419,-1.370907 -2.51349,-1.711609 0.34071,-0.340703 2.15587,0.287041 4.0337,1.394987 3.33015,1.96484 3.45366,1.968399 5.01532,0.144504 1.48488,-1.734204 1.44515,-1.953407 -0.54732,-3.019742 -1.18163,-0.632389 -4.97472,-1.376667 -8.42909,-1.65395 -5.87411,-0.471518 -6.44531,-0.741738 -8.82421,-4.174488 C 387.14459,63.04415 386,60.902332 386,60.303238 c 0,-1.603062 3.22155,-2.562794 4.05825,-1.208992 C 391.05698,60.710229 393,59.288004 393,56.940983 393,55.873442 392.8118,55 392.58179,55 c -0.23002,0 -1.13002,-0.273145 -2,-0.606989 C 389.5438,53.9947 389,54.33849 389,55.393011 389,56.511888 388.08877,57 386,57 c -1.71637,0 -3.01361,0.534845 -3.0318,1.25 -0.0194,0.763393 -0.54895,0.568751 -1.36025,-0.5 -0.89833,-1.183404 -2.7034,-1.75 -5.57518,-1.75 -3.36404,0 -4.12711,-0.311781 -3.67114,-1.5 0.34226,-0.891927 0.01,-1.5 -0.82054,-1.5 -0.76787,0 -2.54265,-1.4625 -3.94395,-3.25 -2.20023,-2.806623 -2.80911,-3.08763 -4.46314,-2.059808 -1.5155,0.941736 -2.30347,0.896187 -3.77466,-0.218197 C 358.3367,46.697382 356.6,46.046523 355.5,46.025643 c -1.1,-0.02088 -3.28894,-0.710192 -4.86431,-1.531804 -3.70566,-1.932637 -4.61813,-1.88306 -4.71464,0.256161 -0.0488,1.081572 -0.46983,0.677849 -1.10232,-1.056981 -0.90374,-2.478823 -1.37677,-2.729364 -4.04616,-2.143067 -1.77616,0.39011 -2.78611,0.28097 -2.4489,-0.26464 0.91574,-1.481701 -6.50779,-6.691856 -8.87911,-6.231745 C 326.95141,35.537317 323,34.891334 323,34 c 0,-0.55 0.675,-1 1.5,-1 0.825,0 1.5,-0.401855 1.5,-0.893011 0,-1.347407 -2.25444,-1.91771 -4.46598,-1.129755 -1.96526,0.700206 -9.58988,-0.722006 -10.53402,-1.964902 -1.21482,-1.599231 -3.94696,-1.737781 -5.99403,-0.303963 -1.80843,1.266676 -2.37579,1.311277 -3.03858,0.238863 -0.66908,-1.082584 -1.09515,-1.086089 -2.38021,-0.01958 -2.17881,1.808247 -8.98065,0.540113 -8.18762,-1.526497 0.79441,-2.070201 -2.13066,-2.941124 -5.54702,-1.651592 C 283.33464,26.69996 283,26.601836 283,24.913136 c 0,-1.052225 -0.5625,-1.906245 -1.25,-1.897823 -2.11072,0.02586 -4.0443,1.69949 -3.3191,2.872884 0.81386,1.316845 -0.61895,1.490069 -1.9809,0.239488 C 274.88292,24.68875 264,23.802404 264,25.113709 c 0,0.807326 -0.36747,0.826204 -1.28354,0.06594 -0.81367,-0.675291 -1.82036,-0.72572 -2.75,-0.137757 -0.80655,0.510116 -6.19146,0.927484 -11.96646,0.927484 -6.45016,0 -9.96274,-0.340209 -9.10704,-0.882058 1.10127,-0.697355 3.43598,-9.965179 2.71713,-10.785905 -0.0957,-0.109224 -1.95957,1.5562 -4.14201,3.700941 -4.45421,4.37726 -7.01693,4.994467 -7.99126,1.924621 -0.62655,-1.974088 -0.74908,-1.990555 -2.56739,-0.345012 -1.82879,1.655034 -1.91037,1.626443 -1.93167,-0.676973 L 224.95553,16.5 223.02205,19 c -1.68107,2.173641 -2.19857,2.33682 -3.96419,1.25 -2.8532,-1.756273 -3.18133,-1.590116 -2.4685,1.25 0.52884,2.107078 0.27684,2.5 -1.6034,2.5 -1.68672,0 -1.97449,-0.308892 -1.17982,-1.266419 0.73064,-0.880357 0.73579,-2.744504 0.0169,-6.115064 l -1.03411,-4.848644 -3.3642,5.865063 c -1.85031,3.225785 -3.37782,5.309787 -3.39447,4.631115 -0.0204,-0.832629 -1.39581,-0.522197 -4.22889,0.954489 -2.48233,1.293864 -6.45202,2.298636 -9.71124,2.458019 -3.03194,0.148269 -6.20506,0.579884 -7.05138,0.959144 -0.84633,0.37926 -1.76377,0.733636 -2.03877,0.787501 -2.77083,0.542734 -7,3.118602 -7,4.263504 0,0.954381 -0.63203,1.24547 -1.85882,0.856102 -1.07308,-0.340583 -2.39296,0.05364 -3.12244,0.932612 C 170.32374,34.31484 169.07452,35 168.2427,35 c -1.0065,0 -0.66189,-0.669023 1.03017,-2 1.39842,-1.1 3.04268,-2 3.65391,-2 0.91023,0 0.58192,-4.497356 -0.42124,-5.770453 -0.20647,-0.262026 -5.73511,5.793519 -10.1893,11.160397 -1.82984,2.204781 -2.9238,2.603227 -6.75,2.458503 C 151.51434,38.695185 151,38.415931 151,36.36925 c 0,-1.639362 0.43385,-2.139995 1.5,-1.730876 0.91821,0.352351 1.5,-1.88e-4 1.5,-0.90894 0,-0.8165 -0.675,-2.044745 -1.5,-2.729434 -1.19859,-0.994744 -1.80992,-0.987676 -3.04238,0.03517 -0.88945,0.738179 -1.16941,1.653041 -0.66132,2.161128 1.08288,1.082878 -0.87593,7.787998 -2.29099,7.842218 -0.55292,0.02119 -1.92814,1.483686 -3.05603,3.25 -1.1715,1.834594 -2.74694,3.092925 -3.6746,2.93496 -0.89312,-0.152086 -1.90936,0.185414 -2.25829,0.75 C 137.16746,48.538066 135.64852,49 134.14098,49 130.96668,49 129,50.618712 129,53.231385 c 0,1.007261 -0.7875,2.110113 -1.75,2.450782 -0.9625,0.340668 -2.89383,1.826766 -4.29185,3.302438 -1.39802,1.475673 -3.40176,3.164272 -4.45276,3.752442 -1.62046,0.906855 -1.70956,1.312011 -0.58622,2.665564 1.17512,1.415925 0.9882,1.528862 -1.65534,1.000156 -2.51834,-0.503669 -3.07334,-0.239213 -3.58227,1.706942 -0.33123,1.266623 -0.90971,1.995473 -1.28552,1.619668 -1.25145,-1.251458 -10.00993,4.501306 -11.30394,7.424688 C 98.564282,80.605641 95.90852,81.08162 96.767034,77.75 97.283509,75.745728 97.164072,75.649888 95.673415,76.872445 94.753037,77.627289 94,79.015969 94,79.9584 94,81.676076 86.64375,89 84.918493,89 84.413322,89 84,90.575 84,92.5 84,94.944444 83.547619,96 82.5,96 81.644616,96 81,96.899141 81,98.092271 c 0,3.209049 -3.287445,6.885999 -5.199741,5.815829 -1.858792,-1.04024 -3.231276,0.36234 -4.1582,4.24937 -0.470541,1.9732 -1.11426,2.53181 -2.499982,2.16943 -2.632347,-0.68837 -3.799145,2.71947 -1.505373,4.39672 1.575328,1.15191 1.584067,1.27638 0.08961,1.27638 -0.91077,0 -2.178012,1.0125 -2.816092,2.25 -0.638081,1.2375 -2.060845,3.2396 -3.161698,4.44912 -1.100853,1.20951 -1.755544,2.8402 -1.45487,3.62374 0.571368,1.48896 -1.527077,2.85566 -6.793653,4.42463 -1.969881,0.58685 -3.686746,2.18789 -5,4.66267 -2.057676,3.87761 -5.971756,6.72978 -8.109596,5.90941 -0.919683,-0.35291 -0.981826,0.55269 -0.258758,3.77083 0.523384,2.32941 1.159335,4.5714 1.413225,4.9822 0.972767,1.57397 -0.859831,3.9274 -3.05824,3.9274 -1.848345,0 -2.190958,0.41465 -1.746606,2.11385 0.468594,1.79191 0.226837,2.01041 -1.587328,1.43461 -1.677229,-0.53233 -2.010189,-0.34066 -1.539416,0.88615 0.330383,0.86096 1.002552,1.56539 1.493708,1.56539 1.744016,0 0.8537,1.56135 -1.856989,3.25661 -2.733831,1.70973 -2.736771,1.72354 -0.5,2.34825 1.2375,0.34562 2.25,1.22436 2.25,1.95275 0,1.91828 -1.696689,2.67519 -2.325204,1.0373 -0.572983,-1.49316 -7.442993,-4.16005 -8.358386,-3.24465 -0.302272,0.30227 0.886214,2.88306 2.64108,5.73508 1.881703,3.05815 2.598391,4.95821 1.746963,4.63149 -1.133105,-0.43481 -1.550354,0.77465 -1.939434,5.62177 -0.355861,4.43327 -1.232865,7.26199 -3.108292,10.02559 -2.114003,3.11515 -2.406904,4.23409 -1.534875,5.86349 0.779544,1.45659 0.773434,1.82564 -0.02208,1.33398 C 21.370518,198.11096 21,199.2214 21,201.85765 c 0,2.18663 0.510268,4.14577 1.133929,4.35366 0.759113,0.25304 0.628533,0.88337 -0.395046,1.90695 -0.928207,0.92821 -1.365352,2.67881 -1.11255,4.45536 0.410751,2.88651 0.40176,2.89252 -0.659937,0.44064 -0.591999,-1.36716 -0.879808,-3.23737 -0.639576,-4.15602 0.298618,-1.14192 -0.31665,-1.8143 -1.945017,-2.12559 C 15.35466,206.34514 15,206.67417 15,208.94233 c 0,1.46574 1.173084,5.01905 2.606853,7.89625 2.366597,4.74914 2.485693,5.52759 1.29223,8.44635 -0.723042,1.76829 -1.907691,3.82128 -2.632551,4.5622 -1.645127,1.68157 -4.674081,0.65731 -3.91396,-1.32353 0.308044,-0.80275 0.170342,-1.70042 -0.306004,-1.99482 C 10.463528,225.55041 8,227.18514 8,229.21398 c 0,1.29329 0.4894775,1.81217 1.3852426,1.46843 1.5012244,-0.57607 6.2213234,4.15489 5.8490604,5.86253 -0.125288,0.57472 0.667171,2.80036 1.761019,4.94588 1.093848,2.14552 1.652485,4.1503 1.241414,4.45506 C 17.259865,246.67013 15,253.18107 15,255.27131 c 0,0.89612 0.714819,2.02934 1.588486,2.51827 0.873668,0.48893 1.747448,2.19879 1.941733,3.79969 1.437416,11.84422 1.647152,12.48782 3.852675,11.82239 2.042775,-0.61634 2.035828,-0.56106 -0.197856,1.57427 -2.118032,2.02476 -2.181648,2.36033 -0.747819,3.9447 0.86193,0.95242 1.238538,2.06028 0.836909,2.46191 -1.556011,1.55601 -0.895496,10.13117 1.032167,13.40016 1.973223,3.34625 1.633736,5.54733 -0.522962,3.39063 C 22.1325,297.5325 21.254123,297 20.831385,297 c -1.14269,0 0.254259,3.08564 2.342224,5.17361 C 24.178124,303.17812 25,305.05 25,306.33333 c 0,1.28334 0.316917,2.65025 0.704261,3.0376 0.387343,0.38734 0.724843,1.92484 0.75,3.41666 0.03076,1.82437 0.780122,3.03462 2.288812,3.69656 1.444983,0.63398 2.057033,1.5703 1.720199,2.63157 -0.292606,0.92192 0.127809,1.89712 0.954642,2.21441 1.874573,0.71934 4.862779,6.40668 4.053854,7.71555 -0.33548,0.54282 -1.02887,0.72805 -1.540866,0.41161 -1.985191,-1.22691 -0.804591,2.75579 1.434866,4.84046 1.889925,1.7593 2.145867,2.5487 1.272477,3.92473 -1.631434,2.57031 0.644125,4.61195 2.992788,2.68514 1.54148,-1.26461 1.658359,-1.18464 1.15044,0.78717 -0.572605,2.22292 3.242315,11.08384 5.326542,12.37197 0.748235,0.46243 0.678143,1.30279 -0.229944,2.75687 -1.144669,1.83291 -1.005251,2.41209 1.126968,4.68173 2.425272,2.58159 3.5936,9.00663 1.83536,10.09328 -1.271421,0.78578 -1.006157,6.8356 0.359601,8.20136 0.66,0.66 2.410147,1.2 3.889216,1.2 1.479069,0 3.751569,0.86806 5.05,1.92902 1.89405,1.54764 2.113655,2.18029 1.110784,3.2 C 57.407907,388.00203 57.722485,389 60.154988,389 c 2.128967,0 2.131985,0.0259 0.25,2.14547 -1.900771,2.14073 -1.898901,2.14435 0.845012,1.63867 2.477353,-0.45655 2.75,-0.22311 2.75,2.35453 0,3.04231 1.670054,3.88473 2.648168,1.33581 0.451422,-1.17639 0.901965,-1.2628 1.968615,-0.37756 C 70.537772,397.6912 70.344054,399 68.187091,399 67.189991,399 65.0808,400.35 63.5,402 l -2.874182,3 h 6.246108 c 3.52056,0 5.999457,0.39909 5.68086,0.91459 -0.310886,0.50302 0.907733,1.82494 2.708041,2.93759 4.04695,2.50116 8.053801,6.68384 8.352505,8.71904 0.384641,2.62072 2.523537,4.42815 5.259113,4.44409 1.723785,0.01 2.189478,0.29334 1.353921,0.82363 -1.920721,1.21898 2.156369,4.55574 4.740752,3.87991 1.809709,-0.47325 2.47321,0.27028 2.180517,2.44351 -0.04906,0.3643 1.320617,1.15383 3.043735,1.75451 1.72312,0.60068 2.85419,1.3709 2.51349,1.71161 -0.34071,0.3407 -2.10118,-0.24232 -3.912162,-1.29559 -3.147967,-1.83087 -3.368612,-1.83733 -5.01978,-0.14689 -1.63796,1.67692 -1.618135,1.82647 0.38418,2.89808 1.161194,0.62145 4.863381,1.36496 8.227082,1.65225 5.00889,0.4278 6.51655,0.99667 8.32986,3.14301 1.21772,1.44136 2.23022,3.14566 2.25,3.78733 0.0198,0.64166 0.59726,1.35376 1.2833,1.58244 0.75353,0.25118 0.3073,0.91887 -1.12718,1.68658 -1.87431,1.0031 -2.53482,1.01141 -3.13553,0.0394 C 108.95097,444.30264 107,445.66482 107,448.05902 c 0,1.06754 0.1882,1.94098 0.41821,1.94098 0.23002,0 1.13002,0.27314 2,0.60699 1.00844,0.38697 1.58179,0.0642 1.58179,-0.8906 0,-1.62869 7.23713,-3.07049 7.83333,-1.56057 0.18334,0.4643 2.36898,0.84418 4.85699,0.84418 3.61019,0 4.40742,0.3029 3.94805,1.5 -0.34727,0.90498 -0.005,1.5 0.86308,1.5 0.79127,0 2.4397,1.35396 3.66319,3.00881 1.90445,2.57592 2.6836,2.92269 5.41541,2.41019 1.86691,-0.35023 3.47038,-0.14642 3.86445,0.49119 0.37044,0.5994 1.65948,1.09258 2.86452,1.09597 1.20504,0.003 3.47992,0.67839 5.05529,1.5 3.70566,1.93264 4.61813,1.88306 4.71464,-0.25616 0.0481,-1.06571 0.48492,-0.63497 1.11718,1.10156 0.89326,2.45336 1.43462,2.77229 3.87667,2.28388 2.22121,-0.44424 2.71609,-0.24887 2.27583,0.89844 -0.35048,0.91333 0.0433,1.46612 1.04438,1.46612 0.88385,0 1.60699,0.39752 1.60699,0.88337 0,1.41791 4.69038,2.79543 10.25,3.01033 2.80115,0.10828 3.9869,2.1063 1.25,2.1063 -0.825,0 -1.5,0.40186 -1.5,0.89301 0,1.41296 3.01687,2.19693 4.74106,1.23202 1.76797,-0.9894 7.37597,0.18155 11.34445,2.36873 2.26965,1.2509 2.86322,1.23046 4.85882,-0.16732 1.90039,-1.33109 2.41269,-1.3668 3.12286,-0.21773 0.67657,1.09472 1.10231,1.12179 2.09117,0.13293 0.6829,-0.6829 2.17651,-1.24164 3.31913,-1.24164 2.6041,0 6.75104,2.82122 5.98022,4.06842 -0.77774,1.25841 3.20041,1.18492 5.60803,-0.1036 1.62757,-0.87105 1.93426,-0.70146 1.93426,1.06955 0,1.61084 0.52798,2.02963 2.25,1.7847 1.42471,-0.20265 2.19906,-0.96175 2.11111,-2.06955 -0.15131,-1.90595 0.6979,-2.24627 2.18889,-0.8772 1.3146,1.20709 12.45,2.34755 12.45,1.27509 0,-0.47854 1.125,-0.65501 2.5,-0.39216 2.67957,0.51223 3.24874,-0.60651 1.3,-2.55525 -0.86437,-0.86437 -0.88087,-1.2 -0.059,-1.2 0.62754,0 1.4191,0.45 1.75902,1 0.33992,0.55 1.44333,1 2.45203,1 1.0087,0 2.08581,0.65623 2.39359,1.45829 0.30778,0.80206 3.16842,2.20717 6.35699,3.12246 7.50902,2.15552 7.3863,2.05521 6.2312,5.09334 -0.54437,1.43181 -0.85031,2.74274 -0.67987,2.91319 0.17045,0.17044 2.09554,-1.44489 4.27798,-3.58963 4.45421,-4.37726 7.01693,-4.99447 7.99126,-1.92462 0.62655,1.97409 0.74908,1.99055 2.56739,0.34501 1.82879,-1.65504 1.91037,-1.62644 1.93167,0.67697 l 0.0222,2.40499 1.82163,-2.36874 c 1.58112,-2.05599 2.11763,-2.21034 4.06342,-1.16898 2.63945,1.41259 3.84969,0.68154 2.18746,-1.32133 -0.9142,-1.10155 -0.81874,-1.54142 0.43928,-2.02417 2.76864,-1.06242 3.56581,-0.72073 2.64378,1.13322 -0.5005,1.00638 -0.47361,3.64103 0.0633,6.20028 l 0.93359,4.45028 3.38903,-5.95028 c 1.86397,-3.27265 3.39466,-5.37863 3.40155,-4.67996 z m -5.43331,1.31734 c -0.46824,-0.75763 -0.1307,-1.93971 0.8275,-2.89791 1.71543,-1.71544 1.96575,-0.93591 0.72054,2.24387 -0.56463,1.44183 -0.95835,1.60818 -1.54804,0.65404 z M 262,483.11803 c 0,-0.55 0.45,-1.27811 1,-1.61803 0.55,-0.33992 1,-0.16803 1,0.38197 0,0.55 -0.45,1.27811 -1,1.61803 -0.55,0.33992 -1,0.16803 -1,-0.38197 z m -92.66276,-14.78861 c 0.29429,-0.29428 0.0847,-1.71954 -0.46568,-3.16724 l -1.00075,-2.63218 2.56459,2.40932 c 1.41053,1.32512 2.5646,2.50338 2.5646,2.61836 0,0.11498 -0.94451,0.45605 -2.09891,0.75794 -1.15441,0.30188 -1.85814,0.30809 -1.56385,0.0138 z M 393,429.09385 l -2.5,-0.70679 2.5,-0.67988 c 3.85876,-1.04939 4.98966,-0.84382 4.36163,0.79282 -0.6249,1.62845 -0.67703,1.63554 -4.36163,0.59385 z M 68.950668,401.55944 c 0.657557,-0.79231 1.875388,-1.17968 2.706291,-0.86084 1.227428,0.47101 1.260599,0.73829 0.176887,1.42525 -0.733615,0.46504 -1.951446,0.85242 -2.706291,0.86084 -1.081556,0.0121 -1.119047,-0.29002 -0.176887,-1.42525 z M 422.5,397 c -0.33992,-0.55 -0.14148,-1 0.44098,-1 0.58246,0 1.05902,0.45 1.05902,1 0,0.55 -0.19844,1 -0.44098,1 -0.24254,0 -0.7191,-0.45 -1.05902,-1 z M 437,372.94098 c 0,-0.58246 0.45,-0.7809 1,-0.44098 0.55,0.33992 1,0.81648 1,1.05902 0,0.24254 -0.45,0.44098 -1,0.44098 -0.55,0 -1,-0.47656 -1,-1.05902 z M 451,357 c 0,-1.86667 0.26667,-2.13333 1.2,-1.2 0.93333,0.93333 0.93333,1.46667 0,2.4 -0.93333,0.93333 -1.2,0.66667 -1.2,-1.2 z M 50,356.11803 c 0,-0.55 0.45,-1.27811 1,-1.61803 0.55,-0.33992 1,-0.16803 1,0.38197 0,0.55 -0.45,1.27811 -1,1.61803 -0.55,0.33992 -1,0.16803 -1,-0.38197 z M 23.508001,292.01295 c -0.335518,-0.54288 0.379295,-2.00538 1.588475,-3.25 1.797361,-1.85005 2.080364,-1.92872 1.551016,-0.43116 C 26.291371,289.33927 26,290.80177 26,291.58179 c 0,1.6249 -1.584763,1.89909 -2.491999,0.43116 z M 245.38,266.54789 c -0.30647,-0.79867 -0.24526,-1.95689 0.13603,-2.57383 0.4518,-0.73102 0.006,-0.69273 -1.27892,0.10994 -2.43157,1.51854 -4.66605,0.74357 -6.57472,-2.28026 C 235.17536,257.86364 234.65776,255 236.43261,255 237.29468,255 238,254.52344 238,253.94098 c 0,-0.58246 -0.40285,-0.81004 -0.89522,-0.50574 -1.64211,1.01488 -2.10195,-2.50627 -0.74975,-5.74114 1.5671,-3.74898 4.1251,-6.13343 5.60117,-5.22117 0.57409,0.35481 1.0438,-0.0361 1.0438,-0.8686 0,-0.93767 1.32941,-1.7631 3.49343,-2.16907 3.95207,-0.74142 8.86544,0.17505 8.04609,1.5008 -0.29825,0.48258 0.28936,0.65994 1.3058,0.39414 2.69534,-0.70485 7.47977,5.23841 6.7043,8.32813 -0.36109,1.43869 -0.14431,2.34167 0.56217,2.34167 1.55856,0 0.46653,6.46842 -1.63299,9.67269 -1.34467,2.05224 -1.86548,2.25128 -3.1346,1.19801 -1.27931,-1.06174 -1.46796,-0.96167 -1.1831,0.62759 0.64972,3.62484 -10.45709,6.4999 -11.7811,3.0496 z m 10.8194,-13.45313 c 0.35457,-2.41584 -0.12469,-3.40274 -2.50821,-5.16495 -2.79093,-2.06342 -3.12087,-2.09534 -6.2476,-0.6043 -4.40943,2.10271 -5.02097,6.14381 -1.47345,9.73676 2.52267,2.55498 2.54019,2.55723 6.1604,0.79062 2.71827,-1.32648 3.74068,-2.52208 4.06886,-4.75813 z m 217.14723,-36.42655 c 0.35935,-1.00748 0.65337,-2.46998 0.65337,-3.25 0,-1.75169 1.61779,-1.87271 2.24871,-0.16821 0.25448,0.6875 -0.44139,2.15 -1.54637,3.25 -1.81879,1.81058 -1.94719,1.82651 -1.35571,0.16821 z M 30,171.5 C 28.980429,170.27149 29.048765,170 30.377555,170 31.2699,170 32,170.675 32,171.5 32,172.325 31.8301,173 31.622445,173 31.414789,173 30.684689,172.325 30,171.5 Z m 411.8125,-45.18311 c 0.72187,-0.28887 1.58438,-0.25335 1.91667,0.0789 0.33229,0.3323 -0.25834,0.56864 -1.3125,0.52522 -1.16495,-0.048 -1.4019,-0.28494 -0.60417,-0.60416 z m -13.72817,-22.26477 c -1.02553,-0.63381 -0.81978,-1.00131 0.8589,-1.5341 2.67537,-0.84913 3.58428,-0.20071 1.7974,1.28228 -0.75076,0.62307 -1.88207,0.73032 -2.6563,0.25182 z m -325.751,-27.595153 c 0,-0.919608 0.57175,-1.323633 1.41512,-1 0.77832,0.298668 2.16582,0.549924 3.08334,0.558346 1.4425,0.01324 1.46526,0.146468 0.16821,0.984687 -2.2717,1.468087 -4.66667,1.189399 -4.66667,-0.543033 z m 226.78901,-36.826744 -2.22629,-2.369776 2.15089,-0.562471 c 1.18299,-0.309358 1.91011,-0.321688 1.61582,-0.0274 -0.29429,0.294288 -0.12494,1.613799 0.37633,2.932247 1.13725,2.991173 0.87114,2.994977 -1.91675,0.0274 z M 209.38866,23.429553 C 209.7249,22.553333 210,21.396672 210,20.859196 c 0,-0.537477 0.45,-0.699115 1,-0.359196 1.53973,0.951606 1.18535,3.214898 -0.61134,3.904352 -1.17937,0.452567 -1.44745,0.191242 -1,-0.974799 z M 236,23.118034 c 0,-0.55 0.45,-1.278115 1,-1.618034 0.55,-0.339919 1,-0.168034 1,0.381966 0,0.55 -0.45,1.278115 -1,1.618034 -0.55,0.339919 -1,0.168034 -1,-0.381966 z m 7,-22.0866492 c 0,-0.53273837 0.675,-0.7095934 1.5,-0.3930112 0.825,0.3165822 1.5,0.752459 1.5,0.9686152 C 246,1.823145 245.325,2 244.5,2 243.675,2 243,1.5641232 243,1.0313848 Z"
       id="path1119" />
  </g>
</svg>
