<?xml version="1.0" encoding="UTF-8" standalone="no"?>
<!-- Created with Inkscape (http://www.inkscape.org/) -->

<svg
   version="1.1"
   id="svg1187"
   width="500"
   height="500"
   viewBox="0 0 500 500"
   sodipodi:docname="Progress Clock 2-0.svg"
   inkscape:version="1.2 (dc2aedaf03, 2022-05-15)"
   xmlns:inkscape="http://www.inkscape.org/namespaces/inkscape"
   xmlns:sodipodi="http://sodipodi.sourceforge.net/DTD/sodipodi-0.dtd"
   xmlns="http://www.w3.org/2000/svg"
   xmlns:svg="http://www.w3.org/2000/svg">
  <defs
     id="defs1191" />
  <sodipodi:namedview
     id="namedview1189"
     pagecolor="#ffffff"
     bordercolor="#000000"
     borderopacity="0.25"
     inkscape:showpageshadow="2"
     inkscape:pageopacity="0.0"
     inkscape:pagecheckerboard="0"
     inkscape:deskcolor="#d1d1d1"
     showgrid="false"
     inkscape:zoom="0.70710678"
     inkscape:cx="-5.6568542"
     inkscape:cy="248.90159"
     inkscape:window-width="1920"
     inkscape:window-height="1017"
     inkscape:window-x="-8"
     inkscape:window-y="-8"
     inkscape:window-maximized="1"
     inkscape:current-layer="g1193" />
  <g
     inkscape:groupmode="layer"
     inkscape:label="Image"
     id="g1193">
    <path
       style="fill:#000000"
       d="M 237,495.57946 C 237,492.74448 236.60949,492 235.12244,492 c -1.03265,0 -2.43775,0.675 -3.12244,1.5 -1.43102,1.72428 -6.64388,1.96609 -10.53029,0.48848 -1.46327,-0.55633 -6.55506,-1.68798 -11.3151,-2.51479 C 201.49007,489.96869 191,486.33306 191,484.83512 c 0,-0.43827 -1.9125,-0.55122 -4.25,-0.25099 -3.14625,0.4041 -5.27881,0.01 -8.21144,-1.51913 -2.17879,-1.13575 -5.35129,-2.065 -7.05,-2.065 -1.69871,0 -3.51606,-0.39564 -4.03856,-0.8792 -0.5225,-0.48356 -2.6375,-1.41845 -4.7,-2.07755 -2.0625,-0.65909 -3.75,-1.80618 -3.75,-2.54909 0,-0.8284 -2.22208,-1.84801 -5.74631,-2.6367 -3.29868,-0.73821 -6.59978,-2.20557 -7.75,-3.44493 -1.30303,-1.404 -3.83955,-2.41095 -7.25369,-2.87958 C 135.3625,466.1366 133,465.40455 133,464.90616 133,464.40777 132.32604,464 131.50232,464 c -0.82372,0 -3.16748,-1.575 -5.20834,-3.5 C 122.43426,456.85939 121,456.21526 121,458.12244 c 0,0.81349 -0.38367,0.80403 -1.39388,-0.0344 -0.76664,-0.63625 -3.80414,-1.92982 -6.75,-2.87459 -3.99377,-1.28085 -5.39267,-2.22593 -5.49982,-3.71562 -0.079,-1.09883 -0.19154,-2.39046 -0.25,-2.8703 -0.0585,-0.47985 -0.79217,-0.30322 -1.63047,0.3925 -1.98468,1.64714 -2.67454,0.84415 -3.07105,-3.57471 -0.44354,-4.94283 -1.37342,-7.58276 -2.438988,-6.92421 -0.489618,0.3026 -2.102822,-1.28219 -3.584897,-3.52176 -1.567447,-2.36857 -3.36111,-3.96361 -4.287789,-3.81297 -2.081401,0.33833 -5.545265,-2.64441 -9.249453,-7.96474 -1.638294,-2.35308 -3.583711,-4.15308 -4.323148,-4 -0.739438,0.15308 -3.251666,-1.52167 -5.582728,-3.72167 -2.331062,-2.2 -5.747951,-5.41977 -7.593087,-7.15505 -2.070718,-1.94743 -3.131793,-3.73618 -2.772181,-4.67331 0.355407,-0.92618 -0.227583,-1.95186 -1.49495,-2.63013 C 59.934902,400.42998 59,399.30955 59,398.55168 c 0,-1.1146 -0.570691,-1.16254 -2.986034,-0.25085 -3.403376,1.28463 -5.016052,0.32157 -5.277689,-3.15175 C 50.64724,393.96709 50.264602,393 49.885972,393 c -1.16947,0 -4.505735,-6.34881 -5.224316,-9.94172 -0.375075,-1.87538 -1.366251,-4.11819 -2.202611,-4.98403 C 40.075122,375.60631 30.187134,354.53316 29.428886,350.30456 29.053671,348.21205 28.05893,345.7125 27.218351,344.75 26.377772,343.7875 26.022582,343 26.429042,343 c 0.406459,0 -0.596404,-1.6875 -2.228584,-3.75 -2.633898,-3.32832 -2.796896,-3.90912 -1.449531,-5.16507 1.35214,-1.26039 1.312088,-1.56567 -0.366428,-2.7929 -1.036474,-0.75781 -1.972238,-2.51215 -2.079474,-3.89853 -0.107237,-1.38638 -1.715289,-4.85457 -3.57345,-7.7071 -2.138703,-3.28319 -3.458811,-6.62271 -3.597398,-9.10045 -0.279132,-4.99047 -0.554292,-5.37458 -3.6098561,-5.03916 C 7.8379453,305.7319 7,305.33283 7,304.34456 c 0,-1.0245 0.6152185,-1.28407 2.0009893,-0.84425 1.8047507,0.57281 1.9028217,0.37689 0.9999997,-1.99771 C 9.4504452,300.05456 9,297.31285 9,295.40992 9,293.50698 8.1656042,289.57603 7.1457872,286.67447 4.4321676,278.95373 5.1822163,258.60296 8.5787048,247.79569 11.674712,237.94452 11.630572,236.9763 7.9241136,233.43709 4.3160603,229.99185 4.3302483,229.12967 8.2933385,211 10.879382,199.16981 13.673139,191 15.13256,191 c 0.456048,0 0.583539,-1.9125 0.283313,-4.25 -0.404102,-3.14625 -0.0096,-5.27881 1.51913,-8.21144 C 18.070752,176.35977 19,173.18727 19,171.48856 c 0,-1.69871 0.395639,-3.51606 0.879198,-4.03856 0.483558,-0.5225 1.418457,-2.6375 2.077552,-4.7 0.659095,-2.0625 1.806183,-3.75 2.549086,-3.75 0.828408,0 1.848011,-2.22208 2.6367,-5.74631 0.738211,-3.29868 2.205576,-6.59978 3.444931,-7.75 1.404003,-1.30303 2.410956,-3.83955 2.879586,-7.25369 C 33.863396,135.3625 34.595449,133 35.093838,133 35.592227,133 36,132.40674 36,131.68165 c 0,-0.72509 1.574648,-3.08759 3.499218,-5.25 C 43.170036,122.30719 43.742412,121 41.877555,121 c -0.813485,0 -0.804023,-0.38367 0.03437,-1.39388 0.636251,-0.76664 1.940127,-3.80414 2.897503,-6.75 1.571774,-4.83639 2.005098,-5.33785 4.465624,-5.16786 2.736599,0.18907 3.636867,-1.00663 1.672157,-2.22088 -2.004234,-1.23869 -0.351399,-2.70737 3.428544,-3.04655 5.111589,-0.45868 7.769222,-1.37723 7.1031,-2.455038 -0.3026,-0.489618 1.282191,-2.102822 3.521758,-3.584897 2.368571,-1.567447 3.963612,-3.36111 3.812979,-4.287789 -0.338336,-2.081401 2.644409,-5.545265 7.964734,-9.249453 2.353081,-1.638294 4.153081,-3.583711 4,-4.323148 C 80.625248,77.781067 82.3,75.268839 84.5,72.937777 c 2.2,-2.331062 5.419773,-5.747951 7.155051,-7.593087 1.947429,-2.070718 3.736176,-3.131793 4.673307,-2.772181 0.926178,0.355407 1.95186,-0.227583 2.630134,-1.49495 C 99.570023,59.934902 100.69045,59 101.44832,59 c 1.1146,0 1.16254,-0.570691 0.25085,-2.986034 -1.28463,-3.403376 -0.32157,-5.016052 3.15175,-5.277689 C 106.03291,50.64724 107,50.264602 107,49.885972 c 0,-1.16947 6.34881,-4.505735 9.94172,-5.224316 1.87538,-0.375075 4.11819,-1.366251 4.98403,-2.202611 2.46794,-2.383923 23.54109,-12.271911 27.76969,-13.030159 2.09251,-0.375215 4.59206,-1.369956 5.55456,-2.210535 0.9625,-0.840579 1.75,-1.195769 1.75,-0.789309 0,0.406459 1.6875,-0.596404 3.75,-2.228584 3.32832,-2.633898 3.90912,-2.796896 5.16507,-1.449531 1.26039,1.35214 1.56567,1.312088 2.7929,-0.366428 0.75781,-1.036474 2.51215,-1.972238 3.89853,-2.079474 1.38638,-0.107237 4.85457,-1.715289 7.7071,-3.57345 3.28319,-2.138703 6.62271,-3.458811 9.10045,-3.597398 4.37467,-0.244689 5.87059,-0.864598 5.09902,-2.113033 C 193.80341,9.8728946 194.99033,7 196.17438,7 c 0.52822,0 0.67461,0.9004452 0.32531,2.0009893 -0.57281,1.8047507 -0.37689,1.9028217 1.99771,0.9999997 C 199.94544,9.4504452 202.68715,9 204.59008,9 c 1.90294,0 5.88783,-0.8533531 8.85531,-1.8963402 4.4912,-1.5785283 7.1851,-1.8050006 16.07412,-1.3513291 7.49278,0.3824114 10.89055,0.2022067 11.38883,-0.60402 0.39058,-0.6319672 4.28348,-1.5950663 8.6509,-2.1402202 C 253.92666,2.4629366 258.7375,1.7523439 260.25,1.4289955 262.84731,0.87373126 263,1.0398284 263,4.4205447 263,7.255522 263.39051,8 264.87756,8 265.91021,8 267.31531,7.325 268,6.5 c 1.43102,-1.724276 6.64388,-1.966093 10.53029,-0.4884846 1.46327,0.5563335 6.55506,1.6879895 11.3151,2.514791 C 298.50993,10.031307 309,13.666939 309,15.164883 c 0,0.438271 1.9125,0.551216 4.25,0.25099 3.14625,-0.404102 5.27881,-0.0096 8.21144,1.51913 2.17879,1.135749 5.35129,2.064997 7.05,2.064997 1.69871,0 3.51606,0.395639 4.03856,0.879198 0.5225,0.483558 2.6375,1.418457 4.7,2.077552 2.0625,0.659095 3.75,1.806183 3.75,2.549086 0,0.828408 2.22208,1.848011 5.74631,2.6367 3.29868,0.738211 6.59978,2.205576 7.75,3.444931 1.30303,1.404003 3.83955,2.410956 7.25369,2.879586 2.8875,0.396343 5.25,1.128396 5.25,1.626785 C 367,35.592227 367.67396,36 368.49768,36 c 0.82372,0 3.16748,1.575 5.20834,3.5 3.85972,3.640605 5.29398,4.284737 5.29398,2.377555 0,-0.813485 0.38367,-0.804023 1.39388,0.03437 0.76664,0.636251 3.80414,1.929817 6.75,2.87459 3.99377,1.280847 5.39267,2.225932 5.49982,3.715625 0.079,1.09882 0.19154,2.390455 0.25,2.8703 0.0585,0.479844 0.79217,0.303219 1.63047,-0.392501 1.98468,-1.647145 2.67454,-0.844154 3.07105,3.574709 0.44354,4.942831 1.37342,7.58276 2.43899,6.924205 0.48962,-0.3026 2.10282,1.282191 3.5849,3.521758 1.56744,2.368571 3.3611,3.963612 4.28778,3.812979 2.0814,-0.338336 5.54527,2.644409 9.24946,7.964734 1.63829,2.353081 3.58371,4.153081 4.32315,4 0.73943,-0.153081 3.25166,1.521671 5.58272,3.721671 2.33107,2.2 5.74795,5.419773 7.59309,7.155051 2.07072,1.947429 3.13179,3.736176 2.77218,4.673307 -0.35541,0.926178 0.22758,1.95186 1.49495,2.630134 1.14266,0.611531 2.07756,1.731953 2.07756,2.489823 0,1.1146 0.57069,1.16254 2.98603,0.25085 3.40338,-1.28462 5.01606,-0.32156 5.27769,3.15175 0.089,1.18199 0.47168,2.14908 0.85031,2.14908 1.16947,0 4.50573,6.34881 5.22431,9.94172 0.37508,1.87538 1.36625,4.11819 2.20262,4.98403 2.38392,2.46794 12.27191,23.54109 13.03015,27.76969 0.37522,2.09251 1.36996,4.59206 2.21054,5.55457 0.84058,0.9625 1.19577,1.75 0.78931,1.75 -0.40646,0 0.5964,1.6875 2.22858,3.75 2.6339,3.32831 2.7969,3.90912 1.44953,5.16507 -1.35214,1.26039 -1.31209,1.56567 0.36643,2.7929 1.03648,0.75781 1.97224,2.51215 2.07948,3.89853 0.10723,1.38638 1.71528,4.85457 3.57344,7.7071 2.13871,3.28318 3.45882,6.62271 3.5974,9.10045 0.27913,4.99046 0.5543,5.37458 3.60986,5.03916 1.68637,-0.18511 2.52432,0.21395 2.52432,1.20222 0,1.0245 -0.61522,1.28408 -2.00099,0.84425 -1.80475,-0.57281 -1.90282,-0.37689 -1,1.99771 0.55054,1.44804 1.00099,4.12193 1.00099,5.94197 0,1.82006 0.73821,5.27826 1.64046,7.6849 1.35927,3.62568 1.60335,7.9754 1.42398,25.37574 -0.11907,11.55 -0.63227,21.4275 -1.14046,21.94999 -1.45898,1.50007 -1.07641,7.17861 0.57602,8.55001 1.89003,1.56858 1.91338,6.21823 0.0631,12.56849 -0.79028,2.71232 -1.93834,7.8565 -2.55123,11.43151 -1.18555,6.91523 -4.84974,17 -6.17677,17 -0.43827,0 -0.55122,1.9125 -0.25099,4.25 0.4041,3.14625 0.01,5.27881 -1.51913,8.21143 -1.13575,2.17879 -2.065,5.35129 -2.065,7.05 0,1.69871 -0.39564,3.51606 -0.8792,4.03857 -0.48356,0.52249 -1.41845,2.6375 -2.07755,4.7 -0.65909,2.0625 -1.80618,3.75 -2.54909,3.75 -0.8284,0 -1.84801,2.22208 -2.6367,5.7463 -0.73821,3.29868 -2.20557,6.59979 -3.44493,7.75 -1.404,1.30303 -2.41095,3.83955 -2.87958,7.2537 -0.39635,2.88749 -1.1284,5.25 -1.62679,5.25 -0.49839,0 -0.90616,0.67396 -0.90616,1.49768 0,0.82371 -1.575,3.16748 -3.5,5.20834 -3.64061,3.85972 -4.28474,5.29398 -2.37756,5.29398 0.81349,0 0.80403,0.38366 -0.0344,1.39388 -0.63625,0.76664 -1.92982,3.80414 -2.87459,6.75 -1.28085,3.99377 -2.22593,5.39267 -3.71562,5.49982 -1.09883,0.079 -2.39046,0.19153 -2.8703,0.25 -0.47985,0.0585 -0.30322,0.79217 0.3925,1.63047 1.64714,1.98468 0.84415,2.67454 -3.57471,3.07105 -4.94283,0.44354 -7.58276,1.37342 -6.92421,2.43899 0.3026,0.48962 -1.28219,2.10282 -3.52176,3.5849 -2.36857,1.56744 -3.96361,3.3611 -3.81297,4.28778 0.33833,2.0814 -2.64441,5.54527 -7.96474,9.24946 -2.35308,1.63829 -4.15308,3.58371 -4,4.32315 0.15308,0.73943 -1.52167,3.25166 -3.72167,5.58272 -2.2,2.33107 -5.41977,5.74795 -7.15505,7.59309 -1.94743,2.07072 -3.73618,3.13179 -4.67331,2.77218 -0.92618,-0.35541 -1.95186,0.22758 -2.63013,1.49495 C 400.42993,440.0651 399.3095,441 398.55163,441 c -1.1146,0 -1.16254,0.57069 -0.25085,2.98603 1.23471,3.27112 0.50011,4.62984 -2.80083,5.1804 -1.1,0.18346 -2.45,0.83619 -3,1.45051 -1.41152,1.57658 -6.54072,4.15515 -9.5,4.77588 -1.375,0.28841 -3.4,1.22149 -4.5,2.0735 -3.5928,2.78284 -24.29673,12.4057 -28.19544,13.10479 -2.09251,0.37522 -4.59206,1.36996 -5.55456,2.21054 -0.9625,0.84058 -1.75,1.19577 -1.75,0.78931 0,-0.40646 -1.6875,0.5964 -3.75,2.22858 -3.32832,2.6339 -3.90912,2.7969 -5.16507,1.44953 -1.26039,-1.35214 -1.56567,-1.31209 -2.7929,0.36643 -0.75781,1.03648 -2.51215,1.97224 -3.89853,2.07948 -1.38638,0.10723 -4.85457,1.71528 -7.7071,3.57344 -3.28319,2.13871 -6.62271,3.45882 -9.10045,3.5974 -4.99047,0.27913 -5.37458,0.5543 -5.03916,3.60986 0.18511,1.68637 -0.21396,2.52432 -1.20223,2.52432 -1.0245,0 -1.28407,-0.61522 -0.84425,-2.00099 0.57281,-1.80475 0.37689,-1.90282 -1.99771,-1 -1.44804,0.55054 -4.10806,1.00099 -5.91115,1.00099 -1.80309,0 -5.76245,0.85466 -8.79857,1.89924 -4.59285,1.58017 -7.32375,1.80719 -16.25565,1.35132 -7.53815,-0.38472 -10.94693,-0.20569 -11.44557,0.60113 -0.39058,0.63197 -4.28348,1.59507 -8.6509,2.14022 -4.36742,0.54515 -9.17826,1.25575 -10.69076,1.57909 -2.59731,0.55527 -2.75,0.38917 -2.75,-2.99154 z m 45.33731,-5.90882 c 1.30493,1.30493 5.47659,-2.78407 8.24445,-8.08108 C 293.67162,475.67631 296,474.34863 296,478.5 c 0,3.07181 1.45236,3.20363 3.75979,0.34125 6.35278,-7.88069 9.44057,-9.57971 12.61784,-6.94281 1.46556,1.21631 1.86677,1.15122 3.08221,-0.50006 1.30811,-1.77718 1.44063,-1.78665 2.07573,-0.14838 0.99364,2.56317 2.46443,2.13429 2.46443,-0.71862 0,-1.5136 0.48357,-2.31963 1.25,-2.08352 0.6875,0.2118 2.58778,0.68142 4.22285,1.0436 2.91748,0.64624 2.93921,0.62135 1.16703,-1.33689 -1.74555,-1.92882 -1.7385,-2.03142 0.21141,-3.07499 2.71564,-1.45336 2.6397,-1.51608 2.71625,2.24383 0.0371,1.82463 0.77601,4.32899 1.64192,5.56524 1.55176,2.21546 1.60782,2.16147 3.90366,-3.75932 1.79756,-4.63577 2.62121,-5.76478 3.60808,-4.94575 0.88601,0.73532 1.2788,0.73878 1.2788,0.0113 0,-1.52286 12.05883,-8.61603 14.35387,-8.44315 2.36589,0.17822 7.64613,-2.43036 7.64613,-3.77738 0,-0.53588 0.3958,-0.86182 0.87956,-0.72432 1.672,0.47524 7.28062,-4.3902 6.72622,-5.83494 -0.37697,-0.98236 0.2048,-1.41506 1.90255,-1.41506 1.50287,0 3.07482,-0.96037 4.078,-2.49141 0.89784,-1.37028 2.11561,-2.1928 2.70616,-1.82782 0.64719,0.39998 -0.31533,1.88625 -2.42298,3.74141 -3.1665,2.78716 -3.38173,3.302 -2.27913,5.45171 l 1.21758,2.37389 3.04228,-4.19974 c 1.67326,-2.30986 3.7926,-6.16442 4.70965,-8.56568 1.6741,-4.38359 2.56794,-5.01431 10.59103,-7.4734 2.38379,-0.73064 2.69229,-0.53056 3.06159,1.98558 0.29493,2.0095 0.041,2.65624 -0.90092,2.29479 -0.72288,-0.2774 -1.31159,0.16997 -1.31159,0.99669 0,2.34696 3.25272,3.08886 4.72354,1.07738 0.70197,-0.96 0.8846,-1.99699 0.40585,-2.30443 -1.15797,-0.74359 -0.65353,-8.11065 0.61088,-8.92171 0.54641,-0.35049 2.15743,-2.88726 3.58004,-5.63726 1.42261,-2.75 2.60752,-4.35906 2.63313,-3.57569 0.0341,1.04238 0.64992,0.85912 2.29656,-0.68338 1.2375,-1.15924 3.4875,-2.57654 5,-3.14957 1.5125,-0.57302 2.80191,-1.8405 2.86535,-2.81661 0.0634,-0.97611 0.2199,-2.22475 0.34769,-2.77475 0.12778,-0.55 0.30087,-1.5625 0.38465,-2.25 0.0838,-0.6875 0.75897,-1.25 1.50044,-1.25 0.74146,0 2.15379,-1.78666 3.1385,-3.97036 0.98472,-2.1837 2.62806,-4.72844 3.65188,-5.65499 2.32406,-2.10325 2.35419,-3.09924 0.11149,-3.68532 -1.10103,-0.28773 -0.75208,-0.50035 0.94098,-0.57333 3.01802,-0.1301 4.40913,-1.70566 3.95248,-4.47653 -0.19437,-1.1794 0.17626,-1.69956 1.01242,-1.42084 1.67902,0.55967 9.82549,-8.10361 9.18636,-9.76914 -0.26322,-0.68595 0.002,-1.54426 0.58959,-1.90736 C 441.51932,372.17904 442,371.00852 442,369.94098 442,368.87344 442.63287,368 443.40638,368 c 0.91405,0 1.22329,0.70014 0.88337,2 -0.28766,1.1 -0.0687,2 0.48663,2 1.20463,0 2.22362,-2.38094 2.22362,-5.19563 0,-2.34206 3.66288,-9.36091 6.28816,-12.04944 1.34521,-1.37763 1.62728,-2.68877 1.1387,-5.29309 C 453.98442,347.10343 454.15311,346 454.9561,346 c 0.71473,0 0.93433,-0.76985 0.55792,-1.95584 -0.85256,-2.68618 1.38583,-9.71083 3.09433,-9.71083 0.76541,0 1.4282,0.4875 1.47287,1.08334 0.0447,0.59583 0.6811,-0.26667 1.41428,-1.91667 0.73319,-1.65 1.09879,-4.19547 0.81246,-5.65661 -0.41965,-2.14145 -0.16064,-2.62624 1.33572,-2.5 1.33078,0.11227 1.9459,-0.62194 2.17274,-2.59339 0.24144,-2.09831 -0.11403,-2.75754 -1.5,-2.7818 -1.72207,-0.0302 -1.72552,-0.10081 -0.0664,-1.36025 0.9625,-0.73064 1.75,-2.23412 1.75,-3.34107 0,-1.10696 0.848,-3.98235 1.88445,-6.38976 1.20199,-2.79192 1.948,-7.09104 2.05994,-11.87091 0.12506,-5.34057 0.58927,-7.72536 1.61555,-8.29969 0.79203,-0.44325 1.44006,-1.89442 1.44006,-3.22483 0,-1.85083 0.39305,-2.26809 1.67361,-1.7767 1.24856,0.47912 1.5168,0.23359 1.05618,-0.96677 -0.33959,-0.88495 -0.16464,-1.75994 0.38878,-1.94441 0.66702,-0.22234 0.64808,-1.27736 -0.0562,-3.12971 -1.36755,-3.59692 -1.36952,-8.6641 -0.003,-8.6641 0.58246,0 0.7809,0.45 0.44098,1 -1.12464,1.8197 0.54303,3.09983 2.06089,1.58197 1.33462,-1.33462 1.03429,-4.58197 -0.42377,-4.58197 -0.35689,0 -1.26627,-1.39475 -2.02084,-3.09944 -1.28356,-2.89975 -1.20529,-3.2661 1.21486,-5.68625 1.42275,-1.42274 4.02462,-3.0655 5.78194,-3.65056 1.75732,-0.58506 3.68828,-1.94475 4.29102,-3.02152 0.60275,-1.07677 1.68235,-2.59536 2.39912,-3.37464 2.64044,-2.87074 0.99174,-5.38818 -4.80322,-7.33417 -9.0879,-3.05178 -8.65279,-2.81109 -6.97197,-3.8567 1.21007,-0.75277 1.24956,-1.27456 0.22197,-2.93264 -1.52238,-2.45644 -1.59916,-3.37791 -0.20992,-2.51931 0.67671,0.41823 0.80919,-0.27715 0.3792,-1.99035 -0.61304,-2.44254 -0.47115,-2.58554 1.95992,-1.97538 2.03845,0.51162 2.6208,0.28935 2.6208,-1.00029 0,-2.62256 -2.82421,-7.3943 -5.096,-8.61013 -2.92913,-1.56762 -3.25416,-0.73222 -1.43695,3.69329 l 1.5842,3.85809 -2.48966,-3 c -1.36932,-1.65 -2.50585,-3.7507 -2.52563,-4.66821 -0.0198,-0.91752 -0.31106,-2.38512 -0.6473,-3.26134 -0.45198,-1.17783 -0.18064,-1.42785 1.04089,-0.95911 0.90873,0.34871 1.58055,0.24132 1.49292,-0.23866 -0.60713,-3.3257 0.95211,-2.78778 7.4149,2.55806 7.70782,6.37568 9.38442,7.28645 7.733,4.20074 -0.55,-1.02768 -0.72988,-2.13864 -0.39973,-2.46879 1.30493,-1.30493 -2.78407,-5.47659 -8.08108,-8.24445 C 475.67631,206.32838 474.34863,204 478.5,204 c 3.07181,0 3.20363,-1.45236 0.34125,-3.75979 -8.12019,-6.54585 -10.07359,-10.26364 -6.65193,-12.66026 1.9887,-1.39294 1.98636,-1.41556 -0.27188,-2.62414 -2.08304,-1.11481 -2.13416,-1.32417 -0.59766,-2.44769 2.34566,-1.71519 2.09641,-2.50812 -0.7884,-2.50812 -1.5136,0 -2.31963,-0.48357 -2.08352,-1.25 0.2118,-0.6875 0.68142,-2.58778 1.0436,-4.22285 0.64624,-2.91748 0.62135,-2.93921 -1.33689,-1.16703 -1.92882,1.74555 -2.03142,1.7385 -3.07499,-0.21141 -1.47049,-2.74765 -1.37603,-3.039 0.80068,-2.46977 1.03415,0.27043 3.5824,-0.38155 5.66279,-1.44885 l 3.78253,-1.94056 -6.10165,-2.36597 c -4.71013,-1.82639 -5.85962,-2.6576 -5.04035,-3.64476 0.73532,-0.88601 0.73878,-1.2788 0.0113,-1.2788 -1.52286,0 -8.61603,-12.05883 -8.44315,-14.35387 C 455.92992,143.28024 453.32134,138 451.97432,138 c -0.53588,0 -0.86182,-0.3958 -0.72432,-0.87956 0.47524,-1.672 -4.3902,-7.28062 -5.83494,-6.72622 C 444.4327,130.77119 444,130.18942 444,128.49167 c 0,-1.50287 -0.96037,-3.07482 -2.49141,-4.078 -1.37028,-0.89784 -2.1928,-2.11561 -1.82782,-2.70616 0.39998,-0.64719 1.88625,0.31533 3.74141,2.42298 2.78716,3.1665 3.302,3.38173 5.45171,2.27913 l 2.37389,-1.21758 -4.19974,-3.04228 c -2.30986,-1.67326 -6.16442,-3.7926 -8.56568,-4.70965 -4.39463,-1.67832 -5.0175,-2.56592 -7.50182,-10.69011 -0.75723,-2.47629 -0.59905,-2.75 1.58927,-2.75 1.3366,0 2.43019,0.45 2.43019,1 0,1.68499 2.7442,1.10898 3.44744,-0.72362 0.70899,-1.84761 -2.38931,-4.961725 -3.38847,-3.40577 -0.74359,1.15797 -8.11065,0.65353 -8.92171,-0.61088 -0.35049,-0.546409 -2.88726,-2.157425 -5.63726,-3.580038 -2.75,-1.422613 -4.35906,-2.607522 -3.57569,-2.633131 1.04238,-0.03408 0.85912,-0.649917 -0.68338,-2.296561 -1.15924,-1.2375 -2.57654,-3.4875 -3.14957,-5 -0.57302,-1.5125 -1.8405,-2.801907 -2.81661,-2.86535 -0.97611,-0.06344 -2.22475,-0.219901 -2.77475,-0.347685 -0.55,-0.127785 -1.5625,-0.300878 -2.25,-0.384651 -0.6875,-0.08377 -1.25,-0.79699 -1.25,-1.584926 0,-0.787937 -1.0125,-1.733554 -2.25,-2.10137 -1.2375,-0.367817 -3.91111,-1.973141 -5.94136,-3.567388 -4.32892,-3.399271 -4.51996,-3.442134 -5.11931,-1.14863 -0.28773,1.10103 -0.50035,0.752076 -0.57333,-0.940983 -0.1301,-3.018017 -1.70566,-4.40913 -4.47653,-3.952476 -1.1794,0.194372 -1.69956,-0.176266 -1.42084,-1.01242 0.55967,-1.67902 -8.10361,-9.82549 -9.76914,-9.186364 -0.68595,0.263225 -1.54426,-0.0021 -1.90736,-0.589583 C 372.17904,58.480678 371.00852,58 369.94098,58 368.87344,58 368,57.367129 368,56.59362 c 0,-0.914051 0.70014,-1.223291 2,-0.883369 1.1,0.287656 2,0.06867 2,-0.486631 C 372,54.01899 369.61906,53 366.80437,53 c -2.32673,0 -9.35409,-3.656645 -12.01129,-6.25 -2.07121,-2.021449 -3.17022,-2.153711 -5.87366,-0.706876 -1.51491,0.810757 -2.08355,0.692738 -2.55268,-0.529801 -0.37898,-0.987603 -1.28733,-1.355913 -2.44101,-0.989752 -2.59349,0.823145 -9.5924,-1.462001 -9.5924,-3.131924 0,-0.765406 0.4875,-1.428195 1.08334,-1.472866 0.59583,-0.04467 -0.26667,-0.681098 -1.91667,-1.414283 -1.65,-0.733185 -4.19547,-1.098792 -5.65661,-0.812459 -2.14145,0.419652 -2.62624,0.160638 -2.5,-1.335717 0.11227,-1.330778 -0.62194,-1.945905 -2.59339,-2.172744 -2.09831,-0.241438 -2.75754,0.114029 -2.7818,1.5 -0.0302,1.722077 -0.10081,1.725527 -1.36025,0.06642 -0.73064,-0.9625 -2.24218,-1.75 -3.35899,-1.75 -1.1168,0 -3.99219,-0.890117 -6.38976,-1.978038 -3.1035,-1.408248 -6.56083,-1.984364 -12.00221,-2 -5.85676,-0.01683 -7.77754,-0.372528 -8.21862,-1.521962 -0.31658,-0.825 -1.7006,-1.5 -3.0756,-1.5 -1.92664,0 -2.35271,-0.383833 -1.85778,-1.673609 0.47912,-1.248557 0.23359,-1.516798 -0.96677,-1.056177 -0.88495,0.339588 -1.75994,0.164635 -1.94441,-0.388783 -0.22234,-0.667023 -1.27736,-0.648086 -3.12971,0.05618 -3.59692,1.367549 -8.6641,1.369523 -8.6641,0.0034 0,-0.582459 0.45,-0.780902 1,-0.440983 1.87061,1.1561 3.07753,-0.565324 1.50141,-2.141448 -1.35191,-1.351909 -1.88067,-1.287274 -4.94074,0.60395 -3.08489,1.906567 -3.48799,2.687583 -4.04008,7.82769 -0.3373,3.140394 -1.08303,7.558476 -1.65718,9.817958 -0.57414,2.259483 -0.90737,5.409754 -0.7405,7.000601 0.16687,1.590848 -0.0281,3.428911 -0.43338,4.084584 -0.92629,1.498772 0.12111,22.617488 1.35273,27.275137 C 261.99403,81.567791 260.67786,89 259.08869,89 c -0.96929,0 -2.0844,9.847607 -1.33597,11.79799 0.27795,0.72432 1.18276,1.05701 2.0107,0.7393 1.2593,-0.48324 1.38827,0.12028 0.78914,3.69253 -0.39391,2.3486 -0.68729,6.97018 -0.65196,10.27018 0.0638,5.95351 0.0547,5.97288 -1.16818,2.5 -0.67783,-1.925 -1.68242,-3.275 -2.23242,-3 -0.55,0.275 -0.81738,0.95 -0.59417,1.5 0.2232,0.55 0.4482,3.7 0.5,7 0.0518,3.3 0.51302,6.65116 1.02495,7.44702 0.51193,0.79586 0.81607,3.60836 0.67586,6.25 -0.16826,3.17024 0.1466,4.80298 0.92621,4.80298 0.64962,0 0.92211,0.675 0.60552,1.5 -0.31658,0.825 -0.12389,1.5 0.4282,1.5 0.66772,0 0.67146,0.62099 0.0112,1.85475 -1.08999,2.03667 -0.79553,16.60236 0.39209,19.39525 0.51863,1.21962 0.28955,1.75 -0.75584,1.75 -1.96096,0 -2.86695,2.44703 -1.43584,3.87814 C 259.10729,172.70729 259.0869,173 258.2,173 c -0.66,0 -1.2,0.45 -1.2,1 0,0.55 0.87344,1 1.94098,1 1.06754,0 2.21592,0.44485 2.55194,0.98855 0.34351,0.5558 -0.0348,0.74073 -0.86429,0.42244 -2.41075,-0.92509 -3.89131,3.28069 -3.42489,9.72894 0.23313,3.22304 0.10581,5.86007 -0.28294,5.86007 -0.38875,0 -0.96984,0.68541 -1.29131,1.52314 -0.47685,1.24266 -0.22033,1.32825 1.39302,0.46482 1.54837,-0.82867 1.97749,-0.74294 1.97749,0.39507 0,0.79937 0.30147,2.23902 0.66994,3.19923 0.4241,1.10519 0.28173,1.5059 -0.38799,1.092 -1.5365,-0.94962 -2.54859,7.16076 -2.28684,18.32574 0.31661,13.50516 0.31233,13.44851 1.05867,14 1.14565,0.84655 2.26979,5.31801 1.16537,4.63544 -0.57581,-0.35587 -1.29172,1.36283 -1.69901,4.07884 -0.72811,4.85538 -0.81547,22.32373 -0.11514,23.02405 0.2181,0.2181 -0.0323,1.94981 -0.55652,3.84825 -0.75836,2.74656 -0.62419,3.78056 0.65674,5.0615 0.88539,0.88539 1.36364,2.25128 1.06278,3.0353 -2.67871,6.98062 -3.1269,53.73334 -0.54493,56.84442 1.01784,1.22642 0.94559,1.84935 -0.38506,3.3197 -1.84651,2.04037 -2.15679,4.1525 -0.61,4.1525 0.66552,0 0.92998,4.58164 0.75,12.99375 -0.2184,10.20783 -0.57227,12.99509 -1.65045,13 -0.97719,0.004 -1.07759,0.36624 -0.3486,1.25625 2.74433,3.3505 1.1654,16.69028 -2.07583,17.53788 -1.70569,0.44605 -1.78138,0.68327 -0.51609,1.61742 1.99428,1.47235 2.96635,8.91408 2.82078,21.5947 -0.0663,5.775 -0.16606,11.175 -0.22171,12 -0.28289,4.19387 0.17963,5.27332 1.71389,4 1.28561,-1.06696 1.5,-0.73557 1.5,2.31854 0,1.95988 -0.45,3.84154 -1,4.18146 -1.41089,0.87198 -1.24421,5.8369 0.25,7.4467 0.84293,0.90814 0.86543,1.13079 0.0691,0.68369 -1.81027,-1.01637 -2.66168,1.25076 -1.15519,3.07604 1.0492,1.27121 1.06768,1.70915 0.0861,2.03952 -0.6875,0.2314 -1.25,1.49409 -1.25,2.806 0,1.50581 0.46396,2.20724 1.25834,1.90241 0.91438,-0.35088 1.18194,0.68274 0.97883,3.78138 -0.94734,14.45287 -1.93507,37.32704 -1.62658,37.6688 0.33964,0.37627 3.23681,-5.87579 4.80841,-10.37651 0.57549,-1.64807 0.839,-1.7302 1.60428,-0.5 0.75277,1.21007 1.27456,1.24956 2.93264,0.22197 2.45644,-1.52238 3.37791,-1.59916 2.51931,-0.20992 -0.41823,0.67671 0.27715,0.80919 1.99035,0.3792 2.44254,-0.61304 2.58554,-0.47115 1.97538,1.95992 -0.51162,2.03845 -0.28935,2.6208 1.00029,2.6208 2.62256,0 7.3943,-2.82421 8.61013,-5.096 1.56762,-2.92913 0.73222,-3.25416 -3.69329,-1.43695 l -3.85809,1.5842 3,-2.48966 c 1.65,-1.36932 3.7507,-2.50585 4.66821,-2.52563 0.91752,-0.0198 2.38512,-0.31106 3.26134,-0.6473 1.17783,-0.45198 1.42785,-0.18064 0.95911,1.04089 -0.34871,0.90873 -0.24132,1.58055 0.23866,1.49292 3.3257,-0.60713 2.78778,0.95211 -2.55806,7.4149 -6.37568,7.70782 -7.28645,9.38442 -4.20074,7.733 1.02768,-0.55 2.13864,-0.72988 2.46879,-0.39973 z m 14.84004,-17.34128 c 0.17746,-0.915 0.88515,-1.85092 1.57265,-2.07983 1.83866,-0.6122 1.526,2.43058 -0.32265,3.13997 -1.09668,0.42084 -1.475,0.1 -1.25,-1.06014 z m 34.91957,-6.71258 c -0.88524,-1.06665 -0.79883,-1.51719 0.37756,-1.96861 1.04899,-0.40254 1.52552,0.0295 1.52552,1.38321 0,2.33116 -0.36185,2.44247 -1.90308,0.5854 z M 434.192,375.26865 c 0.62893,-0.75781 1.96802,-1.81911 2.97576,-2.35843 1.48087,-0.79254 1.83224,-0.61206 1.83224,0.9411 0,1.36721 -0.85861,2.0477 -2.97575,2.35843 -2.43968,0.35807 -2.76976,0.18853 -1.83225,-0.9411 z M 262,229 c 0,-0.55 0.47656,-1 1.05902,-1 0.58246,0 0.7809,0.45 0.44098,1 -0.33992,0.55 -0.81648,1 -1.05902,1 C 262.19844,230 262,229.55 262,229 Z M 471.16008,202.76008 C 469.59622,201.19622 469.69718,200 471.39301,200 c 1.58471,0 2.93245,2.68082 1.7234,3.42806 -0.43794,0.27065 -1.31828,-0.0299 -1.95633,-0.66798 z M 262,192.5 c 0,-0.825 0.43588,-1.5 0.96862,-1.5 0.53273,0 0.70959,0.675 0.39301,1.5 -0.31659,0.825 -0.75246,1.5 -0.96862,1.5 C 262.17686,194 262,193.325 262,192.5 Z m 201.63837,-25 c -0.39855,-1.03862 0.0676,-1.5 1.51546,-1.5 1.74534,0 1.88524,0.248 0.84617,1.5 -0.68469,0.825 -1.36664,1.5 -1.51546,1.5 -0.14881,0 -0.52958,-0.675 -0.84617,-1.5 z M 263.71025,154 c 0.28766,-1.1 0.69553,-2 0.90638,-2 0.21085,0 0.38337,0.9 0.38337,2 0,1.1 -0.40787,2 -0.90638,2 -0.49851,0 -0.67103,-0.9 -0.38337,-2 z m -3.55236,-19 c 0,-1.375 0.22698,-1.9375 0.50439,-1.25 0.27741,0.6875 0.27741,1.8125 0,2.5 -0.27741,0.6875 -0.50439,0.125 -0.50439,-1.25 z M 374.80709,65.25 C 372.01528,61.999129 371.78498,61 373.82748,61 c 1.39718,0 2.06962,0.84555 2.38583,3 0.51674,3.520811 0.53216,3.507105 -1.40622,1.25 z M 233.54167,477.97425 c 2.82978,-1.7489 3.36467,-2.73975 3.91382,-7.25 0.34985,-2.87334 1.11657,-7.38759 1.70382,-10.03167 0.58725,-2.64408 0.80638,-6.11413 0.48696,-7.71123 -0.31942,-1.59709 -0.14464,-3.17334 0.38839,-3.50277 1.11383,-0.68839 0.3237,-22.18007 -0.99924,-27.17934 -0.88892,-3.35911 0.16835,-10.164 1.73943,-11.19553 1.26581,-0.8311 2.2736,-10.40729 1.2667,-12.03648 -0.47161,-0.76309 -1.35314,-0.99269 -2.08195,-0.54226 -0.9845,0.60845 -1.10169,-0.19244 -0.52998,-3.62189 0.40371,-2.42169 0.70511,-7.10308 0.66978,-10.40308 -0.0637,-5.95351 -0.0547,-5.97288 1.16818,-2.5 0.67783,1.925 1.68242,3.3425 2.23242,3.15 0.55,-0.1925 0.81738,-0.8675 0.59417,-1.5 -0.2232,-0.6325 -0.4482,-3.85 -0.5,-7.15 -0.0518,-3.3 -0.50982,-6.64599 -1.01785,-7.43552 -0.50802,-0.78954 -0.81289,-3.82704 -0.6775,-6.75 C 242.05786,358.88131 241.74445,357 241.01348,357 c -0.62233,0 -0.8534,-0.45 -0.51348,-1 0.33992,-0.55 0.0864,-1 -0.56343,-1 -0.83173,0 -0.8744,-0.37002 -0.14415,-1.25 1.14895,-1.38454 0.947,-17.19802 -0.25542,-20 -0.52468,-1.22266 -0.29897,-1.75 0.74902,-1.75 1.96096,0 2.86695,-2.44703 1.43584,-3.87814 C 240.89271,327.29271 240.9131,327 241.8,327 c 0.66,0 1.2,-0.45 1.2,-1 0,-0.55 -0.87344,-1 -1.94098,-1 -1.06754,0 -2.21592,-0.44485 -2.55194,-0.98855 -0.34351,-0.5558 0.0348,-0.74073 0.86429,-0.42244 2.41075,0.92509 3.89131,-3.28069 3.42489,-9.72894 C 242.56313,310.63703 242.69045,308 243.0792,308 c 0.38875,0 0.9463,-0.62407 1.23899,-1.38682 0.37333,-0.97287 -0.0425,-1.23654 -1.39301,-0.88336 -1.05885,0.27689 -1.92518,0.0378 -1.92518,-0.5314 0,-0.56917 -0.30147,-1.82047 -0.66994,-2.78068 -0.4241,-1.10519 -0.28173,-1.5059 0.38799,-1.092 0.65643,0.4057 1.32506,-1.12754 1.76181,-4.04002 0.72811,-4.85538 0.81547,-22.32373 0.11514,-23.02405 -0.2181,-0.2181 0.0323,-1.94981 0.55652,-3.84825 0.75836,-2.74656 0.62419,-3.78056 -0.65674,-5.0615 -0.88539,-0.88539 -1.36364,-2.25128 -1.06278,-3.0353 1.48366,-3.86637 2.63419,-15.43079 2.02127,-20.31662 -0.37948,-3.025 -0.83882,-7.525 -1.02075,-10 -0.18194,-2.475 -0.41564,-5.175 -0.51934,-6 -0.1037,-0.825 0.30293,-4.425 0.90362,-8 1.50295,-8.94475 0.84927,-47.49251 -0.83987,-49.5278 -1.01784,-1.22642 -0.94559,-1.84935 0.38506,-3.3197 1.84651,-2.04037 2.15679,-4.1525 0.61,-4.1525 -0.66552,0 -0.92998,-4.58164 -0.75,-12.99375 0.2184,-10.20783 0.57227,-12.99509 1.65045,-13 0.96274,-0.004 1.07488,-0.3794 0.37564,-1.25625 -2.93583,-3.68153 -0.90183,-17.71574 2.57714,-17.7818 1.51746,-0.0288 1.5259,-0.14624 0.0899,-1.25 -0.87169,-0.67001 -1.91307,-3.4682 -2.31418,-6.2182 -0.59194,-4.05838 -0.82953,-20.939989 -0.38703,-27.5 0.28289,-4.193867 -0.17963,-5.273324 -1.71389,-4 -1.28561,1.066958 -1.5,0.735571 -1.5,-2.318538 0,-1.959886 0.45,-3.841543 1,-4.181462 1.41089,-0.87198 1.24421,-5.836895 -0.25,-7.446704 -0.84293,-0.908141 -0.86543,-1.130789 -0.0691,-0.683689 1.81027,1.016373 2.66168,-1.250761 1.15519,-3.076033 -1.0492,-1.271214 -1.06768,-1.709155 -0.0861,-2.039529 0.6875,-0.231391 1.25,-1.494089 1.25,-2.805994 0,-1.497724 -0.46512,-2.206559 -1.25,-1.90497 -0.99784,0.383419 -1.0194,-3.707888 -0.10688,-20.281385 0.62871,-11.418933 0.97167,-20.943738 0.76212,-21.166234 -0.35306,-0.37489 -3.23308,5.819765 -4.82424,10.376513 -0.57549,1.648069 -0.839,1.730196 -1.60428,0.5 -0.75277,-1.21007 -1.27456,-1.249566 -2.93264,-0.221975 -2.45644,1.522379 -3.37791,1.599159 -2.51931,0.209918 0.41823,-0.676705 -0.27715,-0.809187 -1.99035,-0.3792 -2.44254,0.613038 -2.58554,0.471154 -1.97538,-1.959919 C 228.07066,17.582347 227.84839,17 226.55875,17 c -2.62256,0 -7.3943,2.824206 -8.61013,5.095997 -1.56762,2.929133 -0.73222,3.254163 3.69329,1.436957 l 3.85809,-1.584209 -3,2.489665 c -1.65,1.369315 -3.7507,2.505847 -4.66821,2.525627 -0.91752,0.01978 -2.45384,0.337435 -3.41405,0.705902 -1.13758,0.436532 -1.50942,0.287416 -1.06726,-0.428004 0.37964,-0.614277 -0.21359,-1.381101 -1.34667,-1.740726 -1.83595,-0.582708 -1.46346,-1.321931 3.98548,-7.909369 5.69893,-6.889667 7.31294,-9.514697 4.95358,-8.0565291 -0.58143,0.3593397 -2.22608,0.7816621 -3.65479,0.9384951 -2.99082,0.328309 -5.49259,3.109481 -8.63496,9.599329 C 206.33319,24.864408 204,25.538088 204,21.416667 c 0,-2.994582 -1.47229,-3.095579 -3.75979,-0.257916 -6.35976,7.889348 -10.52929,10.174186 -12.85317,7.043338 -1.1769,-1.585578 -1.3654,-1.565185 -2.75379,0.297911 -1.38108,1.853284 -1.54018,1.871623 -2.16882,0.25 C 181.47079,26.186834 180,26.615709 180,29.468615 c 0,1.513608 -0.48357,2.319639 -1.25,2.083523 -0.6875,-0.211801 -2.58778,-0.68142 -4.22285,-1.043598 -2.91748,-0.646242 -2.93921,-0.621345 -1.16703,1.336892 1.74555,1.928814 1.7385,2.031423 -0.21141,3.074983 -2.74765,1.470493 -3.039,1.37604 -2.46977,-0.800677 0.27043,-1.034144 -0.38155,-3.582399 -1.44885,-5.662789 l -1.94056,-3.782529 -2.36079,6.088297 c -1.29843,3.348564 -2.70979,5.872599 -3.13636,5.608967 -0.42656,-0.263631 -2.69185,0.831609 -5.03398,2.433866 -5.81869,3.980598 -10.0276,6.002722 -11.44061,5.496508 C 143.59388,43.684462 138,46.819493 138,48.403235 c 0,0.743532 -0.7875,1.969476 -1.75,2.72432 -1.59128,1.24797 -1.62371,1.211535 -0.3575,-0.401721 2.21388,-2.820675 0.83675,-2.847305 -2.73389,-0.05286 -1.88517,1.475371 -3.05518,3.154181 -2.75088,3.947162 C 130.76895,55.561478 130.16003,56 128.49167,56 c -1.50287,0 -3.07482,0.960368 -4.078,2.491414 -0.89784,1.370278 -2.06841,2.221968 -2.60127,1.892645 -0.53285,-0.329323 0.55412,-2.012959 2.41549,-3.741414 3.0465,-2.828947 3.26353,-3.379606 2.17424,-5.516537 l -1.21009,-2.373892 -3.04228,4.199746 c -1.67326,2.309861 -3.7926,6.164415 -4.70965,8.565677 -1.67832,4.394634 -2.56592,5.017505 -10.69011,7.501821 C 104.27371,69.776691 104,69.61851 104,67.430194 104,66.093587 104.45,65 105,65 c 1.68499,0 1.10898,-2.744202 -0.72362,-3.447437 -1.84761,-0.708994 -4.961725,2.389304 -3.40577,3.388466 1.15797,0.743588 0.65353,8.110655 -0.61088,8.921712 C 99.713321,74.213233 98.102305,76.75 96.679692,79.5 c -1.422613,2.75 -2.607522,4.359059 -2.633131,3.575686 -0.03408,-1.042373 -0.649917,-0.859117 -2.296561,0.683388 -1.2375,1.159235 -3.4875,2.576539 -5,3.149563 -1.5125,0.573024 -2.801907,1.840499 -2.86535,2.816612 C 83.821208,90.701362 83.664749,91.95 83.536965,92.5 c -0.127785,0.55 -0.300878,1.5625 -0.384651,2.25 -0.08377,0.6875 -0.79699,1.25 -1.584926,1.25 -0.787937,0 -1.733554,1.0125 -2.10137,2.25 -0.367817,1.2375 -1.973141,3.91111 -3.567388,5.94136 -3.399271,4.32892 -3.442134,4.51996 -1.14863,5.11931 1.10103,0.28773 0.752076,0.50035 -0.940983,0.57333 -3.018017,0.1301 -4.40913,1.70566 -3.952476,4.47653 0.194372,1.1794 -0.176266,1.69956 -1.01242,1.42084 -1.67902,-0.55967 -9.82549,8.10361 -9.186364,9.76914 0.263225,0.68595 -0.0021,1.54426 -0.589583,1.90736 C 58.480678,127.82096 58,128.99148 58,130.05902 58,131.12656 57.367129,132 56.59362,132 c -0.914051,0 -1.223291,-0.70014 -0.883369,-2 0.287656,-1.1 0.06867,-2 -0.486631,-2 C 54.01899,128 53,130.38094 53,133.19563 c 0,2.34206 -3.662878,9.36091 -6.288155,12.04944 -1.345214,1.37763 -1.627282,2.68877 -1.138709,5.29309 0.442442,2.35841 0.273755,3.46184 -0.529233,3.46184 -0.714733,0 -0.934338,0.76985 -0.557919,1.95584 0.852561,2.68618 -1.38583,9.71083 -3.094337,9.71083 -0.765406,0 -1.428195,-0.4875 -1.472866,-1.08334 -0.04467,-0.59583 -0.681098,0.26667 -1.414283,1.91667 -0.733185,1.65 -1.098792,4.19547 -0.812459,5.65661 0.419652,2.14145 0.160638,2.62624 -1.335717,2.5 -1.330778,-0.11227 -1.945905,0.62194 -2.172744,2.59339 -0.241438,2.09831 0.114029,2.75754 1.5,2.7818 1.722077,0.0301 1.725527,0.10081 0.06642,1.36025 -0.9625,0.73064 -1.75,2.24218 -1.75,3.35899 0,1.1168 -0.890117,3.99219 -1.978038,6.38976 -1.408248,3.1035 -1.984364,6.56083 -2,12.00221 -0.01683,5.85676 -0.372528,7.77754 -1.521962,8.21862 -0.825,0.31658 -1.5,1.7006 -1.5,3.0756 0,1.92664 -0.383833,2.35271 -1.673609,1.85778 -1.248557,-0.47912 -1.516798,-0.23359 -1.056177,0.96677 0.339588,0.88495 0.164635,1.75994 -0.388783,1.94441 -0.667023,0.22234 -0.648086,1.27736 0.05618,3.12971 1.367549,3.59692 1.369523,8.6641 0.0034,8.6641 -0.582459,0 -0.780902,-0.45 -0.440983,-1 1.125768,-1.82153 -0.543826,-3.09903 -2.063758,-1.5791 -1.753012,1.75301 -1.768779,2.07442 -0.186242,3.79634 5.987156,6.51449 5.012504,10.38544 -4.60194,18.27716 -2.006433,1.64692 -3.64806,3.55942 -3.64806,4.25 0,0.69058 -0.5625,1.26982 -1.25,1.2872 -2.6567837,0.0672 4.491997,4.9684 7.246747,4.9684 3.051307,0 4.882317,1.51547 2.759484,2.28394 -1.006106,0.36421 -1.007347,0.87628 -0.0062,2.57184 1.522568,2.57872 1.594402,3.47511 0.209918,2.61945 -0.67941,-0.4199 -0.805577,0.29153 -0.363831,2.05159 0.606199,2.41529 0.454459,2.624 -1.464844,2.01483 -2.929743,-0.92986 -3.691982,1.47332 -1.693246,5.33845 1.516794,2.93316 5.215823,5.79941 6.20623,4.80901 0.260115,-0.26012 -0.239959,-2.20908 -1.111273,-4.33102 L 21.948745,274.5 l 2.489665,3 c 1.369315,1.65 2.505847,3.7507 2.525627,4.66821 0.01978,0.91752 0.337435,2.45384 0.705902,3.41405 0.436532,1.13758 0.287416,1.50942 -0.428004,1.06726 -0.614277,-0.37964 -1.381101,0.21359 -1.740726,1.34667 -0.582708,1.83595 -1.321931,1.46346 -7.909369,-3.98548 -6.889667,-5.69893 -9.514697,-7.31294 -8.0565291,-4.95358 0.3593397,0.58143 0.7795811,2.20712 0.9338691,3.61265 0.313318,2.85426 4.131933,6.33654 9.78082,8.91937 4.291581,1.96222 4.985502,4.41085 1.25,4.41085 -3.071809,0 -3.20363,1.45236 -0.341249,3.75979 8.120193,6.54585 10.073588,10.26364 6.651933,12.66026 -1.988705,1.39294 -1.986361,1.41556 0.27188,2.62414 2.08304,1.11481 2.13416,1.32417 0.597657,2.44769 C 26.334562,319.20707 26.58381,320 29.468615,320 c 1.513608,0 2.319639,0.48357 2.083523,1.25 -0.211801,0.6875 -0.68142,2.58778 -1.043598,4.22285 -0.646242,2.91748 -0.621345,2.93921 1.336892,1.16703 1.928814,-1.74555 2.031423,-1.7385 3.074983,0.21141 1.470493,2.74765 1.37604,3.039 -0.800677,2.46977 -1.034144,-0.27043 -3.582399,0.38155 -5.662789,1.44885 l -3.782529,1.94056 6.13043,2.37712 c 3.79272,1.47066 5.77471,2.73285 5.197587,3.30997 -0.577122,0.57712 -0.391927,1.34651 0.485656,2.01764 2.346079,1.79417 8.421817,12.656 7.875578,14.07947 C 43.754512,356.08211 46.641976,362 48.02568,362 c 0.535876,0 0.86182,0.3958 0.72432,0.87956 -0.475236,1.672 4.390198,7.28062 5.83494,6.72622 0.982357,-0.37697 1.41506,0.2048 1.41506,1.90255 0,1.50287 0.960368,3.07482 2.491414,4.078 1.370278,0.89784 2.221968,2.06841 1.892645,2.60127 -0.329323,0.53285 -2.012959,-0.55412 -3.741414,-2.41549 -2.828947,-3.0465 -3.379606,-3.26353 -5.516537,-2.17424 l -2.373892,1.21009 4.199746,3.04228 c 2.309861,1.67326 6.164415,3.7926 8.565677,4.70965 4.394634,1.67832 5.017505,2.56592 7.501821,10.69011 0.757231,2.47629 0.59905,2.75 -1.589266,2.75 C 66.093587,396 65,395.55 65,395 c 0,-1.68499 -2.744202,-1.10898 -3.447437,0.72362 -0.708994,1.84761 2.389304,4.96172 3.388466,3.40577 0.743588,-1.15797 8.110655,-0.65353 8.921712,0.61088 0.350492,0.54641 2.887259,2.15743 5.637259,3.58004 2.75,1.42261 4.359059,2.60752 3.575686,2.63313 -1.042373,0.0341 -0.859117,0.64992 0.683388,2.29656 1.159235,1.2375 2.576539,3.4875 3.149563,5 0.573024,1.5125 1.840499,2.80191 2.816612,2.86535 0.976113,0.0634 2.224751,0.2199 2.774751,0.34769 0.55,0.12778 1.5625,0.30087 2.25,0.38465 0.6875,0.0838 1.25,0.79699 1.25,1.58492 0,0.78794 1.0125,1.73356 2.25,2.10137 1.2375,0.36782 3.91111,1.97314 5.94136,3.56739 4.32892,3.39927 4.51996,3.44213 5.11931,1.14863 0.28773,-1.10103 0.50035,-0.75208 0.57333,0.94098 0.1301,3.01802 1.70566,4.40913 4.47653,3.95248 1.1794,-0.19437 1.69956,0.17626 1.42084,1.01242 -0.55967,1.67902 8.10361,9.82549 9.76914,9.18636 0.68595,-0.26322 1.54426,0.002 1.90736,0.58959 0.36309,0.58749 1.53361,1.06817 2.60115,1.06817 1.06754,0 1.94098,0.63287 1.94098,1.40638 0,0.91405 -0.70014,1.22329 -2,0.88337 -1.1,-0.28766 -2,-0.0687 -2,0.48663 0,1.20463 2.38094,2.22362 5.19563,2.22362 2.32673,0 9.35409,3.65664 12.01129,6.25 2.07121,2.02145 3.17022,2.15371 5.87366,0.70688 1.51491,-0.81076 2.08355,-0.69274 2.55268,0.5298 0.37898,0.9876 1.28733,1.35591 2.44101,0.98975 2.59349,-0.82315 9.5924,1.462 9.5924,3.13192 0,0.76541 -0.4875,1.4282 -1.08334,1.47287 -0.59583,0.0447 0.26667,0.6811 1.91667,1.41428 1.65,0.73319 4.27172,1.08355 5.82603,0.77858 2.36782,-0.46459 2.77317,-0.24801 2.5,1.33571 -0.24485,1.41956 0.35871,1.969 2.42397,2.20663 2.09831,0.24144 2.75754,-0.11403 2.7818,-1.5 0.0301,-1.72207 0.10081,-1.72552 1.36025,-0.0664 0.73064,0.9625 2.24218,1.75 3.35899,1.75 1.1168,0 3.99219,0.89012 6.38976,1.97804 3.1035,1.40825 6.56083,1.98436 12.00221,2 5.85676,0.0168 7.77754,0.37253 8.21862,1.52196 0.31658,0.825 1.7006,1.5 3.0756,1.5 1.92664,0 2.35271,0.38383 1.85778,1.67361 -0.47912,1.24856 -0.23359,1.5168 0.96677,1.05618 0.88495,-0.33959 1.75994,-0.16464 1.94441,0.38878 0.22234,0.66702 1.27736,0.64808 3.12971,-0.0562 3.59692,-1.36755 8.6641,-1.36952 8.6641,-0.003 0,0.58246 -0.45,0.7809 -1,0.44098 -1.74045,-1.07566 -3.08731,0.48389 -1.74004,2.01483 1.59637,1.81401 1.44719,1.82928 5.28171,-0.54058 z m -109.75142,-41.95 c -0.35807,-2.43968 -0.18853,-2.76976 0.9411,-1.83225 0.75781,0.62893 1.81911,1.96802 2.35843,2.97576 0.79254,1.48087 0.61206,1.83224 -0.9411,1.83224 -1.36721,0 -2.0477,-0.85861 -2.35843,-2.97575 z M 239.15789,365 c 0,-1.375 0.22698,-1.9375 0.50439,-1.25 0.27741,0.6875 0.27741,1.8125 0,2.5 -0.27741,0.6875 -0.50439,0.125 -0.50439,-1.25 z M 235,346 c 0,-1.1 0.40787,-2 0.90638,-2 0.49851,0 0.67103,0.9 0.38337,2 -0.28766,1.1 -0.69553,2 -0.90638,2 C 235.17252,348 235,347.1 235,346 Z M 33,333.62244 c 0,-0.20765 0.622448,-0.89414 1.383217,-1.52552 1.06665,-0.88524 1.517193,-0.79883 1.968615,0.37756 C 36.754369,333.52347 36.322291,334 34.968615,334 33.885877,334 33,333.8301 33,333.62244 Z M 236.5,308 c 0.33992,-0.55 0.81648,-1 1.05902,-1 0.24254,0 0.44098,0.45 0.44098,1 0,0.55 -0.47656,1 -1.05902,1 -0.58246,0 -0.7809,-0.45 -0.44098,-1 z M 26.67589,298.59777 c -0.295948,-0.77123 -0.272998,-1.66733 0.051,-1.99133 0.705221,-0.70522 3.273108,1.26869 3.273108,2.516 0,1.43061 -2.739741,0.99817 -3.32411,-0.52467 z M 61,126.14868 c 0,-1.36721 0.858607,-2.0477 2.975754,-2.35843 2.439677,-0.35807 2.769753,-0.18853 1.832244,0.9411 -0.62893,0.75781 -1.968019,1.81911 -2.975754,2.35843 C 61.351374,127.88232 61,127.70184 61,126.14868 Z M 166,34.84617 c 0,-1.745337 0.248,-1.885237 1.5,-0.84617 0.825,0.684689 1.5,1.366644 1.5,1.515456 0,0.148811 -0.675,0.529588 -1.5,0.84617 -1.03862,0.398556 -1.5,-0.06758 -1.5,-1.515456 z m 34,-6.155848 c 0,-0.811989 0.70769,-1.747911 1.57265,-2.079826 1.09668,-0.420837 1.475,-0.09998 1.25,1.060145 C 202.41213,29.787327 200,30.658709 200,28.690322 Z m 46.44798,391.410268 c 1.28436,-2.48368 1.29805,-3.06648 0.0954,-4.06457 -1.10807,-0.91962 -1.62935,-0.74393 -2.47366,0.83367 -1.3365,2.49726 -1.39304,6.13031 -0.0954,6.13031 0.53588,0 1.64902,-1.30474 2.47366,-2.89941 z m -0.4132,-21.03561 c -0.62,-1.15847 -0.87412,-2.51592 -0.56471,-3.01655 0.3094,-0.50063 0.10521,-1.19289 -0.45376,-1.53835 -0.55897,-0.34546 -1.01631,0.0523 -1.01631,0.88385 0,1.86863 2.16999,6.76942 2.74346,6.19594 0.23022,-0.23022 -0.0887,-1.36642 -0.70868,-2.52489 z m 8.46377,-298.75722 C 253.60433,98.763492 253.1844,98.4 253.56538,99.5 c 0.38097,1.1 0.82211,2.9 0.98032,4 0.42327,2.94309 0.63641,3.18922 1.1325,1.30776 0.24541,-0.93073 -0.28543,-2.95573 -1.17965,-4.5 z M 257,79.30887 c 0,-3.160305 -1.64296,-2.899983 -3.42308,0.542374 -1.13668,2.198107 -1.20289,3.122783 -0.28904,4.036631 C 254.79941,85.399414 257,82.684932 257,79.30887 Z"
       id="path1197" />
  </g>
</svg>
