<?xml version="1.0" encoding="UTF-8" standalone="no"?>
<!-- Created with Inkscape (http://www.inkscape.org/) -->

<svg
   version="1.1"
   id="svg2"
   width="500"
   height="500"
   viewBox="0 0 500 500"
   sodipodi:docname="Progress Clock 5-1.svg"
   inkscape:version="1.2 (dc2aedaf03, 2022-05-15)"
   xmlns:inkscape="http://www.inkscape.org/namespaces/inkscape"
   xmlns:sodipodi="http://sodipodi.sourceforge.net/DTD/sodipodi-0.dtd"
   xmlns="http://www.w3.org/2000/svg"
   xmlns:svg="http://www.w3.org/2000/svg">
  <defs
     id="defs6" />
  <sodipodi:namedview
     id="namedview4"
     pagecolor="#ffffff"
     bordercolor="#000000"
     borderopacity="0.25"
     inkscape:showpageshadow="2"
     inkscape:pageopacity="0.0"
     inkscape:pagecheckerboard="0"
     inkscape:deskcolor="#d1d1d1"
     showgrid="false"
     inkscape:zoom="8"
     inkscape:cx="257.8125"
     inkscape:cy="266.875"
     inkscape:window-width="1920"
     inkscape:window-height="1017"
     inkscape:window-x="-8"
     inkscape:window-y="-8"
     inkscape:window-maximized="1"
     inkscape:current-layer="g8" />
  <g
     inkscape:groupmode="layer"
     inkscape:label="Image"
     id="g8">
    <circle
       style="fill:#ad1d1c;fill-opacity:1;stroke-width:0.950146"
       id="path1028"
       cx="249.375"
       cy="253.75"
       inkscape:label="path1028"
       r="12" />
    <path
       style="fill:#ad1d1c;fill-opacity:1"
       id="path244"
       sodipodi:type="arc"
       sodipodi:cx="248"
       sodipodi:cy="248.5"
       sodipodi:rx="242"
       sodipodi:ry="242"
       sodipodi:start="4.712389"
       sodipodi:end="5.969026"
       sodipodi:arc-type="slice"
       d="M 248,6.5 A 242,242 0 0 1 478.15567,173.71788 L 248,248.5 Z" />
    <path
       style="display:inline;fill:#000000;stroke-width:1.00495"
       d="m 237.88379,498.8284 c -3.10514,-1.00905 -5.53248,-1.20317 -7.68934,-0.61493 -3.41047,0.93015 -8.13885,0.38752 -9.02436,-1.03566 -0.31076,-0.49941 -1.37522,-0.44623 -2.44441,0.12207 -2.02651,1.07725 -11.7734,-0.43907 -13.5625,-2.10994 -0.52686,-0.49206 -3.10352,-0.89463 -5.72592,-0.89463 -2.6494,0 -5.37059,-0.59853 -6.12413,-1.34702 -0.74587,-0.74088 -4.36287,-1.58674 -8.03778,-1.87976 -3.6749,-0.29296 -8.15806,-1.26433 -9.96255,-2.15849 -1.80449,-0.89415 -3.89667,-1.62574 -4.64928,-1.62574 -0.75261,0 -5.63641,-1.62267 -10.85287,-3.60595 -7.7526,-2.94747 -9.59728,-4.05227 -10.10215,-6.05038 -0.33973,-1.34445 -1.06315,-2.171 -1.60761,-1.83676 -0.54447,0.33421 -2.38108,-0.77409 -4.08136,-2.46296 -3.31241,-3.2902 -4.55664,-3.75096 -5.17258,-1.91551 -0.43366,1.29225 -4.60936,-0.96843 -8.86433,-4.79907 -1.39136,-1.25259 -3.43324,-2.25439 -4.53753,-2.22622 -3.4851,0.0889 -17.1662,-7.44889 -16.86273,-9.29081 0.17053,-1.03513 -0.66596,-1.87304 -2.26877,-2.27264 -1.3964,-0.34801 -2.5389,-1.13015 -2.5389,-1.73798 0,-0.80557 -0.36324,-0.8057 -1.34011,-4e-4 -1.03186,0.85061 -2.945275,-0.19907 -8.318793,-4.56377 -9.027115,-7.33236 -24.157819,-22.8514 -26.660199,-27.34446 -2.866021,-5.14599 -4.145458,-6.51163 -7.911598,-8.44467 -2.495095,-1.28067 -3.095469,-2.03701 -2.268763,-2.85818 1.710133,-1.69867 1.370449,-2.44061 -1.437886,-3.14074 -1.409147,-0.35131 -2.275496,-1.09932 -1.925218,-1.6623 0.630892,-1.01394 -2.040929,-3.75844 -7.03194,-7.22316 -1.422331,-0.98737 -3.507476,-3.80429 -4.633658,-6.25984 -1.126183,-2.45554 -2.603456,-4.4657 -3.282828,-4.46702 -1.49946,-0.003 -9.23456,-13.38743 -9.469894,-16.38633 -0.444578,-5.66528 -1.236719,-7.76339 -4.194357,-11.10933 -1.760124,-1.99122 -3.200225,-4.58978 -3.200225,-5.77454 0,-1.18477 -0.919881,-3.12673 -2.04418,-4.31547 -1.1243,-1.18874 -2.226958,-3.10403 -2.45035,-4.25625 -0.223391,-1.15218 -0.868348,-2.9527 -1.433236,-4.00113 -0.564888,-1.0484 -0.791519,-2.8009 -0.503625,-3.89443 0.287893,-1.09353 -0.450748,-3.62829 -1.641427,-5.63279 -1.190678,-2.00452 -2.027229,-4.68786 -1.858999,-5.96302 0.168229,-1.27513 -0.747111,-3.7873 -2.034089,-5.58255 -1.2869787,-1.79529 -2.4355258,-3.9109 -2.552328,-4.70139 -0.1168022,-0.7905 -0.5280029,-1.75077 -0.9137796,-2.13395 -0.3857763,-0.38319 -0.7014117,-2.87513 -0.7014117,-5.53765 0,-3.47033 -0.3977312,-4.84094 -1.4047682,-4.84094 -1.5152779,0 -3.97796997,-10.97227 -3.0195248,-13.45317 0.2906314,-0.7523 0.043734,-1.66535 -0.54866032,-2.02902 -1.56030782,-0.95785 -1.34578037,-1.93668 1.10185002,-5.02747 2.5319764,-3.19728 3.6047679,-13.54384 1.4043054,-13.54384 -1.3396003,0 -1.3615613,-3.6628 -0.061619,-10.2771 0.4246605,-2.16074 0.3178127,-4.29602 -0.250588,-5.00787 -0.5450036,-0.68255 -1.3011403,-5.18965 -1.6803058,-10.0158 -0.54465176,-6.93252 -0.4029439,-8.88399 0.6749529,-9.29485 1.8197455,-0.69361 1.8395729,-7.47047 0.021856,-7.47047 -0.738368,0 -1.57645352,-0.60561 -1.86241193,-1.34581 -0.68666311,-1.7774 1.29437513,-13.86369 2.39358003,-14.6032 1.0380341,-0.69835 2.6114307,-4.27302 2.367884,-5.37969 -0.4240299,-1.9268 6.350134,-21.5816 8.560978,-24.83913 1.389786,-2.04775 2.708209,-5.81743 3.05664,-8.73964 0.44695,-3.74847 1.108827,-5.2951 2.446493,-5.71681 1.48593,-0.46845 1.655839,-1.04299 0.89572,-3.02884 -0.709871,-1.85457 -0.604812,-2.45073 0.431887,-2.45073 1.580471,0 2.579975,-3.03511 2.599726,-7.89437 0.01305,-3.20852 3.206518,-9.79413 5.506408,-11.35536 0.728577,-0.49458 0.6662,-1.35428 -0.19886,-2.74074 -1.726936,-2.76781 -1.581002,-4.55701 0.50417,-6.18135 1.604551,-1.24992 1.637246,-1.21344 0.36048,0.40236 -0.772262,0.97733 -1.112576,2.06654 -0.756254,2.42047 0.804533,0.79913 0.657905,0.98919 4.590524,-5.95018 1.795042,-3.16748 3.878107,-5.75905 4.629033,-5.75905 0.750929,0 2.257627,-1.12677 3.348221,-2.50393 1.090595,-1.37717 2.484784,-2.50394 3.098201,-2.50394 0.613417,0 1.115305,-0.9238 1.115305,-2.05288 0,-2.92845 2.697861,-7.71846 5.052132,-8.96998 1.103435,-0.58657 2.006241,-1.98237 2.006241,-3.10177 0,-2.622096 6.039243,-9.871519 8.243248,-9.895078 0.935096,-0.01002 2.739538,-1.918142 4.042422,-4.274741 1.294355,-2.341178 3.357486,-4.696141 4.584729,-5.233247 1.22724,-0.537106 2.748187,-2.215938 3.379871,-3.730733 1.005311,-2.41075 3.145646,-5.469092 5.689043,-8.129106 0.429921,-0.449634 2.27883,-1.696024 4.108685,-2.769754 1.829858,-1.073731 3.045156,-2.405232 2.700666,-2.958889 -0.344489,-0.553658 0.523987,-2.462225 1.929949,-4.24126 5.042442,-6.380468 5.789747,-7.006856 6.965792,-5.838702 1.824747,1.812504 2.799401,1.253955 2.16854,-1.24273 -0.587978,-2.326965 -0.553581,-2.336565 4.608534,-1.286211 4.55241,0.926292 5.32166,0.84396 6.16916,-0.66026 0.53252,-0.945181 1.96661,-1.72541 3.18688,-1.733845 3.04555,-0.02097 4.91443,-1.363449 4.27331,-3.06946 -0.52133,-1.387252 2.10293,-2.904689 10.2975,-5.954361 1.80241,-0.670782 3.2771,-1.773612 3.2771,-2.450738 0,-0.677126 2.35567,-2.76331 5.23483,-4.635964 8.83319,-5.745265 9.84763,-6.189179 11.33729,-4.961161 1.00879,0.831601 1.48919,0.726895 1.93275,-0.421246 0.32466,-0.840358 1.28515,-1.527924 2.13444,-1.527924 1.00856,0 1.54951,-0.955341 1.55959,-2.754327 0.0208,-3.679865 1.18756,-5.3752 2.95361,-4.291047 0.87242,0.535568 2.26133,0.303055 3.67131,-0.614601 1.24739,-0.811843 4.68771,-1.56133 7.64513,-1.665526 2.95741,-0.104198 5.62302,-0.514996 5.92354,-0.912889 1.0315,-1.365679 23.99906,-5.768262 26.99116,-5.173857 1.73194,0.344063 3.26267,0.123584 3.66832,-0.528365 0.38288,-0.615347 1.09126,-0.876254 1.57418,-0.579792 0.48292,0.296459 2.34743,-0.34857 4.14335,-1.4334024 3.0188,-1.8235295 3.35766,-1.8469378 4.48902,-0.3100965 1.0725,1.4568829 1.43973,1.4842709 2.97143,0.2216075 0.96122,-0.7923946 3.02098,-1.3080522 4.57724,-1.1459059 1.55625,0.1621454 4.08863,-0.5246423 5.62752,-1.5261968 1.95085,-1.2696753 4.79576,-1.8389146 9.39653,-1.8801516 3.97027,-0.035587 6.51917,-0.4716801 6.39921,-1.0948495 -0.22646,-1.1766205 16.9823,-0.6638266 17.8355,0.5314688 1.3075,1.831748 8.75195,3.0562878 12.43669,2.0457111 2.90524,-0.7967921 4.43447,-0.7084052 6.63842,0.3836878 1.92806,0.9553959 3.41658,1.1115785 4.55626,0.4780654 2.08073,-1.1566227 9.36405,-0.088257 12.39107,1.8176021 1.22831,0.7733641 4.25872,1.406114 6.73427,1.406114 2.67399,0 5.12035,0.615226 6.02689,1.51568 1.08626,1.078976 3.42528,1.474772 8.11804,1.373696 4.92742,-0.106129 7.29762,0.3282 9.38576,1.719922 1.53649,1.024048 4.38177,1.906333 6.32282,1.960632 11.90215,0.33295 12.27934,0.404886 12.81625,2.444232 0.53861,2.045888 2.30884,2.813806 2.30884,1.001573 0,-2.761725 2.05052,-0.415721 3.54623,4.057283 0.9704,2.902018 2.18719,4.876031 2.85398,4.630042 0.63929,-0.235849 2.65682,0.975445 4.48342,2.691761 2.56701,2.412052 3.51123,2.81496 4.15858,1.774544 0.94639,-1.520983 4.39252,0.206356 9.34983,4.686435 1.49199,1.348384 3.33161,2.215715 4.08803,1.9274 0.75641,-0.288328 3.16571,0.552245 5.35396,1.867912 2.18829,1.315667 4.58927,2.394434 5.33553,2.397257 2.43716,0.0091 7.15436,4.002119 6.55644,5.549769 -0.34583,0.895119 0.0366,1.466376 0.98187,1.466376 0.85158,0 2.21633,0.663498 3.03274,1.474438 1.307,1.298202 1.63165,1.298202 2.71634,0 1.32997,-1.591754 6.52878,-2.090049 5.55992,-0.532906 -0.32223,0.517842 -0.009,1.406447 0.69673,1.97468 4.67539,3.766142 6.82844,5.984502 6.82844,7.035522 0,1.257611 2.91309,4.571082 4.01874,4.571082 0.83919,0 13.03215,13.758941 15.80366,17.83337 1.19709,1.759821 3.10931,4.213767 4.24943,5.453214 1.14011,1.239448 1.74884,2.27346 1.35272,2.297807 -0.39615,0.02441 1.01398,0.95317 3.1336,2.064055 3.25772,1.70737 3.65769,2.254564 2.5857,3.53758 -1.02794,1.230289 -0.99394,1.690137 0.17961,2.427683 0.79621,0.500441 2.04163,0.916811 2.7676,0.925241 0.72594,0.008 1.04313,0.4602 0.7048,1.00394 -0.74333,1.19471 1.70721,3.74339 6.79132,7.06328 2.07592,1.35556 3.81067,3.1407 3.85498,3.967 0.1503,2.80075 3.63635,7.51861 5.33313,7.2175 1.08151,-0.19193 1.65844,0.39727 1.65844,1.69365 0,1.09337 0.45709,2.26854 1.01577,2.61151 1.61404,0.99084 5.22578,8.72053 5.61374,12.01432 0.75534,6.41253 1.14866,7.4217 4.26758,10.95012 1.7708,2.00332 3.21966,4.61176 3.21966,5.79654 0,1.18477 0.91988,3.12673 2.04418,4.31546 1.1243,1.18873 2.23294,3.13498 2.46369,4.325 0.23066,1.19003 0.76864,2.72481 1.19535,3.41064 0.42675,0.68583 0.79278,2.825 0.81342,4.75371 0.0284,2.6306 0.59139,3.74821 2.2543,4.47318 2.25247,0.98201 4.18246,7.36831 2.86614,9.48392 -0.34529,0.55491 0.16575,2.48695 1.13577,4.29344 0.96993,1.80649 1.78255,3.585 1.80581,3.95225 0.022,0.36724 0.38257,1.00574 0.79851,1.41889 0.41594,0.41315 0.75625,2.9296 0.75625,5.59212 0,3.26233 0.42035,4.84094 1.28904,4.84094 0.70895,0 2.11477,2.76297 3.12402,6.13994 1.52206,5.09278 1.60316,6.3015 0.47556,7.08726 -1.0592,0.73811 -1.08107,1.05953 -0.099,1.45533 1.91661,0.77246 1.5098,3.45382 -0.91257,6.01501 -2.68253,2.83627 -3.65583,13.35596 -1.23569,13.35596 0.94995,0 1.27312,0.75697 0.96211,2.25354 -1.28106,6.16422 -1.63061,12.01728 -0.78137,13.08299 0.52131,0.65418 1.25806,5.1381 1.63723,9.96424 0.54466,6.93252 0.40293,8.88399 -0.67496,9.29485 -1.74619,0.66558 -1.84913,7.47047 -0.11312,7.47047 0.68826,0 1.54295,0.46865 1.89937,1.04147 0.76775,1.23395 -1.41883,14.98017 -2.3847,14.99152 -1.21785,0.0144 -3.29033,5.46629 -2.21346,5.82284 0.6287,0.20818 0.49154,1.35284 -0.36092,3.01162 -0.75632,1.4717 -2.55794,6.55032 -4.00358,11.28582 -1.44567,4.7355 -3.61392,9.85442 -4.81838,11.37534 -1.30403,1.64671 -2.38059,4.73632 -2.66123,7.63769 -0.34661,3.58291 -0.95981,5.0263 -2.3171,5.45422 -1.49807,0.47228 -1.66908,1.04352 -0.90772,3.03261 0.70987,1.85457 0.60481,2.45073 -0.43189,2.45073 -1.69089,0 -2.85265,3.43546 -2.62735,7.76923 0.15503,2.98313 -3.03715,9.81574 -5.3136,11.37312 -0.49301,0.33728 -0.76876,1.46405 -0.61279,2.50394 0.43201,2.87999 -7.18589,16.07716 -9.04451,15.66864 -0.61077,-0.13427 -1.85191,0.87985 -2.75806,2.25354 -0.90615,1.37369 -2.218,2.49761 -2.91521,2.49761 -0.69723,0 -1.5513,1.76171 -1.89791,3.91494 -0.4241,2.63426 -1.62072,4.74276 -3.65807,6.44556 -1.6653,1.39184 -3.02782,3.28898 -3.02782,4.21581 0,2.01589 -5.64087,8.67087 -8.19108,9.66368 -0.99319,0.38664 -2.99858,2.57984 -4.45642,4.87372 -1.45784,2.29389 -3.46815,4.38304 -4.46729,4.64258 -0.99917,0.25947 -2.56991,2.12274 -3.49055,4.14044 -0.92068,2.01773 -3.23104,5.0207 -5.13422,6.6733 -1.90314,1.65259 -5.4248,4.80755 -7.82584,7.01101 -9.58385,8.79513 -14.64688,11.98474 -18.50044,11.65497 -2.42446,-0.20752 -3.39445,0.0516 -2.93802,0.78536 0.70386,1.13121 0.0526,1.47316 -4.84588,2.54506 -2.12124,0.46413 -2.75545,1.09757 -2.41053,2.40762 0.35698,1.35598 -0.75446,2.30713 -4.68396,4.00858 -7.10012,3.07427 -8.22682,3.73825 -7.85134,4.6268 0.17898,0.42392 -1.63092,1.87467 -4.02236,3.22391 -2.3914,1.34922 -4.57984,2.80591 -4.86322,3.23702 -0.28328,0.43115 -2.02247,1.55116 -3.86471,2.48892 -2.46233,1.25343 -3.69975,1.41631 -4.67185,0.61499 -0.98304,-0.8104 -1.47375,-0.69803 -1.9126,0.43785 -0.32466,0.84035 -1.28513,1.52793 -2.13444,1.52793 -0.84927,0 -1.54414,0.60485 -1.54414,1.34411 0,1.21025 -4.41694,3.16566 -18.1501,8.03519 -8.85385,3.1394 -20.7541,5.86684 -26.721,6.12421 -3.32752,0.14366 -6.27691,0.37303 -6.55421,0.50993 -0.27729,0.13709 -0.83739,0.19781 -1.24468,0.13552 -0.40728,-0.0623 -2.1897,0.76198 -3.96093,1.83191 -2.97903,1.79952 -3.31214,1.82074 -4.44415,0.28295 -1.0725,-1.45689 -1.43973,-1.48427 -2.97143,-0.2216 -0.96122,0.7924 -3.02098,1.30805 -4.57724,1.14592 -1.55625,-0.16213 -3.91735,0.41315 -5.24687,1.27845 -3.5828,2.33179 -31.75321,3.14097 -38.05504,1.09309 z m 56.45437,-15.78035 c 0.009,0.89272 1.27232,0.634 4.23455,-0.86708 2.39733,-1.21482 6.83292,-2.31689 10.26342,-2.55007 3.32281,-0.22598 6.56941,-0.84583 7.21465,-1.37776 0.64524,-0.5319 1.4296,-0.71243 1.74298,-0.40116 1.01309,1.0063 6.8072,-2.58709 6.8072,-4.22169 0,-1.03253 0.555,-1.37228 1.59444,-0.97607 0.87694,0.33425 2.56603,-0.0682 3.75354,-0.89444 1.18751,-0.82617 2.62534,-1.49212 3.19517,-1.47985 1.45929,0.0313 -3.72896,3.93459 -5.26605,3.96172 -1.38952,0.025 -1.51481,1.52371 -0.36959,4.42201 0.67461,1.70731 1.12862,1.50818 4.56721,-2.00314 2.1,-2.14444 4.45466,-5.11817 5.23259,-6.60836 0.9808,-1.87873 2.41841,-2.85038 4.68906,-3.16919 6.68967,-0.93935 7.81211,-0.66592 7.81211,1.90311 0,1.73097 -0.42628,2.24778 -1.51251,1.83376 -0.92588,-0.3529 -1.51251,1.9e-4 -1.51251,0.91037 0,0.81778 0.68063,2.04796 1.51251,2.73373 1.20859,0.99631 1.825,0.98924 3.06774,-0.0354 0.89689,-0.73935 1.17916,-1.65566 0.66683,-2.16456 -1.0955,-1.08814 0.88835,-7.81099 2.31011,-7.82836 0.55754,-0.006 2.03051,-1.57172 3.27329,-3.47756 1.38589,-2.12533 2.80854,-3.25595 3.67927,-2.92406 0.78083,0.29766 1.71925,0.0598 2.08537,-0.52874 0.36612,-0.58839 1.90938,-1.06983 3.42952,-1.06983 3.20075,0 5.18384,-1.62127 5.18384,-4.23804 0,-1.00886 0.79406,-2.11344 1.76459,-2.45463 0.97053,-0.34123 3.04667,-1.9696 4.61362,-3.61866 3.08741,-3.24913 2.82584,-3.84056 -2.59694,-5.87241 -1.52511,-0.57143 -2.77293,-1.49382 -2.77293,-2.04972 0,-0.5559 0.68063,-0.75134 1.51251,-0.43425 0.83187,0.3171 1.5125,0.39506 1.5125,0.1734 0,-0.94426 -12.70702,-12.54996 -13.74319,-12.55206 -1.55514,-0.003 -8.44027,-8.48076 -8.44027,-10.39245 0,-0.84687 -1.13438,-3.20012 -2.52084,-5.22947 -1.38647,-2.02938 -2.52085,-4.49556 -2.52085,-5.48045 0,-0.98489 -1.05721,-2.61671 -2.34937,-3.62633 -1.29215,-1.00958 -2.1753,-2.35432 -1.96257,-2.98828 0.21269,-0.634 -0.63059,-2.09423 -1.8741,-3.24495 -1.24353,-1.15074 -1.94502,-2.09225 -1.55886,-2.09225 0.93458,0 -3.62589,-5.21917 -10.15312,-11.61963 -4.74591,-4.65375 -5.93628,-6.84879 -5.34722,-9.86037 0.28643,-1.46524 -3.35008,-8.5243 -4.48409,-8.70402 -0.55458,-0.088 -1.87576,-0.20563 -2.93597,-0.26197 -1.20811,-0.0639 -2.28933,-1.22364 -2.8967,-3.10682 -0.53305,-1.65259 -2.27468,-4.37828 -3.87035,-6.05714 -3.5833,-3.76998 -3.74053,-5.05181 -0.34891,-2.84444 3.30572,2.15145 4.50248,0.96611 1.67051,-1.65457 -1.20153,-1.1118 -2.88174,-3.36059 -3.73378,-4.99719 -0.92433,-1.77545 -2.35215,-2.97567 -3.53996,-2.97567 -1.09493,0 -1.99078,-0.57569 -1.99078,-1.27933 0,-1.3874 -5.68631,-6.73326 -7.16207,-6.73326 -0.49755,0 -0.90465,-0.94361 -0.90465,-2.09692 0,-1.2546 -0.8101,-2.30735 -2.01667,-2.62074 -1.10918,-0.28827 -2.01668,-1.33532 -2.01668,-2.3271 0,-0.99181 -1.92845,-3.41649 -4.28544,-5.38821 -3.24119,-2.71139 -3.95566,-3.79719 -2.93208,-4.45594 1.13149,-0.72818 1.13184,-1.2233 0.002,-3.02021 -0.74321,-1.18207 -1.91941,-1.93268 -2.61378,-1.66802 -0.80877,0.3083 -1.26244,-0.44167 -1.26244,-2.08706 0,-2.56148 -3.16237,-7.90089 -5.91498,-9.98698 -0.91863,-0.69618 -1.1388,-1.61542 -0.59972,-2.50393 0.71035,-1.1708 0.58341,-1.18796 -0.76451,-0.10329 -1.10564,0.88967 -1.82597,0.96363 -2.27992,0.23406 -0.36499,-0.58661 -1.13462,-0.77741 -1.7103,-0.424 -0.66591,0.40878 -0.80366,-0.11806 -0.37863,-1.44819 0.36742,-1.14991 0.12629,-3.12186 -0.53587,-4.38212 -2.00333,-3.81281 -10.38442,-16.13488 -12.2683,-18.03713 -0.97052,-0.97998 -1.76459,-2.2325 -1.76459,-2.78336 0,-0.55087 -1.72426,-1.00157 -3.83169,-1.00157 -4.43897,0 -6.782,1.66398 -5.12892,3.64247 0.81199,0.97183 -0.17517,2.43005 -4.0375,5.96398 -2.81176,2.57269 -7.92323,8.7877 -11.35883,13.81114 -3.43561,5.02346 -8.0955,11.35886 -10.35533,14.0787 -2.25983,2.71983 -4.1655,5.3114 -4.23483,5.75904 -0.0693,0.44764 -0.18276,1.66646 -0.25208,2.70848 -0.0759,1.14116 -1.15125,2.15016 -2.70417,2.5373 -1.92837,0.48072 -2.42998,1.10642 -1.99026,2.48255 0.53217,1.66549 -4.35088,8.07801 -13.42057,17.62413 -1.04673,1.10173 -2.20963,2.97724 -2.5842,4.16776 -0.88118,2.80078 -6.89602,7.35033 -9.71762,7.35033 -1.54537,0 -2.01864,0.44833 -1.60459,1.52005 0.32298,0.83603 -0.1867,3.20225 -1.13259,5.25826 -2.00134,4.35011 -9.70048,14.841 -13.05744,17.79214 -2.34837,2.06446 -3.15709,5.47676 -1.298,5.47676 1.87145,0 -1.36553,3.87606 -3.72905,4.4653 -1.33295,0.3323 -2.55948,1.60467 -2.91921,3.02835 -0.34122,1.3504 -1.1422,2.35764 -1.77995,2.2383 -0.63776,-0.11925 -1.02622,0.57174 -0.86326,1.53575 0.16653,0.98524 -0.33132,1.75276 -1.13696,1.75276 -2.09847,0 -4.1649,2.68284 -2.49286,3.23642 1.60329,0.53087 0.9853,1.42484 -9.64474,13.95217 -10.11438,11.9196 -12.00776,13.97583 -14.80456,16.07786 l -2.28436,1.71691 2.93352,1.16802 2.93353,1.16806 -3.2643,0.89628 c -2.3952,0.65769 -3.42436,1.6229 -3.86548,3.62532 -0.33066,1.50092 -0.75475,3.23753 -0.94242,3.85906 -0.18768,0.62154 -3.06596,2.4081 -6.39622,3.97009 -3.33025,1.56201 -5.84861,3.17173 -5.59636,3.57715 0.25227,0.40542 -0.51927,1.25697 -1.71451,1.89235 -1.66923,0.88736 -2.35108,0.86927 -2.94052,-0.0779 -1.04228,-1.67516 -3.00952,-0.3108 -3.00952,2.08715 0,1.06922 0.18976,1.94403 0.4217,1.94403 0.23195,0 1.13945,0.27355 2.01668,0.60795 1.01685,0.38758 1.59498,0.0642 1.59498,-0.89202 0,-1.63125 7.29748,-3.0753 7.89865,-1.56302 0.18488,0.46504 2.38874,0.84551 4.8975,0.84551 3.64029,0 4.44417,0.30329 3.98097,1.50236 -0.35017,0.9064 -0.005,1.50236 0.87028,1.50236 0.79786,0 2.46004,1.3561 3.69374,3.01355 1.92033,2.57996 2.70597,2.92729 5.46056,2.41398 1.88248,-0.35077 3.49933,-0.14679 3.89668,0.49196 0.37353,0.60035 1.67332,1.09431 2.88841,1.09769 1.21509,0.003 3.50894,0.67948 5.09744,1.50237 3.73656,1.93569 4.65665,1.88602 4.75396,-0.25666 0.0485,-1.06739 0.48896,-0.63597 1.1265,1.1033 0.90071,2.4572 1.44658,2.77664 3.90899,2.28747 2.23974,-0.44495 2.73874,-0.24915 2.29481,0.89985 -0.3534,0.91478 0.0437,1.46843 1.05309,1.46843 0.89122,0 1.62039,0.39816 1.62039,0.88476 0,1.42014 4.7295,2.79984 10.33548,3.01505 2.82451,0.1083 4.02015,2.10963 1.26042,2.10963 -0.83188,0 -1.51251,0.40251 -1.51251,0.89441 0,1.41519 3.04203,2.20039 4.7806,1.23397 1.78271,-0.99097 7.43748,0.18184 11.43905,2.37244 2.28858,1.25288 2.8871,1.23241 4.89934,-0.16745 1.91624,-1.33319 2.43281,-1.36896 3.1489,-0.21815 0.68221,1.09644 1.1115,1.12354 2.10861,0.13302 0.68859,-0.68389 2.19466,-1.24352 3.34681,-1.24352 2.62582,0 6.80734,2.82566 6.03009,4.07481 -0.78423,1.26042 3.2271,1.1868 5.6548,-0.1036 1.64114,-0.8724 1.95038,-0.70254 1.95038,1.07124 0,1.61338 0.53239,2.03282 2.26877,1.7875 1.43659,-0.20282 2.2174,-0.96326 2.12871,-2.07279 -0.15257,-1.90897 0.70372,-2.24981 2.20715,-0.8786 1.32556,1.209 12.55382,2.35126 12.55382,1.2771 0,-0.47928 1.13438,-0.65603 2.52085,-0.39277 2.70191,0.51303 3.27583,-0.60745 1.31084,-2.55927 -0.87158,-0.86574 -0.88822,-1.20189 -0.0595,-1.20189 0.63278,0 1.43094,0.45071 1.77369,1.00157 0.34276,0.55087 1.45537,1.00158 2.47248,1.00158 1.01711,0 2.1032,0.65725 2.41355,1.46057 0.31035,0.80333 3.19484,2.21066 6.41,3.12739 7.57164,2.15892 7.4479,2.05845 6.28317,5.10135 -0.54892,1.43407 -0.85741,2.74707 -0.68555,2.91778 0.17186,0.17058 2.11302,-1.44718 4.31366,-3.59528 4.49135,-4.38417 7.07544,-5.00232 8.0579,-1.92765 0.63177,1.9772 0.75533,1.99369 2.5888,0.34554 1.84404,-1.65763 1.9263,-1.62899 1.94778,0.67804 l 0.0224,2.40878 1.83682,-2.37248 c 1.59431,-2.0592 2.13529,-2.21382 4.09731,-1.17081 2.66146,1.41482 3.88179,0.68261 2.2057,-1.32342 -0.92183,-1.10326 -0.82557,-1.54383 0.44294,-2.02734 2.79173,-1.06408 3.59555,-0.72185 2.66583,1.135 -0.50468,1.00796 -0.47756,3.64676 0.0638,6.21004 l 0.94137,4.45728 3.41729,-5.95964 c 1.87952,-3.27781 3.42297,-5.38709 3.42992,-4.68733 z m -5.47862,1.31942 c -0.47214,-0.75882 -0.13177,-1.94277 0.8344,-2.90247 1.72974,-1.71814 1.98215,-0.93738 0.72655,2.24741 -0.56934,1.44408 -0.96634,1.61071 -1.56095,0.65506 z m -26.77562,-0.97115 c 0,-0.55087 0.45376,-1.28014 1.00834,-1.62058 0.55459,-0.34044 1.00834,-0.16839 1.00834,0.38257 0,0.55086 -0.45375,1.28014 -1.00834,1.62058 -0.55458,0.34044 -1.00834,0.16839 -1.00834,-0.38257 z m -93.43548,-14.8119 c 0.29674,-0.29484 0.0854,-1.72224 -0.46956,-3.1722 l -1.0091,-2.63633 2.58598,2.4131 c 1.42229,1.32721 2.58598,2.50732 2.58598,2.6225 0,0.11518 -0.95238,0.45675 -2.11641,0.75913 -1.16403,0.30235 -1.87363,0.30861 -1.57689,0.0125 z M 299.39247,338.42809 c 0,-1.3309 0.27376,-1.39932 1.51251,-0.37815 0.83188,0.68576 1.51251,1.41701 1.51251,1.62499 0,0.20814 -0.68063,0.37816 -1.51251,0.37816 -0.83188,0 -1.51251,-0.73125 -1.51251,-1.625 z m -12.43618,-10.06002 c -0.36973,-0.36726 -0.67223,-1.13347 -0.67223,-1.70267 0,-0.62761 0.46965,-0.56846 1.1932,0.15023 0.65627,0.65184 0.95877,1.41804 0.67223,1.70268 -0.28653,0.28451 -0.82348,0.2169 -1.1932,-0.15024 z m -18.31816,-27.37636 c -0.34276,-0.55086 -0.14265,-1.00157 0.44466,-1.00157 0.58731,0 1.06785,0.45071 1.06785,1.00157 0,0.55087 -0.2001,1.00158 -0.44466,1.00158 -0.24456,0 -0.7251,-0.45071 -1.06785,-1.00158 z m -161.2869,129.67411 c 0.56407,-4.48439 1.00964,-5.44355 2.34133,-5.04017 1.22659,0.37158 2.52598,-1.28539 5.11165,-6.51824 1.90684,-3.8591 3.52536,-7.80345 3.5967,-8.76524 0.19864,-2.67846 4.49976,-8.40921 9.9799,-13.29717 9.22439,-8.22758 9.87291,-8.96881 9.25247,-10.5748 -0.41587,-1.07648 -0.15742,-1.39826 0.82293,-1.02458 0.78606,0.29953 2.22279,-0.32626 3.19273,-1.39084 0.96994,-1.06458 1.35289,-1.94249 0.851,-1.95094 -0.5019,-0.009 -0.29592,-0.40342 0.45774,-0.87773 1.65852,-1.04379 5.24557,-6.80478 8.55635,-13.74193 2.44176,-5.11629 5.79544,-8.36887 8.69993,-8.43769 2.25129,-0.0535 7.3781,-7.0851 6.09496,-8.35964 -1.71006,-1.69857 -1.17016,-3.106 1.87742,-4.89418 1.59662,-0.93682 3.65981,-3.28754 4.58482,-5.22381 0.92504,-1.93629 2.1303,-3.5205 2.67839,-3.5205 0.64014,0 0.62322,0.69281 -0.0473,1.9373 -1.30382,2.41989 -1.33741,4.07215 -0.0828,4.07215 0.52857,0 1.7221,-1.59307 2.6523,-3.54019 0.9302,-1.94706 2.54046,-4.13096 3.57837,-4.85306 1.63191,-1.13535 1.73355,-1.75044 0.75162,-4.5483 -0.87116,-2.48225 -0.84522,-3.50917 0.11145,-4.41147 0.97859,-0.92301 1.09943,-0.69111 0.56149,1.07745 -1.05792,3.47809 1.04967,2.66396 2.59288,-1.00158 0.75374,-1.79031 1.28261,-3.5333 1.17529,-3.87333 -0.10732,-0.34004 0.91917,-1.65804 2.2811,-2.92892 1.36192,-1.27087 2.47623,-3.16015 2.47623,-4.19837 0,-1.0382 0.39311,-1.64634 0.87357,-1.35138 1.17982,0.72427 4.13179,-2.63819 4.64643,-5.29252 0.64289,-3.31583 1.45628,-4.13971 4.08708,-4.13971 1.85192,0 2.27658,-0.39633 1.78582,-1.66666 -0.41434,-1.07249 -0.24815,-1.42373 0.46613,-0.98524 0.61052,0.37478 1.39504,0.22336 1.74338,-0.33648 0.34834,-0.55985 0.0394,-1.0196 -0.68658,-1.02166 -0.72596,-0.002 0.0607,-0.84006 1.74824,-1.86221 2.9952,-1.81428 6.91405,-6.64913 7.01164,-8.65056 0.0268,-0.55087 0.83272,-0.86914 1.7908,-0.70727 0.95806,0.16187 1.74195,-0.17619 1.74195,-0.75118 0,-0.57502 -0.42556,-1.04549 -0.94568,-1.04549 -0.52012,0 -0.87731,-0.90141 -0.79376,-2.00314 0.0836,-1.10174 0.67016,-2.00315 1.30358,-2.00315 1.15552,0 9.04259,-8.05193 13.29677,-13.5747 1.25036,-1.6232 3.33977,-4.30339 4.64315,-5.95599 2.14228,-2.71628 2.25247,-3.34123 1.14788,-6.51022 -1.16021,-3.32851 -2.73081,-4.0924 -6.0477,-2.94142 -0.55458,0.19243 -4.41148,-1.27255 -8.57088,-3.25554 -4.1594,-1.98299 -12.10007,-4.84735 -17.64593,-6.36525 -5.54587,-1.51788 -12.02192,-3.64841 -14.39122,-4.7345 -2.7751,-1.2721 -5.36382,-1.76491 -7.27579,-1.38508 -2.32751,0.46238 -3.30797,0.1102 -4.54357,-1.63201 -1.30372,-1.83826 -1.7327,-1.97145 -2.48602,-0.77182 -0.76179,1.21309 -2.31193,0.84516 -9.49475,-2.25354 -4.72138,-2.03683 -9.51705,-3.70333 -10.65705,-3.70333 -1.14,0 -2.07508,-0.56338 -2.07795,-1.25197 -0.003,-0.75412 -1.61124,-1.34271 -4.04401,-1.48019 -4.61972,-0.26103 -10.06751,-3.76232 -10.06751,-6.47036 0,-0.99814 -0.45376,-1.81479 -1.00834,-1.81479 -0.55459,0 -1.00834,0.47832 -1.00834,1.06294 0,2.29717 -22.0065,-3.02355 -26.74751,-6.467 -1.93542,-1.40573 -5.51934,-1.02878 -5.51934,0.5805 0,1.51851 -4.398691,-0.27571 -5.911701,-2.41136 -0.97703,-1.37911 -2.071847,-1.76575 -3.78826,-1.33785 -1.654502,0.41247 -2.332572,0.20135 -2.155016,-0.67096 0.158183,-0.77718 -0.576011,-1.15891 -1.885557,-0.98033 -1.216,0.16582 -2.402982,-0.37628 -2.741286,-1.25197 -0.706786,-1.82949 -3.344245,-2.05894 -3.920728,-0.34109 -0.277482,0.82686 -3.37953,-0.002 -9.915335,-2.64854 -5.231313,-2.11854 -12.329888,-4.86395 -15.774592,-6.10091 -3.444703,-1.23695 -6.993698,-2.97471 -7.886655,-3.86167 -2.299533,-2.28411 -4.504521,-2.00751 -4.504521,0.56506 v 2.17774 l -2.354554,-2.19715 c -1.985133,-1.85242 -3.277508,-2.14208 -8.237179,-1.84627 -4.675944,0.27891 -6.26133,-0.0253 -7.728836,-1.48295 -2.600743,-2.58329 -4.586115,-2.28199 -6.269486,0.95145 -1.057465,2.03119 -1.166451,3.28861 -0.402555,4.64446 0.759632,1.34828 0.735351,1.66758 -0.08836,1.16192 -0.769483,-0.47238 -1.135844,0.58707 -1.135844,3.28466 0,2.19007 0.514523,4.15229 1.143385,4.36051 0.765443,0.25343 0.633774,0.88476 -0.398341,1.90995 -0.935947,0.92967 -1.376738,2.68302 -1.121827,4.46237 0.414176,2.89105 0.40511,2.89707 -0.665441,0.44133 -0.596936,-1.36931 -0.887144,-3.24246 -0.644909,-4.16256 0.301109,-1.14371 -0.319291,-1.81715 -1.961237,-2.12893 -2.044047,-0.38812 -2.401665,-0.0586 -2.401665,2.21316 0,1.46804 1.182867,5.02695 2.628592,7.90867 2.386332,4.75661 2.506421,5.53629 1.303006,8.45964 -0.729072,1.77107 -1.9236,3.82729 -2.654504,4.56938 -1.658846,1.68422 -4.7130588,0.65835 -3.946599,-1.32561 0.310612,-0.80402 0.171764,-1.7031 -0.308555,-1.99796 -1.5962418,-0.97991 -4.0803135,0.65739 -4.0803135,2.68943 0,1.29532 0.4935592,1.81502 1.3967941,1.47073 1.5137432,-0.57697 6.2732034,4.16143 5.8978364,5.87176 -0.126332,0.57562 0.672735,2.80477 1.775704,4.95366 1.10297,2.1489 1.666265,4.15683 1.251766,4.46207 -0.985017,0.72539 -3.263727,7.24658 -3.263727,9.34011 0,0.89753 0.72078,2.03253 1.601733,2.52223 0.880953,0.4897 1.76202,2.20225 1.957925,3.80567 1.449403,11.86286 1.660888,12.50747 3.884803,11.84099 2.05981,-0.61731 2.052805,-0.56194 -0.199506,1.57675 -2.135695,2.02794 -2.199841,2.36404 -0.754056,3.95091 0.869118,0.95391 1.248867,2.06352 0.843889,2.46578 -1.568987,1.55846 -0.902964,10.14711 1.040774,13.42124 1.989678,3.35152 1.64736,5.55606 -0.527323,3.39597 -0.656259,-0.65185 -1.541961,-1.18519 -1.968224,-1.18519 -1.152219,0 0.256379,3.09049 2.361756,5.18175 1.012892,1.00609 1.841621,2.88091 1.841621,4.16626 0,1.28536 0.31956,2.65443 0.710134,3.04238 0.390573,0.38795 0.730888,1.92787 0.756254,3.42204 0.03101,1.82726 0.786628,3.03941 2.307899,3.70239 1.457033,0.63497 2.074187,1.57275 1.734544,2.6357 -0.295046,0.92336 0.128875,1.90011 0.962601,2.21789 1.890208,0.72048 4.903331,6.41677 4.087661,7.72771 -0.338279,0.54366 -1.037452,0.72917 -1.553716,0.41224 -2.001743,-1.22884 -0.811298,2.76015 1.446832,4.84808 1.905685,1.76208 2.16376,2.5527 1.283086,3.9309 -1.645036,2.57435 0.649496,4.61922 3.017748,2.68938 1.554332,-1.26662 1.672185,-1.18652 1.160031,0.78839 -0.577378,2.22644 3.269353,11.10129 5.370962,12.39144 0.754474,0.46316 0.683799,1.30486 -0.231855,2.76121 -1.154214,1.83579 -1.013636,2.41589 1.136364,4.68912 2.445499,2.58562 3.623567,9.0208 1.850667,10.10913 -1.282024,0.78702 -1.01455,6.84638 0.362599,8.21428 0.665504,0.66104 2.430245,1.20189 3.921648,1.20189 1.491403,0 3.782854,0.86943 5.092113,1.93207 1.909844,1.55006 2.131282,2.18371 1.120047,3.20503 -1.857455,1.87595 -1.540254,2.87549 0.912534,2.87549 2.146723,0 2.149763,0.025 0.252085,2.14884 -1.916623,2.14409 -1.914735,2.14772 0.852059,1.64124 2.498012,-0.45725 2.772933,-0.22348 2.772933,2.35823 0,3.0471 1.683979,3.89087 2.670252,1.33792 0.455186,-1.17823 0.909487,-1.26477 1.985032,-0.37816 1.937007,1.59679 1.741672,2.90766 -0.433277,2.90766 -1.005415,0 -3.132194,1.35213 -4.726177,3.00472 l -2.898149,3.00472 h 6.298193 c 3.549921,0 6.049489,0.39973 5.728236,0.91604 -0.313468,0.50382 0.915301,1.82781 2.730623,2.94221 4.080698,2.5051 8.120961,6.69436 8.422155,8.73275 0.387848,2.62485 2.544582,4.43513 5.302969,4.45109 1.738162,0.009 2.207736,0.2939 1.365212,0.82492 -1.936739,1.22089 2.174351,4.56292 4.780287,3.88601 1.824801,-0.47399 2.493834,0.27074 2.198699,2.44738 -0.04947,0.36485 1.331632,1.15563 3.069117,1.75726 1.737486,0.60163 2.877986,1.37306 2.534446,1.71429 -0.34355,0.34125 -2.118696,-0.24257 -3.944782,-1.29764 -3.164455,-1.82809 -3.401181,-1.83563 -5.047969,-0.16056 -1.097357,1.11613 -1.344482,1.99269 -0.677261,2.40231 2.094456,1.28573 6.527638,2.26249 10.651312,2.34678 l 4.21289,0.0861 0.69664,-5.53836 z M 67.424736,401.70939 c 0.66304,-0.79356 1.891027,-1.18155 2.728859,-0.8622 1.237664,0.47177 1.271112,0.73944 0.17835,1.42749 -0.739734,0.46577 -1.96772,0.85378 -2.728859,0.8622 -1.090575,0.0125 -1.128379,-0.29046 -0.17835,-1.42749 z m -19.1087,-45.51291 c 0,-0.55087 0.453753,-1.28014 1.008339,-1.62058 0.554587,-0.34044 1.008339,-0.16839 1.008339,0.38257 0,0.55087 -0.453752,1.28014 -1.008339,1.62058 -0.554586,0.34044 -1.008339,0.16839 -1.008339,-0.38257 z M 188.18004,311.01871 c 0.28842,-1.09554 0.9486,-1.73147 1.46707,-1.41318 0.55625,0.34147 0.45865,1.15796 -0.23809,1.99187 -1.59058,1.90369 -1.8503,1.7814 -1.22897,-0.57869 z M 21.603119,291.99052 c -0.338315,-0.54374 0.382458,-2.00854 1.601722,-3.25511 1.812349,-1.85296 2.097712,-1.93176 1.56395,-0.43184 -0.359091,1.00906 -0.652892,2.47386 -0.652892,3.25511 0,1.62746 -1.597978,1.90208 -2.51278,0.43184 z M 396.79438,432.74371 c 1.61032,-0.80151 3.53307,-2.8297 4.27278,-4.50708 1.58949,-3.60432 4.32057,-4.23879 3.4275,-0.79625 -0.52078,2.00743 -0.40034,2.10343 1.10274,0.87894 0.92805,-0.75603 1.68737,-2.14691 1.68737,-3.09083 0,-1.72039 7.41759,-9.05582 9.15723,-9.05582 0.5094,0 0.92616,-1.57747 0.92616,-3.5055 0,-2.44829 0.45614,-3.50551 1.51251,-3.50551 0.83187,0 1.5155,-0.78874 1.51915,-1.75276 0.0126,-3.0435 3.40343,-7.26147 5.03429,-6.2603 1.92889,1.18411 3.74623,-0.42388 4.54093,-4.01787 0.4536,-2.05126 1.08097,-2.70895 2.18328,-2.28879 2.37917,0.90683 3.53196,-1.8597 1.64012,-3.93612 -1.48541,-1.63034 -1.48411,-1.77563 0.0158,-1.77563 0.89833,0 2.15974,-1.0141 2.80315,-2.25354 0.64338,-1.23945 2.07803,-3.24469 3.18805,-4.45613 1.11003,-1.2114 1.76532,-2.85724 1.4562,-3.6574 -0.39892,-1.03262 0.41232,-1.63641 2.79515,-2.08046 4.95662,-0.9236 8.20432,-3.95318 9.44432,-8.80993 1.27445,-4.99169 4.32616,-7.54792 6.25502,-5.23939 2.2922,2.74341 2.80478,1.4567 1.45074,-3.64181 -1.59752,-6.01539 -1.10325,-7.92114 2.05446,-7.92114 1.86376,0 2.20924,-0.4153 1.76116,-2.11717 -0.4725,-1.79472 -0.22877,-2.01357 1.60058,-1.43688 1.69121,0.53318 2.02695,0.34119 1.55225,-0.88755 -0.33313,-0.86229 -1.01093,-1.56784 -1.50618,-1.56784 -1.75854,0 -0.86081,-1.5638 1.87249,-3.26175 2.75664,-1.71241 2.7596,-1.72624 0.50417,-2.35194 -2.74051,-0.76023 -2.77136,-1.12098 -0.40132,-4.69125 1.62774,-2.45207 2.01135,-2.60496 3.14182,-1.25196 1.09282,1.30796 0.95112,1.54117 -0.93646,1.54117 -1.32042,0 -2.05499,0.50413 -1.80783,1.24067 0.48388,1.44192 7.57559,4.34222 8.46277,3.46103 0.32951,-0.3273 -0.84867,-2.93223 -2.61818,-5.78875 -1.89738,-3.06297 -2.62004,-4.96602 -1.76151,-4.63879 1.14255,0.4355 1.56328,-0.77585 1.95558,-5.6306 0.35885,-4.44025 1.24316,-7.27342 3.13424,-10.04137 2.13163,-3.12006 2.42697,-4.24076 1.54767,-5.87272 -0.78606,-1.45888 -0.77989,-1.82851 0.0221,-1.33608 0.73678,0.45231 1.10892,-0.68355 1.10892,-3.38464 0,-2.40625 -0.47531,-4.06541 -1.16463,-4.06541 -0.72071,0 -0.56073,-0.66809 0.41972,-1.75275 0.97834,-1.08233 1.41555,-2.90205 1.14308,-4.75747 -0.42996,-2.92767 -0.41345,-2.94088 0.64404,-0.51507 0.59694,1.36931 0.88715,3.24246 0.64493,4.16256 -0.30124,1.14372 0.3193,1.81715 1.96122,2.12893 2.04406,0.38812 2.40167,0.0586 2.40167,-2.21316 0,-1.46804 -1.20988,-5.08079 -2.68861,-8.02832 l -2.68861,-5.35915 2.34717,-4.39476 c 2.44134,-4.57113 5.5497,-5.57315 5.55223,-1.78982 0.001,1.81447 0.56778,2.07724 3.52786,1.63621 0.55459,-0.0826 1.00834,-1.09987 1.00834,-2.26055 0,-1.38663 -0.47899,-1.92772 -1.3968,-1.57789 -1.53076,0.58346 -5.96808,-3.9063 -6.24512,-6.31897 -0.0955,-0.83101 -0.91677,-3.20108 -1.82519,-5.26683 -0.90842,-2.06574 -1.29089,-3.7559 -0.84997,-3.7559 0.44096,0 1.40963,-2.04494 2.15259,-4.5443 1.20729,-4.06141 1.16693,-4.74617 -0.37986,-6.44387 -0.95187,-1.04476 -1.88799,-3.16887 -2.08027,-4.72025 -1.44438,-11.65391 -1.68244,-12.40536 -3.72569,-11.76122 -1.84321,0.58109 -1.82808,0.47181 0.21617,-1.5586 2.01819,-2.00464 2.06747,-2.32708 0.60153,-3.93605 -0.87823,-0.96391 -1.2654,-2.08167 -0.86042,-2.48394 1.57241,-1.56186 0.97862,-10.11723 -0.88715,-12.78191 -2.79874,-3.99717 -2.10337,-6.69606 0.94509,-3.66806 2.36522,2.34935 2.15631,0.0993 -0.29746,-3.20426 -1.38016,-1.85788 -2.50922,-4.39058 -2.50922,-5.62821 0,-1.23763 -0.3929,-2.49143 -0.87309,-2.78623 -0.48022,-0.29481 -0.67061,-1.58825 -0.4231,-2.87435 0.26784,-1.39207 -0.21143,-2.88377 -1.18489,-3.68611 -1.41432,-1.16591 -2.1055,-0.8947 -5.12277,2.01015 -1.91833,1.84684 -3.48788,2.81876 -3.48788,2.15984 0,-1.30127 -2.64512,-1.67146 -3.19306,-0.44687 -0.18497,0.41315 -2.9452,2.04436 -6.13407,3.62492 -3.18888,1.58056 -5.79795,3.24962 -5.79795,3.70903 0,0.45941 -2.14808,1.77911 -4.77351,2.93268 -4.38902,1.92845 -7.53939,2.49647 -19.0122,3.42796 -2.26773,0.18411 -5.04403,0.82431 -6.16956,1.42263 -1.12553,0.59833 -2.31842,0.8177 -2.65083,0.4875 -0.84404,-0.83836 -10.82294,3.04035 -19.95547,7.75654 -5.54631,2.86421 -11.46935,3.84533 -12.14018,2.01095 -0.19348,-0.52949 -2.47333,-0.37526 -5.37782,0.36383 -3.81222,0.97007 -5.0417,1.74377 -5.0417,3.17263 0,1.49095 -0.95751,2.00509 -4.53752,2.43645 -2.49564,0.30069 -5.52863,1.08944 -6.73999,1.75276 -3.42706,1.87655 -4.83962,1.41899 -2.19468,-0.71092 3.05205,-2.45774 1.73733,-3.88713 -1.58596,-1.72425 -1.38423,0.90092 -3.40318,1.63803 -4.48651,1.63803 -2.95806,0 -5.15964,1.06072 -5.15964,2.4859 0,0.6985 -1.37286,1.54273 -3.0508,1.87607 -1.67794,0.33334 -4.15624,1.7041 -5.50736,3.04615 -1.66892,1.65772 -3.14863,2.26032 -4.61497,1.87944 -1.2212,-0.3172 -2.50204,-0.008 -2.94984,0.71135 -0.43528,0.6996 -2.3563,1.36637 -4.26893,1.48171 -2.00322,0.12082 -4.40849,1.13449 -5.67357,2.39109 -2.07655,2.06261 -2.33258,2.09254 -4.70293,0.54987 -1.46187,-0.95145 -2.50679,-1.1791 -2.50679,-0.54617 0,0.6008 -0.74907,0.79981 -1.67791,0.44577 -1.12825,-0.43003 -1.4391,-0.25568 -0.94886,0.53222 0.51341,0.8251 -0.55635,1.1736 -3.61585,1.17795 -2.38973,0.003 -5.66153,0.68815 -7.27066,1.52169 -1.61037,0.83418 -3.87701,1.23107 -5.0417,0.88284 -1.66783,-0.4987 -1.86276,-0.36794 -0.92039,0.61738 1.94617,2.03482 -0.57738,3.47101 -6.27955,3.57377 -5.02047,0.0905 -14.10375,2.30076 -20.27085,4.93262 -1.74425,0.74436 -4.06249,1.12191 -5.15166,0.83901 -1.55772,-0.40463 -2.10643,0.11205 -2.57141,2.4213 -0.89086,4.42446 0.18233,7.23984 2.75976,7.23984 1.72441,0 2.70584,1.16959 4.41228,5.25826 1.20703,2.89204 4.67945,8.41322 7.71647,12.26927 3.03704,3.85606 7.83983,10.39133 10.67286,14.52282 2.83303,4.13149 6.36384,8.18786 7.84624,9.01416 1.9048,1.06175 2.60078,2.16328 2.37306,3.7559 -0.24323,1.70123 0.17883,2.25354 1.7221,2.25354 1.38989,0 2.90345,1.52293 4.72823,4.75748 1.47617,2.61661 4.01907,6.72582 5.6509,9.13157 1.63184,2.40575 2.72828,4.9919 2.43655,5.74703 -0.29178,0.75512 -0.20639,1.27813 0.1897,1.16223 1.52667,-0.44683 6.26583,3.56084 6.26583,5.2987 0,1.00586 0.49947,2.13545 1.10993,2.51019 0.63112,0.38746 0.85948,1.92515 0.52938,3.56463 -0.40772,2.02487 -0.17961,2.88325 0.7657,2.88325 0.74044,0 2.90783,1.4648 4.8164,3.25512 4.03474,3.78469 13.95371,17.51868 13.95371,19.32054 0,0.67565 0.90751,1.4642 2.01668,1.75231 1.11201,0.28889 2.01668,0.0313 2.01668,-0.5754 0,-0.60458 0.66619,-0.22442 1.48043,0.84495 0.81423,1.06931 1.49486,2.94388 1.51251,4.16573 0.0189,1.37347 1.09064,2.79198 2.80501,3.71581 1.56144,0.84142 2.11212,1.52568 1.26042,1.56621 -1.14881,0.0548 -1.03033,0.4339 0.49261,1.57717 1.1028,0.82786 2.05464,2.05297 2.11518,2.72246 0.35304,3.90454 0.40087,3.97994 1.795,2.8307 1.10372,-0.90987 2.37804,0.41036 6.40727,6.63799 10.342,15.98474 14.39842,22.68304 14.39842,23.77585 0,0.61863 0.51687,1.6382 1.14856,2.26566 0.85917,0.8534 1.58955,0.59988 2.89897,-1.00634 l 1.75042,-2.14718 v 2.67733 c 0,3.50832 3.85368,11.57252 6.63118,13.87643 2.68322,2.22571 2.70623,2.22724 6.32232,0.42742 z m -2.61802,-3.45659 -2.52085,-0.70789 2.52085,-0.68095 c 3.89093,-1.05106 5.03126,-0.84514 4.39799,0.79406 -0.63011,1.631 -0.68267,1.63811 -4.39799,0.59478 z m 29.746,-32.14434 c -0.34274,-0.55087 -0.14274,-1.00158 0.44465,-1.00158 0.58732,0 1.06786,0.45071 1.06786,1.00158 0,0.55086 -0.20009,1.00157 -0.44465,1.00157 -0.24452,0 -0.72512,-0.45071 -1.06786,-1.00157 z m 14.62092,-24.09689 c 0,-0.58336 0.45375,-0.78211 1.00834,-0.44167 0.55458,0.34045 1.00834,0.81776 1.00834,1.0607 0,0.24288 -0.45376,0.44167 -1.00834,0.44167 -0.55459,0 -1.00834,-0.47732 -1.00834,-1.0607 z m 14.11674,-15.96605 c 0,-1.8696 0.26879,-2.13671 1.21001,-1.20189 0.94113,0.93481 0.94113,1.46896 0,2.40377 -0.94113,0.93482 -1.21001,0.66771 -1.21001,-1.20188 z M 301.40915,248.85078 c 0,-0.58338 0.45375,-0.78213 1.00834,-0.44168 0.55458,0.34046 1.00834,0.81777 1.00834,1.06069 0,0.24291 -0.45376,0.44167 -1.00834,0.44167 -0.55459,0 -1.00834,-0.47731 -1.00834,-1.06068 z m 31.25852,-7.95348 c 0,-0.55087 0.48054,-1.00157 1.06787,-1.00157 0.58729,0 0.78738,0.4507 0.44464,1.00157 -0.34274,0.55087 -0.82328,1.00157 -1.06786,1.00157 -0.24452,0 -0.44465,-0.4507 -0.44465,-1.00157 z m 14.62092,-9.01416 c -0.34274,-0.55087 0.11092,-1.00158 1.00834,-1.00158 0.89733,0 1.35108,0.45071 1.00834,1.00158 -0.34274,0.55086 -0.7965,1.00157 -1.00834,1.00157 -0.21175,0 -0.6656,-0.45071 -1.00834,-1.00157 z M 475.193,216.52722 c 0.36234,-1.00906 0.65882,-2.47386 0.65882,-3.25511 0,-1.75445 1.63128,-1.87566 2.26748,-0.16848 0.25649,0.68858 -0.44509,2.15338 -1.55928,3.25511 -1.83394,1.81343 -1.96342,1.82938 -1.36702,0.16848 z M 334.49617,373.85619 c -0.20104,-2.07163 -0.86087,-3.25511 -1.8147,-3.25511 -1.93424,0 -2.55138,3.17762 -0.98193,5.05597 1.99758,2.39079 3.13256,1.65995 2.79663,-1.80086 z m -172.88026,-5.78434 c 1.51832,-1.39907 -0.41847,-3.09721 -2.71952,-2.3844 -2.46102,0.76239 -3.82239,2.39852 -3.04085,3.65459 0.55651,0.8944 4.30932,0.067 5.76037,-1.27019 z m 159.96003,-10.99201 c 0,-0.55087 -0.45375,-1.00158 -1.00834,-1.00158 -0.55458,0 -1.00834,0.45071 -1.00834,1.00158 0,0.55086 0.45376,1.00157 1.00834,1.00157 0.55459,0 1.00834,-0.45071 1.00834,-1.00157 z m -151.57041,-3.19252 c -0.32188,-0.79897 -0.56081,-0.56166 -0.60919,0.60511 -0.0438,1.05584 0.19451,1.6474 0.52959,1.31456 0.33507,-0.3328 0.37088,-1.19666 0.0796,-1.91967 z m 86.22942,-100.87623 c 0.35753,-2.41964 -0.12573,-3.40809 -2.52912,-5.17308 -2.81421,-2.06666 -3.1469,-2.09863 -6.2997,-0.60525 -4.4462,2.10602 -5.06285,6.15348 -1.48574,9.75208 2.54371,2.559 2.56137,2.56126 6.21177,0.79187 2.74094,-1.32857 3.77187,-2.52605 4.10279,-4.76562 z m -13.88007,-11.21584 c -0.20576,-0.33242 0.17252,-2.04286 0.8406,-3.80096 0.94254,-2.4803 0.94428,-3.36257 0.008,-3.93746 -0.89181,-0.54746 -0.98991,-2.95445 -0.37577,-9.21949 1.28135,-13.07145 0.59134,-42.11098 -1.02416,-43.10273 -1.04356,-0.64061 -0.93465,-1.23078 0.52221,-2.82979 1.69504,-1.86043 1.71174,-2.1485 0.21109,-3.63909 -1.02516,-1.01829 -1.41087,-2.48465 -1.03982,-3.95312 0.32442,-1.28391 0.66514,-5.98165 0.75716,-10.43941 0.12629,-6.11865 0.50648,-8.10619 1.5512,-8.1097 1.07745,-0.004 1.12222,-0.31785 0.2022,-1.41897 -2.76476,-3.30852 -0.79546,-14.61088 2.54538,-14.61088 1.42489,0 1.46595,-0.23336 0.28889,-1.64211 -2.45122,-2.93373 -3.42656,-9.67143 -2.87947,-19.89172 0.6104,-11.40286 0.2967,-13.85961 -1.67379,-13.10853 -0.9805,0.37373 -1.38,-0.35185 -1.38,-2.506402 0,-1.92715 0.39924,-2.787311 1.09536,-2.359971 0.72436,0.44468 0.996,-0.473055 0.802,-2.709638 -0.16133,-1.860135 0.0654,-3.958704 0.50396,-4.663483 0.44174,-0.709946 0.25385,-1.93186 -0.42129,-2.739907 -0.85825,-1.02718 -0.88392,-1.458485 -0.0868,-1.458485 0.62248,0 1.1318,-1.112627 1.1318,-2.4725 0,-1.891347 -0.39309,-2.322668 -1.6724,-1.835046 -1.40828,0.536781 -1.57326,0.145134 -1.04469,-2.480002 0.34523,-1.7146 0.94053,-9.693761 1.32288,-17.731467 0.38234,-8.037706 1.07933,-14.849839 1.54885,-15.138076 0.46954,-0.288234 0.8537,-1.632828 0.8537,-2.987976 0,-2.132826 -0.34123,-2.37884 -2.53935,-1.830845 l -2.53936,0.63306 1.77536,-3.072621 c 1.68926,-2.923615 1.69015,-3.215877 0.0186,-6.026774 -0.96636,-1.624783 -1.75694,-3.635793 -1.75694,-4.468908 0,-0.833114 -0.56719,-1.704372 -1.26042,-1.936127 -1.00593,-0.336295 -1.00379,-0.73034 0.0107,-1.951573 0.69908,-0.841609 1.54069,-3.506475 1.87024,-5.921925 l 0.59911,-4.391727 -3.37308,3.004721 c -1.85519,1.652596 -3.52868,3.342752 -3.71886,3.755901 -0.73342,1.59327 -4.10761,0.649711 -4.73863,-1.325109 -0.63178,-1.977194 -0.75533,-1.993687 -2.5888,-0.345555 -1.84404,1.657638 -1.9263,1.629002 -1.94778,-0.678038 l -0.0224,-2.408773 -1.94961,2.503934 c -1.69508,2.177062 -2.2169,2.340497 -3.99724,1.251967 -2.877,-1.759036 -3.20786,-1.592618 -2.48909,1.251967 0.53325,2.110394 0.27915,2.503934 -1.61677,2.503934 -1.70078,0 -1.99096,-0.309377 -1.18966,-1.268412 0.73674,-0.881742 0.74193,-2.748822 0.017,-6.124686 l -1.04273,-4.856273 -3.39226,5.874291 c -1.86574,3.230861 -3.40599,5.318143 -3.42278,4.638402 -0.0205,-0.833939 -1.40745,-0.523018 -4.26415,0.955991 -2.50303,1.2959 -6.50583,2.302253 -9.79222,2.461887 -3.05723,0.148502 -6.25681,0.580797 -7.11019,0.960654 -0.85339,0.379856 -1.77847,0.73479 -2.05577,0.78874 -2.79394,0.543588 -7.05837,3.123509 -7.05837,4.270214 0,0.955879 -0.6373,1.247427 -1.87432,0.857446 -1.08203,-0.341117 -2.41292,0.05374 -3.14848,0.93408 -0.70075,0.838736 -1.96039,1.524974 -2.79915,1.524974 -1.01489,0 -0.66741,-0.670075 1.03876,-2.003147 1.41009,-1.101731 3.06806,-2.003146 3.68439,-2.003146 0.91781,0 0.58677,-4.504433 -0.42476,-5.779533 -0.20819,-0.262438 -5.78293,5.802635 -10.27427,11.177957 -1.8451,2.20825 -2.94818,2.607324 -6.80629,2.462371 -4.08568,-0.153491 -4.60431,-0.433196 -4.60431,-2.483098 0,-1.641942 0.43746,-2.143361 1.5125,-1.733598 0.92587,0.352904 1.51251,-1.88e-4 1.51251,-0.910371 0,-0.817785 -0.68063,-2.047964 -1.51251,-2.733728 -1.20862,-0.99631 -1.82505,-0.98923 -3.06779,0.03522 -0.89687,0.739342 -1.17916,1.655644 -0.66683,2.164527 1.09191,1.084583 -0.88324,7.800255 -2.3101,7.854559 -0.55753,0.02128 -1.94422,1.486022 -3.08151,3.255114 -1.18127,1.837481 -2.76985,3.097792 -3.70524,2.939578 -0.90057,-0.152333 -1.92529,0.185698 -2.27713,0.75118 -0.35184,0.565479 -1.88344,1.02814 -3.40355,1.02814 -3.20077,0 -5.18386,1.62126 -5.18386,4.238043 0,1.008847 -0.79406,2.113433 -1.76459,2.454637 -0.97053,0.341205 -2.91796,1.829644 -4.32764,3.307637 -1.40968,1.477994 -3.43013,3.169251 -4.48989,3.758346 -1.63397,0.908283 -1.72382,1.314077 -0.59111,2.66976 1.18492,1.418153 0.99644,1.531265 -1.66914,1.001726 -2.53934,-0.504461 -3.09897,-0.239595 -3.61215,1.70963 -0.33399,1.268615 -0.91729,1.998612 -1.29624,1.622217 -1.26188,-1.253428 -10.0934,4.50839 -11.398201,7.436371 -1.54056,3.457006 -4.218469,3.933733 -3.352794,0.596872 0.520782,-2.007426 0.400348,-2.103417 -1.102738,-0.878937 -0.928054,0.756031 -1.687371,2.146898 -1.687371,3.090812 0,1.720378 -7.417594,9.055827 -9.157238,9.055827 -0.509384,0 -0.926153,1.577478 -0.926153,3.505508 0,2.44829 -0.456154,3.505507 -1.512508,3.505507 -0.862518,0 -1.512509,0.900555 -1.512509,2.095564 0,3.214101 -3.314858,6.896841 -5.243102,5.824981 -1.874294,-1.04188 -3.258221,0.36291 -4.192875,4.25606 -0.474465,1.9763 -1.123552,2.53579 -2.520829,2.17284 -2.654299,-0.68945 -3.830829,2.72375 -1.517929,4.40364 1.588465,1.15372 1.597279,1.27839 0.09034,1.27839 -0.918364,0 -2.196172,1.01409 -2.839574,2.25354 -0.643402,1.23945 -2.078029,3.2447 -3.188063,4.45612 -1.110033,1.21142 -1.770183,2.84467 -1.467004,3.62944 0.576134,1.4913 -1.539809,2.86015 -6.850306,4.4316 -1.986308,0.58777 -3.717488,2.19133 -5.041695,4.67 -2.074835,3.88371 -6.021556,6.74037 -8.177221,5.91871 -0.927353,-0.35347 -0.990015,0.55356 -0.260908,3.77676 0.527749,2.33308 1.169003,4.5786 1.425011,4.99004 0.980877,1.57645 -0.867002,3.93358 -3.083744,3.93358 -1.863757,0 -2.209227,0.41531 -1.761171,2.11718 0.472501,1.79473 0.228735,2.01357 -1.600565,1.43687 -1.691215,-0.53317 -2.026949,-0.3412 -1.552253,0.88754 0.333139,0.86231 1.010913,1.56785 1.506165,1.56785 1.758559,0 0.860819,1.56381 -1.872474,3.26174 -2.756628,1.71242 -2.759593,1.72625 -0.50417,2.35194 1.247818,0.34617 2.268761,1.22629 2.268761,1.95583 0,1.9213 -1.710834,2.6794 -2.344591,1.03893 -0.576858,-1.49319 -7.504399,-4.16725 -8.425539,-3.25228 -0.771706,0.76652 3.647434,7.6643 4.910225,7.6643 0.568689,0 0.800009,-0.60563 0.514044,-1.34585 -0.388132,-1.00466 0.566303,-1.32204 3.764978,-1.25196 3.638866,0.0797 4.211933,0.3712 3.800843,1.93322 -0.385104,1.46328 0.0085,1.77044 1.925089,1.50236 1.810085,-0.25318 2.372446,0.11017 2.2615,1.46115 -0.09362,1.13997 0.460007,1.71392 1.512509,1.56801 0.913095,-0.12657 3.057756,0.0974 4.765914,0.4976 1.708155,0.40026 6.472557,0.87554 10.587561,1.0562 4.230341,0.18573 9.015544,1.05345 11.011003,1.99669 7.82871,3.7006 12.957334,6.55309 13.579299,7.5527 0.361055,0.58028 1.827486,1.05506 3.258728,1.05506 1.431246,0 3.106038,0.61944 3.721764,1.37653 1.290728,1.58707 16.309641,5.63448 20.908141,5.63448 3.826,0 9.95736,2.78111 9.95736,4.51654 0,0.70596 1.86361,2.19942 4.14134,3.31879 3.96227,1.94722 6.95039,1.97736 6.95039,0.0701 0,-1.45015 2.01641,-1.03101 4.92008,1.02272 1.49081,1.05442 4.40183,2.23228 6.46892,2.61747 4.48113,0.83503 5.93668,2.30329 1.66616,1.68072 -2.24247,-0.32693 -2.97177,-0.0367 -2.97177,1.18279 0,1.07245 0.88147,1.61604 2.62054,1.61604 1.44131,0 4.24689,0.76656 6.23463,1.70348 2.65119,1.24964 3.72161,1.38306 4.01769,0.50079 0.48629,-1.44909 3.26057,-1.62021 3.26057,-0.20113 0,0.55087 1.24782,1.00409 2.77293,1.00717 1.52511,0.003 4.58794,0.53505 6.80629,1.18217 2.21835,0.64713 4.60683,1.07414 5.30773,0.9489 0.7009,-0.12523 2.27656,0.46956 3.50146,1.32176 1.2249,0.85219 4.21657,1.54944 6.64814,1.54944 3.55661,0 4.30514,0.30004 3.82826,1.53442 -0.74596,1.93086 4.34427,4.19869 5.44682,2.42672 0.46935,-0.75434 0.90464,-0.5936 1.32266,0.48844 0.7764,2.00968 9.21846,5.70245 11.25863,4.92481 0.99341,-0.37864 1.53151,0.0596 1.57823,1.28537 0.0563,1.47626 0.21226,1.55002 0.75626,0.35755 0.37695,-0.8263 1.73268,-1.61437 3.01271,-1.75125 1.29078,-0.13806 2.05954,0.1815 1.72608,0.71745 -0.73277,1.17769 9.28459,6.2426 15.84297,8.01042 2.62421,0.70736 4.56639,1.61543 4.31595,2.01793 -0.25044,0.40251 0.57946,0.53533 1.84424,0.29518 1.30657,-0.24807 2.85376,0.22664 3.58296,1.09937 1.17681,1.40845 7.45024,1.90753 6.59424,0.52459 z m -37.24212,-16.92313 c -0.34275,-0.55086 -0.14264,-1.00157 0.44466,-1.00157 0.58732,0 1.06785,0.45071 1.06785,1.00157 0,0.55087 -0.20009,1.00158 -0.44466,1.00158 -0.24455,0 -0.72509,-0.45071 -1.06785,-1.00158 z m -30.25017,-11.01731 c -0.34275,-0.55086 -0.14265,-1.00157 0.44466,-1.00157 0.58732,0 1.06785,0.45071 1.06785,1.00157 0,0.55087 -0.20009,1.00158 -0.44466,1.00158 -0.24455,0 -0.72509,-0.45071 -1.06785,-1.00158 z m -17.64593,-2.06225 c 0,-0.58338 0.45375,-0.78213 1.00834,-0.44168 0.55458,0.34045 1.00834,0.81777 1.00834,1.06069 0,0.24291 -0.45376,0.44167 -1.00834,0.44167 -0.55459,0 -1.00834,-0.47731 -1.00834,-1.06068 z m -34.28353,-10.9582 c 0,-0.55087 0.48053,-1.00157 1.06785,-1.00157 0.58732,0 0.78741,0.4507 0.44466,1.00157 -0.34276,0.55086 -0.82329,1.00157 -1.06785,1.00157 -0.24456,0 -0.44466,-0.45071 -0.44466,-1.00157 z M 101.08578,76.095353 c 0,-0.921053 0.57652,-1.325714 1.42692,-1.001574 0.78481,0.299127 2.18388,0.550791 3.10905,0.559226 1.45453,0.01315 1.47748,0.146699 0.16962,0.986237 -2.29064,1.470397 -4.70558,1.191271 -4.70558,-0.543889 z M 209.03385,22.984501 c 0.33905,-0.877598 0.61644,-2.03608 0.61644,-2.574401 0,-0.538323 0.45375,-0.700215 1.00834,-0.359761 1.55257,0.953103 1.19523,3.219956 -0.61644,3.910495 -1.1892,0.453279 -1.45952,0.191545 -1.00834,-0.976333 z m 26.83326,-0.307592 c 0,-0.483416 0.75491,-1.497509 1.67759,-2.253541 1.52118,-1.246443 1.56488,-1.164495 0.4687,0.878938 -1.25025,2.330619 -2.14629,2.904492 -2.14629,1.374603 z M 265.3783,239.98234 c 0.39429,-1.49765 1.7974,-2.07325 6.41973,-2.6336 3.25333,-0.39438 10.45268,-2.28047 15.99854,-4.19131 10.58617,-3.64748 17.3174,-5.70937 21.90346,-6.7094 1.50977,-0.32922 3.60702,-1.51761 4.66057,-2.64086 1.42433,-1.51859 2.60522,-1.87034 4.60519,-1.37174 1.94783,0.48559 2.60918,0.30811 2.39783,-0.64343 -0.18748,-0.84431 1.69039,-1.80165 5.25402,-2.67838 3.05022,-0.75043 7.96793,-2.05082 10.92825,-2.88975 2.9603,-0.83893 5.63016,-1.27922 5.93297,-0.97842 0.30282,0.30078 1.68541,-0.33975 3.07241,-1.42344 2.8542,-2.23007 11.15737,-2.73769 13.10684,-0.80129 0.89704,0.89102 1.33277,0.76573 1.83212,-0.52685 0.89342,-2.3126 11.49525,-7.17938 20.08189,-9.21862 8.73439,-2.07432 10.16185,-2.7784 9.7871,-4.82728 -0.23696,-1.2951 0.61045,-1.61991 4.22594,-1.61991 2.48723,0 4.81404,-0.46903 5.17074,-1.04231 0.3567,-0.57327 1.51786,-0.76826 2.58037,-0.43329 1.09436,0.345 1.93182,0.13731 1.93182,-0.47913 0,-0.6675 0.99838,-0.83925 2.58261,-0.4443 2.0808,0.51873 2.69198,0.22839 3.14551,-1.49424 0.32727,-1.24314 1.67312,-2.39787 3.21534,-2.75874 1.45885,-0.34137 7.87059,-1.97955 14.24834,-3.64039 6.37774,-1.66083 13.9781,-3.22114 16.88968,-3.46736 5.29031,-0.44736 6.51885,-1.64951 4.12039,-4.03188 -0.89232,-0.88632 -0.34883,-1.03337 2.26876,-0.61384 2.81226,0.45072 3.88951,0.0775 5.88668,-2.03952 1.3445,-1.42515 3.04607,-2.59119 3.78127,-2.59119 0.73521,0 1.33675,-0.68464 1.33675,-1.52144 0,-1.13724 0.70022,-1.37019 2.77293,-0.92249 l 2.77293,0.59895 -2.52085,-2.05996 c -1.38646,-1.13297 -1.95365,-2.06997 -1.26042,-2.08222 1.52306,-0.0269 1.68827,-3.64769 0.20797,-4.55647 -0.57888,-0.35537 -1.78851,-0.044 -2.68811,0.69207 -1.45393,1.18956 -1.5621,1.045 -0.97389,-1.30154 0.43588,-1.73892 0.1711,-3.04423 -0.77627,-3.82511 -0.79088,-0.65195 -1.7368,-2.53681 -2.10204,-4.18857 -0.36521,-1.65175 -1.26761,-3.23325 -2.00533,-3.51443 -0.9065,-0.34552 -1.16561,-1.58636 -0.79936,-3.82807 0.29809,-1.82426 -0.19852,-6.94666 -1.1036,-11.38309 -0.90502,-4.43644 -1.52344,-8.61531 -1.3743,-9.28639 0.15093,-0.67972 -1.72171,-1.81305 -4.22828,-2.55878 -5.59723,-1.66522 -8.03766,-3.81315 -6.29696,-5.54216 1.81883,-1.80664 1.47722,-2.81156 -0.95577,-2.81156 -2.1467,0 -2.14975,-0.026 -0.25209,-2.14885 1.91663,-2.1441 1.91474,-2.14772 -0.85205,-1.64125 -2.60312,0.47651 -2.77498,0.28611 -2.80649,-3.10941 l -0.0337,-3.61701 -1.84293,2.1925 c -1.37859,1.64011 -2.13229,1.90507 -2.99146,1.05165 -1.6746,-1.66347 -1.40714,-2.74337 0.67959,-2.74337 1.00541,0 3.13218,-1.35212 4.72618,-3.00472 l 2.89815,-3.004717 -6.49077,-0.07906 c -3.56993,-0.04347 -5.90442,-0.312741 -5.18781,-0.59834 0.79514,-0.316879 -0.38389,-1.593287 -3.02502,-3.274879 -4.8947,-3.116434 -8.15138,-6.44444 -8.47953,-8.665217 -0.38411,-2.599678 -2.55066,-4.40867 -5.29904,-4.424579 -2.05774,-0.01189 -2.31275,-0.226763 -1.14188,-0.962027 1.29392,-0.812499 1.22242,-1.166467 -0.50417,-2.49717 -1.10647,-0.852765 -3.03271,-1.383768 -4.28053,-1.18001 -2.01394,0.328857 -2.706,-0.392257 -2.41762,-2.519086 0.0495,-0.36487 -1.33164,-1.155641 -3.06913,-1.75727 -1.73749,-0.601627 -2.87799,-1.373064 -2.53446,-1.714303 0.34356,-0.341239 2.17385,0.287483 4.06736,1.397183 3.35792,1.967932 3.48245,1.971497 5.05713,0.144727 1.49726,-1.736935 1.45721,-1.956483 -0.55187,-3.024495 -1.19148,-0.633383 -5.01621,-1.378832 -8.49939,-1.656553 -5.92311,-0.472261 -6.49906,-0.742905 -8.8978,-4.181056 -1.41061,-2.021858 -2.56475,-4.167047 -2.56475,-4.767083 0,-1.605585 3.24843,-2.566827 4.0921,-1.210893 1.00704,1.618524 2.96628,0.194055 2.96628,-2.156651 0,-1.069223 -0.1897,-1.944038 -0.42171,-1.944038 -0.23192,0 -1.13942,-0.273587 -2.01668,-0.607943 -1.04662,-0.398939 -1.59497,-0.05462 -1.59497,1.001573 0,1.120636 -0.91882,1.609517 -3.02502,1.609517 -1.73068,0 -3.03875,0.535685 -3.05709,1.251967 -0.0189,0.764594 -0.55352,0.569644 -1.37159,-0.500787 -0.90581,-1.185265 -2.72592,-1.752754 -5.62165,-1.752754 -3.39212,0 -4.16154,-0.312272 -3.70177,-1.50236 0.3451,-0.893332 0.009,-1.502361 -0.82738,-1.502361 -0.77427,0 -2.56386,-1.464801 -3.97685,-3.255113 -2.21857,-2.811039 -2.83252,-3.09249 -4.50035,-2.063051 -1.52814,0.943219 -2.32268,0.897598 -3.80613,-0.218531 -1.03119,-0.775831 -2.78236,-1.427715 -3.89153,-1.448626 -1.10917,-0.02097 -3.31636,-0.711311 -4.90487,-1.534216 -3.73656,-1.935676 -4.65664,-1.886023 -4.75395,0.256559 -0.0491,1.083274 -0.47376,0.678917 -1.11153,-1.058644 -0.91126,-2.482723 -1.38823,-2.733658 -4.0799,-2.146438 -1.79097,0.390723 -2.80933,0.281411 -2.46933,-0.265073 0.92339,-1.484031 -6.56205,-6.702386 -8.95313,-6.241553 -2.51395,0.484512 -6.49831,-0.162474 -6.49831,-1.055223 0,-0.550865 0.68063,-1.001574 1.51251,-1.001574 0.83188,0 1.51251,-0.402488 1.51251,-0.894417 0,-1.349525 -2.27324,-1.920725 -4.50321,-1.13153 -1.98167,0.701314 -9.66988,-0.723136 -10.62189,-1.967988 -1.22495,-1.601748 -3.97987,-1.740516 -6.04402,-0.304441 -1.82351,1.268669 -2.3956,1.31334 -3.06391,0.239238 -0.67466,-1.084287 -1.10429,-1.087797 -2.40006,-0.01962 -2.19698,1.811092 -9.05554,0.540963 -8.2559,-1.528899 0.80103,-2.073458 -2.14843,-2.945752 -5.59328,-1.654191 -2.53889,0.951893 -2.87633,0.853614 -2.87633,-0.837743 0,-1.053881 -0.56719,-1.909245 -1.26042,-1.900809 -2.12832,0.02592 -4.07803,1.702164 -3.34678,2.877404 0.82065,1.318917 -0.62411,1.492414 -1.99742,0.239865 -1.58016,-1.4412 -12.55383,-2.32894 -12.55383,-1.015572 0,0.808596 -0.37053,0.827504 -1.29424,0.06604 -1.74074,-1.434987 -3.9971,0.08896 -3.60745,2.436466 0.17262,1.039877 -0.0733,2.504462 -0.54643,3.254631 -0.53289,0.844869 -0.37821,1.659882 0.40643,2.14156 0.69669,0.427688 0.98023,1.23803 0.6301,1.800754 -0.72963,1.172636 1.40464,11.452239 2.54293,12.247911 1.2199,0.852721 1.23618,12.032998 0.0261,18.001688 -0.61419,3.02976 -1.41051,6.977584 -1.7696,8.772942 -0.41379,2.068772 -0.1787,3.831851 0.64192,4.813988 1.06746,1.277592 1.04354,1.49581 -0.13629,1.242793 -1.16682,-0.250237 -1.38521,1.357765 -1.18261,8.707255 0.13666,4.957789 0.66269,11.042348 1.16894,13.521243 1.01695,4.97958 0.15239,12.27212 -1.40033,11.8119 -1.17252,-0.34754 -2.49015,6.6824 -1.76719,9.42848 0.2771,1.05251 1.09257,1.68423 1.81746,1.40793 1.89386,-0.72186 2.31936,1.44121 0.93193,4.73761 -0.73585,1.74833 -0.91883,4.36614 -0.47403,6.78219 0.84809,4.6067 -0.54971,6.33813 -1.53168,1.89728 -1.14024,-5.15665 -2.10758,-3.32185 -2.10758,3.99756 0,3.85606 0.36033,7.01102 0.80074,7.01102 0.44041,0 0.80074,2.00158 0.80074,4.44796 0,2.44639 0.42821,4.71084 0.95157,5.03213 0.52337,0.32129 0.70285,2.60143 0.39886,5.06698 -0.39108,3.17182 -0.19092,4.48282 0.6844,4.48282 0.9743,0 0.97289,0.31625 -0.007,1.48857 -1.21155,1.45004 -1.00821,5.58837 0.50511,10.27992 0.54239,1.68151 0.32824,2.25354 -0.84369,2.25354 -2.20067,0 -3.23665,2.05074 -1.56673,3.10137 1.16162,0.73081 1.14972,0.87677 -0.0725,0.88959 -1.0711,0.0113 -1.16285,0.31256 -0.3431,1.12681 0.79354,0.78822 0.81636,1.97374 0.0785,4.07627 -0.57228,1.63063 -0.81486,4.9533 -0.53907,7.3837 0.27578,2.43041 0.15188,4.20434 -0.27531,3.94208 -0.42721,-0.26225 -1.01723,0.1456 -1.31114,0.9064 -0.36424,0.94283 0.0395,1.23418 1.26798,0.91508 1.21024,-0.31436 1.98262,0.21647 2.35101,1.61572 0.30175,1.14614 0.17,2.08389 -0.29276,2.08389 -1.00785,0 -1.90748,7.24207 -2.42614,19.53069 -0.20926,4.95779 -0.69367,9.98715 -1.07648,11.17637 -0.7641,2.37375 0.47301,3.0204 6.17979,3.23026 2.32293,0.0855 3.2931,-0.39127 3.66406,-1.80035 z m -3.29438,-38.14641 c 0,-0.55086 0.45376,-1.00157 1.00834,-1.00157 0.55459,0 1.00834,0.45071 1.00834,1.00157 0,0.55087 -0.45375,1.00158 -1.00834,1.00158 -0.55458,0 -1.00834,-0.45071 -1.00834,-1.00158 z m 2.09629,-32.6346 c 0.0484,-1.16678 0.28731,-1.40411 0.6092,-0.60512 0.29128,0.72301 0.25545,1.58686 -0.0796,1.91969 -0.33506,0.33281 -0.57338,-0.25875 -0.5296,-1.31457 z m -4.03336,-16.02518 c 0.0484,-1.16678 0.28732,-1.4041 0.6092,-0.60512 0.29129,0.72301 0.25546,1.58687 -0.0796,1.91969 -0.33506,0.33281 -0.57339,-0.25875 -0.5296,-1.31457 z m 183.24906,-27.14242 c 0.72789,-0.28933 1.59759,-0.25374 1.93264,0.079 0.33508,0.33283 -0.26059,0.56954 -1.32345,0.52605 -1.17465,-0.0481 -1.41356,-0.28539 -0.60919,-0.60511 z m -13.84264,-22.2998 c -1.03408,-0.63481 -0.82661,-1.00289 0.86604,-1.53652 2.69769,-0.85046 3.61417,-0.20103 1.8124,1.2843 -0.75702,0.62405 -1.89776,0.73147 -2.67844,0.25221 z m -99.78725,-64.523269 -2.24485,-2.373503 2.16881,-0.563357 c 1.19287,-0.309831 1.92606,-0.322194 1.62929,-0.02754 -0.29683,0.294745 -0.12604,1.61634 0.37948,2.936861 1.14674,2.995882 0.87839,2.999691 -1.93273,0.02754 z m 46.26023,176.529079 c 0,-0.55086 -0.45375,-0.72302 -1.00834,-0.38256 -0.55458,0.34045 -1.00833,1.06971 -1.00833,1.62057 0,0.55087 0.45375,0.72303 1.00833,0.38257 0.55459,-0.34045 1.00834,-1.06971 1.00834,-1.62058 z M 394.9212,212.139 c 0.52721,-1.57485 -4.60256,-2.86556 -5.97418,-1.50316 -0.57655,0.57271 -0.78512,1.46428 -0.46346,1.98126 0.83831,1.34729 5.95374,0.96738 6.43764,-0.4781 z m -262.91302,-3.29205 c 0,-0.55087 -0.45375,-1.00158 -1.00834,-1.00158 -0.55458,0 -1.00834,0.45071 -1.00834,1.00158 0,0.55086 0.45376,1.00157 1.00834,1.00157 0.55459,0 1.00834,-0.45071 1.00834,-1.00157 z m -18.1501,-4.31565 c 0,-2.42648 -2.65602,-5.05348 -4.42686,-4.3785 -1.577,0.60108 -1.57904,0.81893 -0.0299,3.16746 1.76482,2.67538 4.4567,3.40686 4.4567,1.21104 z m 141.14953,-81.85297 c -0.63459,-1.17778 -1.40857,-1.88836 -1.71995,-1.57905 -0.31139,0.3093 -0.0319,1.20188 0.62125,1.9835 0.65307,0.78162 1.11774,1.80662 1.03261,2.27775 -0.32275,1.78612 0.33833,2.78298 0.76893,1.15949 0.24802,-0.93515 -0.0683,-2.66391 -0.70284,-3.84169 z m 1.63233,-16.53931 c 0.35447,-1.40282 0.37407,-2.81917 0.0435,-3.14745 -0.9933,-0.98664 -3.67465,1.79896 -3.67465,3.81751 0,2.80475 2.88771,2.27185 3.63107,-0.67006 z M 242.92548,0.55108888 c 0,-0.53357665 0.68063,-0.71070997 1.51251,-0.39362963 0.83188,0.31708037 1.51251,0.75364302 1.51251,0.97013935 0,0.2164964 -0.68063,0.3936296 -1.51251,0.3936296 -0.83188,0 -1.51251,-0.4365627 -1.51251,-0.97013932 z"
       id="path170" />
  </g>
</svg>
