<?xml version="1.0" encoding="UTF-8" standalone="no"?>
<!-- Created with Inkscape (http://www.inkscape.org/) -->

<svg
   version="1.1"
   id="svg2"
   width="500"
   height="500"
   viewBox="0 0 500 500"
   sodipodi:docname="clock-7-6.svg"
   inkscape:version="1.2 (dc2aedaf03, 2022-05-15)"
   xmlns:inkscape="http://www.inkscape.org/namespaces/inkscape"
   xmlns:sodipodi="http://sodipodi.sourceforge.net/DTD/sodipodi-0.dtd"
   xmlns="http://www.w3.org/2000/svg"
   xmlns:svg="http://www.w3.org/2000/svg">
  <defs
     id="defs6" />
  <sodipodi:namedview
     id="namedview4"
     pagecolor="#ffffff"
     bordercolor="#000000"
     borderopacity="0.25"
     inkscape:showpageshadow="2"
     inkscape:pageopacity="0.0"
     inkscape:pagecheckerboard="0"
     inkscape:deskcolor="#d1d1d1"
     showgrid="false"
     inkscape:zoom="2"
     inkscape:cx="238.75"
     inkscape:cy="200.5"
     inkscape:window-width="1920"
     inkscape:window-height="1017"
     inkscape:window-x="-8"
     inkscape:window-y="-8"
     inkscape:window-maximized="1"
     inkscape:current-layer="g8" />
  <g
     inkscape:groupmode="layer"
     inkscape:label="Image"
     id="g8">
    <circle
       style="fill:#ad1d1c;stroke-width:0.945611"
       id="path175"
       cx="250"
       cy="250"
       r="13" />
    <path
       style="fill:#ad1d1c;stroke-width:0.985726"
       id="path231"
       sodipodi:type="arc"
       sodipodi:cx="250"
       sodipodi:cy="250"
       sodipodi:rx="245"
       sodipodi:ry="245"
       sodipodi:start="4.712389"
       sodipodi:end="3.8138935"
       sodipodi:arc-type="slice"
       d="M 250,5 A 245,245 0 0 1 488.8451,195.42878 245,245 0 0 1 356.40057,470.68964 245,245 0 0 1 58.554162,402.88391 245,245 0 0 1 58.314254,97.41699 L 250,250 Z" />
    <path
       style="fill:#000000"
       d="m 236,499.30449 c -2.475,-0.23691 -4.9275,-0.85234 -5.45,-1.36762 C 230.0275,497.42159 227.29,497 224.46667,497 c -2.82334,0 -5.4661,-0.33276 -5.8728,-0.73946 -0.40671,-0.40671 -3.51921,-0.59818 -6.91667,-0.42549 -3.39746,0.17269 -7.5272,-0.20653 -9.1772,-0.8427 -1.65,-0.63618 -4.62149,-1.27687 -6.6033,-1.42376 -1.98182,-0.14689 -6.54664,-1.0638 -10.14404,-2.03757 -5.02018,-1.3589 -6.79884,-2.33696 -7.65096,-4.20715 -0.61061,-1.34015 -1.52019,-2.18326 -2.02128,-1.87357 -0.50109,0.30969 -2.37662,-0.6701 -4.16785,-2.17732 -2.15505,-1.81335 -3.39569,-2.32363 -3.66743,-1.5084 -0.57417,1.72251 -5.00037,0.48203 -8.95192,-2.50886 -1.76373,-1.33494 -3.72481,-2.10702 -4.35795,-1.71572 -2.05922,1.27268 -17.60668,-4.32099 -17.30776,-6.22698 0.18981,-1.21027 -4.99079,-3.17793 -5.987,-2.27395 -0.87807,0.79677 -8.60312,-3.3224 -14.32379,-7.63777 -1.7508,-1.32072 -3.43983,-2.4013 -3.75339,-2.4013 -1.33782,0 -17.533153,-14.32956 -18.055542,-15.97546 -0.315715,-0.99473 -1.346623,-2.09358 -2.290907,-2.44189 -3.533582,-1.30341 -10.669259,-5.46685 -9.466881,-5.52362 2.42195,-0.11437 1.215619,-3.02846 -1.5,-3.6235 -4.8173,-1.05556 -5.291001,-1.34489 -6.95837,-4.25011 -0.899403,-1.56712 -2.795457,-3.3884 -4.213454,-4.04728 C 68.312613,421.8531 61,413.00121 61,410.93854 c 0,-0.68568 -1.77924,-2.76965 -3.953866,-4.63105 -2.442958,-2.09108 -3.739545,-3.94287 -3.393012,-4.84592 C 53.961593,400.6577 53.731491,400 53.141785,400 51.011301,400 45.163103,393.87842 43.099482,389.48825 41.939132,387.01971 40.622312,385 40.173216,385 c -0.449096,0 -2.736712,-3.35603 -5.083591,-7.45785 -3.456782,-6.04167 -4.140174,-8.03552 -3.598884,-10.5 C 31.894111,365.20562 31.755039,364 31.139821,364 c -0.5605,0 -1.158755,-1.6875 -1.329456,-3.75 -0.226622,-2.73818 -0.750993,-3.71778 -1.943409,-3.6306 -1.531974,0.112 -2.247668,-1.45422 -4.738359,-10.3694 -0.345728,-1.2375 -1.026435,-2.22054 -1.512681,-2.18453 -1.550676,0.11482 -8.996544,-16.21219 -7.745976,-16.98509 1.372274,-0.84811 -0.749102,-6.06038 -2.471519,-6.07258 -1.246472,-0.009 -4.7317543,-11.95109 -4.7317543,-16.21327 0,-1.53699 -0.3264588,-2.79453 -0.7254639,-2.79453 -0.6879071,0 -2.5753099,-19.48824 -2.0733236,-21.40795 0.8269979,-3.16263 0.066091,-9.35568 -1.6902461,-13.75697 -0.8426204,-2.11157 -0.7638265,-2.77989 0.3794645,-3.21862 1.8920352,-0.72604 1.839768,-3.0422 -0.105075,-4.65628 C 0.89308721,257.66638 0.82712915,256.71545 1.0328741,238.5 1.0763602,234.65 1.5367533,231.0725 2.0559699,230.55 2.5751864,230.0275 3,227.29 3,224.46667 c 0,-2.82334 0.2945723,-5.42791 0.6546052,-5.78794 0.3600328,-0.36003 0.7421279,-4.14753 0.8491,-8.41667 0.2007146,-8.01028 1.2303426,-14.28906 4.0842354,-24.9061 1.2514518,-4.65565 2.2418164,-6.41299 4.0881864,-7.25426 1.340157,-0.61061 2.183266,-1.52019 1.873574,-2.02128 -0.309691,-0.50109 0.638826,-2.33945 2.107815,-4.08525 2.005278,-2.38313 2.35409,-3.36996 1.399675,-3.95982 -1.562639,-0.96577 -0.618057,-4.35772 2.320282,-8.33204 1.152954,-1.55945 2.166805,-4.26816 2.253,-6.01934 0.198098,-4.02462 2.953483,-13.47774 4.456273,-15.28849 0.626927,-0.7554 1.53888,-1.12686 2.026561,-0.82545 C 29.600988,137.87143 30,137.28148 30,136.25902 c 0,-1.02246 0.48921,-2.34823 1.087132,-2.94615 0.747655,-0.74766 0.761558,-1.28835 0.04452,-1.7315 -1.070899,-0.66186 2.836196,-8.12576 7.46705,-14.26465 C 39.919417,115.56592 41,113.85871 41,113.52292 41,112.38585 51.137669,100.527 55.979656,96 c 2.647211,-2.475 5.49817,-6.154934 6.335463,-8.177631 1.209906,-2.922838 1.940203,-3.568362 3.558269,-3.145228 1.613355,0.421902 2.16644,-0.06011 2.664786,-2.322368 1.092243,-4.958257 1.360558,-5.389998 4.438143,-7.14132 1.656071,-0.942399 3.013883,-2.220448 3.01736,-2.840108 0.0108,-1.925366 10.395756,-11.366968 12.506323,-11.370273 1.1,-0.0017 3.256684,-1.578118 4.792632,-3.503101 1.535947,-1.924984 3.560947,-3.527468 4.5,-3.561075 0.939052,-0.03361 3.057368,-1.913716 4.707368,-4.17802 1.65,-2.264303 4.83967,-5.049306 7.08816,-6.188896 2.24849,-1.139589 4.85895,-2.850295 5.80102,-3.80157 0.94207,-0.951274 4.61108,-3.350368 8.15335,-5.331319 5.06228,-2.830986 7.08429,-3.460329 9.44898,-2.940955 C 134.80034,31.895421 136,31.75254 136,31.139821 c 0,-0.5605 1.6875,-1.158755 3.75,-1.329456 2.85354,-0.23617 3.7168,-0.728715 3.61111,-2.060365 -0.0828,-1.043011 0.55688,-1.75 1.58333,-1.75 0.94723,0 2.05644,-0.334216 2.46493,-0.742703 0.40849,-0.408487 2.62099,-1.209932 4.91667,-1.78099 2.29568,-0.571057 4.07647,-1.541823 3.95731,-2.157258 -0.11916,-0.615434 0.97839,-1.418909 2.439,-1.7855 1.46061,-0.36659 3.92242,-1.568539 5.47068,-2.670998 3.48038,-2.478249 8.5815,-4.038971 9.00903,-2.756374 0.41218,1.23653 5.77998,-1.273723 5.79014,-2.707756 0.009,-1.203285 11.57667,-4.6404199 16.15306,-4.7994048 1.5676,-0.054459 2.85121,-0.3827632 2.85246,-0.7295651 0.002,-0.5868663 20.54124,-2.4593524 22.29698,-2.0327448 3.01874,0.7334885 8.71454,-7.453e-4 12.87022,-1.6590732 2.11157,-0.8426204 2.77989,-0.7638265 3.21862,0.3794645 0.71873,1.872982 3.03711,1.8458988 4.6138,-0.053898 0.86134,-1.0378478 3.27521,-1.51879047 7.87245,-1.56851713 C 262.11041,0.7914634 268.51927,1.1424255 269.45,2.0616959 269.9725,2.5777631 272.71,3 275.53333,3 c 2.82334,0 5.43075,0.2974168 5.79426,0.6609263 0.36351,0.3635094 3.92601,0.72529 7.91667,0.8039568 7.60504,0.1499164 15.111,1.36969 25.39978,4.1276518 4.65845,1.2487222 6.41249,2.2361101 7.25426,4.0835921 0.61061,1.340157 1.52019,2.183266 2.02128,1.873574 0.50109,-0.309691 2.25164,0.564934 3.8901,1.943612 3.43862,2.893403 4.19032,3.077839 4.19032,1.028126 0,-1.228818 0.4645,-1.281723 2.75,-0.313214 1.5125,0.640941 4.21515,2.231214 6.00588,3.533941 1.79074,1.302727 3.75182,2.062094 4.35795,1.687484 0.60613,-0.374611 3.64098,0.108715 6.74411,1.074058 C 360.84407,26.299171 362,26.866177 362,28.478561 362,29.315353 362.81,30 363.8,30 c 0.99,0 2.28921,0.48921 2.88713,1.087132 0.74766,0.747655 1.28835,0.761558 1.7315,0.04452 0.62915,-1.017977 7.41109,2.471414 14.06063,7.234359 1.63859,1.173693 3.72777,2.583988 4.64263,3.133988 4.29779,2.583776 16.11516,12.926171 17.00756,14.884777 0.97483,2.139516 1.95,2.817844 8.54818,5.946135 2.38256,1.129605 3.04927,1.997403 2.66463,3.468294 -0.41902,1.602317 0.18969,2.127654 3.32237,2.867339 2.66821,0.630016 4.444,1.87193 5.83537,4.08101 1.1,1.746473 2.51527,3.192739 3.14504,3.213925 0.62977,0.02119 2.06103,1.05102 3.18057,2.28852 5.50103,6.080623 8.17439,9.639478 8.17442,10.882015 2e-5,0.752392 1.57502,2.624669 3.5,4.160617 1.92498,1.535947 3.52747,3.560947 3.56107,4.5 0.0336,0.939052 1.91372,3.057369 4.17802,4.707369 2.26431,1.65 5.04931,4.83967 6.1889,7.08816 1.13959,2.24849 2.8503,4.85895 3.80157,5.80102 0.95127,0.94207 3.33877,4.59034 5.30555,8.10727 3.01688,5.39468 3.46746,6.97275 2.882,10.09354 -0.47642,2.53956 -0.35642,3.49051 0.38284,3.03363 0.67986,-0.42018 1.19166,0.72457 1.38841,3.10544 0.21045,2.54679 0.79855,3.77094 1.81161,3.77094 1.71286,0 3.3705,3.30155 4.38709,8.73785 0.39161,2.09418 1.52378,4.17926 2.57466,4.74168 1.03163,0.55211 2.17188,2.35242 2.5339,4.00069 0.36202,1.64826 1.11952,3.28194 1.68332,3.63039 1.82674,1.12898 4.0791,7.61186 2.89818,8.34171 -1.32003,0.81582 0.85849,6.02808 2.52443,6.03988 1.24647,0.009 4.73175,11.95109 4.73175,16.21327 0,1.53699 0.32646,2.79453 0.72547,2.79453 0.6879,0 2.57531,19.48824 2.07332,21.40795 -0.827,3.16263 -0.0661,9.35568 1.69025,13.75697 0.84262,2.11157 0.76382,2.77989 -0.37947,3.21862 -1.89203,0.72604 -1.83977,3.0422 0.10508,4.65628 1.55893,1.2938 1.62489,2.24473 1.41915,20.46018 -0.0435,3.85 -0.50388,7.4275 -1.0231,7.95 -0.51922,0.5225 -0.94403,3.26 -0.94403,6.08333 0,2.82334 -0.33276,5.4661 -0.73946,5.8728 -0.40671,0.40671 -0.59818,3.51921 -0.42549,6.91667 0.17269,3.39746 -0.20653,7.5272 -0.8427,9.1772 -0.63618,1.65 -1.27687,4.62149 -1.42376,6.6033 -0.14689,1.98182 -1.0638,6.54664 -2.03757,10.14404 -1.3589,5.02018 -2.33696,6.79884 -4.20715,7.65096 -1.34015,0.61061 -2.18326,1.52019 -1.87357,2.02128 0.30969,0.50109 -0.63883,2.33945 -2.10782,4.08525 -2.11295,2.5111 -2.38734,3.34941 -1.31354,4.01306 1.48596,0.91837 0.52208,3.95465 -2.85141,8.98211 -0.92264,1.375 -1.74757,3.85 -1.83318,5.5 -0.20013,3.85741 -2.96502,13.33801 -4.3909,15.05609 -0.60482,0.72877 -1.74688,1.07667 -2.5379,0.77313 -1.0092,-0.38727 -1.25232,-0.0674 -0.81501,1.07217 0.34276,0.89325 0.10102,2.25329 -0.53722,3.02232 -0.75498,0.90969 -0.80962,1.61505 -0.1564,2.01876 1.02764,0.63512 -2.98419,8.24697 -7.50562,14.24081 -1.32072,1.7508 -2.4013,3.45801 -2.4013,3.7938 0,1.05524 -10.00539,12.81411 -15.07275,17.71429 -2.66828,2.58025 -5.50691,6.26018 -6.30807,8.17763 -1.14709,2.74538 -1.88932,3.37312 -3.49257,2.95386 -1.61335,-0.4219 -2.16644,0.0601 -2.66478,2.32237 -1.09225,4.95825 -1.36056,5.38999 -4.43815,7.14132 -1.65607,0.9424 -3.01388,2.22044 -3.01736,2.84011 -0.0108,1.92536 -10.39575,11.36696 -12.50632,11.37027 -1.1,0.002 -3.25668,1.57812 -4.79263,3.5031 -1.53595,1.92498 -3.56095,3.52747 -4.5,3.56107 -0.93905,0.0336 -3.05737,1.91372 -4.70737,4.17802 -1.65,2.26431 -4.83967,5.04931 -7.08816,6.1889 -2.24849,1.13959 -4.85895,2.8503 -5.80102,3.80157 -0.94207,0.95127 -4.61108,3.35037 -8.15335,5.33132 -5.06228,2.83098 -7.08429,3.46033 -9.44898,2.94095 -1.80883,-0.39728 -3.00849,-0.2544 -3.00849,0.35832 0,0.5605 -1.6875,1.15875 -3.75,1.32945 -2.85354,0.23618 -3.7168,0.72872 -3.61111,2.06037 0.0828,1.04301 -0.55688,1.75 -1.58333,1.75 -0.94723,0 -2.05644,0.33422 -2.46493,0.7427 -0.40849,0.40849 -2.62099,1.20994 -4.91667,1.78099 -2.29568,0.57106 -4.07647,1.54183 -3.95731,2.15726 0.11916,0.61544 -0.97839,1.41891 -2.439,1.7855 -1.46061,0.36659 -3.86184,1.5254 -5.33605,2.57513 -4.00115,2.84907 -8.14696,4.24418 -8.91576,3.00024 -0.79419,-1.28503 -6.00651,0.93202 -6.01804,2.55976 -0.008,1.16726 -10.45307,4.32179 -15.5078,4.68365 -1.65,0.11813 -3.225,0.49078 -3.5,0.82813 -0.76424,0.9375 -21.49977,2.48339 -24.15923,1.80113 -1.28743,-0.33027 -3.12827,-0.20531 -4.09077,0.27769 -1.03995,0.52187 -1.75,0.50191 -1.75,-0.0492 0,-0.51006 -1.66973,-0.0761 -3.71051,0.96435 -3.23797,1.65081 -3.81739,1.70076 -4.54969,0.3922 -1.08263,-1.93456 -3.15144,-1.91339 -4.78,0.0489 -0.88945,1.07172 -2.85132,1.50102 -6.37244,1.39444 -2.79805,-0.0847 -6.66236,0.0589 -8.58736,0.31918 -1.925,0.26025 -5.525,0.27935 -8,0.0424 z m 31.49686,-10.88934 c 2.51688,-4.29474 4.30651,-5.95108 3.13699,-2.90336 -0.49244,1.28327 -0.0929,1.25553 2.64301,-0.18347 2.16516,-1.13879 5.50605,-1.68173 10.17806,-1.65406 5.22128,0.0309 7.34005,-0.37131 8.5,-1.61367 0.84979,-0.91017 1.15248,-1.07114 0.67264,-0.35772 -1.57949,2.34834 2.3177,1.44278 4.89878,-1.1383 1.37697,-1.37698 2.70129,-2.00527 3.04715,-1.44567 0.37693,0.60989 1.52218,0.39321 2.98393,-0.56456 1.30472,-0.85489 2.72555,-1.54433 3.1574,-1.5321 1.19409,0.0338 -4.0522,3.93003 -5.32615,3.95552 C 299.9578,481.00639 300.86064,486 302.29669,486 303.52713,486 312,477.14683 312,475.86116 c 0,-1.45445 7.49849,-0.95331 9.55887,0.63884 1.87984,1.45264 1.88301,1.54504 0.10043,2.92656 -1.8037,1.39789 -1.5897,5.57344 0.28564,5.57344 1.53231,0 3.22123,-2.77927 2.10729,-3.46772 -0.69833,-0.43159 -0.56182,-1.57994 0.41155,-3.46225 0.80105,-1.54905 1.1744,-3.09851 0.82967,-3.44325 -0.34473,-0.34473 -0.0107,-0.62678 0.74228,-0.62678 0.75298,0 2.85298,-1.43828 4.66666,-3.19617 1.81369,-1.75789 3.29761,-2.64206 3.29761,-1.96481 0,0.93973 0.49571,0.96605 2.09314,0.11113 1.15123,-0.61612 3.12931,-0.86015 4.39574,-0.5423 1.46541,0.3678 2.49431,0.0783 2.82988,-0.79613 0.82164,-2.14117 -1.82656,-8.73185 -4.24002,-10.55233 -1.43659,-1.08362 -1.95175,-2.22676 -1.51564,-3.36322 0.36336,-0.9469 0.14153,-2.34715 -0.49296,-3.11166 -0.87703,-1.05675 -0.85862,-1.48835 0.0768,-1.80016 0.79336,-0.26445 -0.0833,-2.1307 -2.46816,-5.25401 -2.03422,-2.66413 -3.44466,-5.0978 -3.13431,-5.40815 0.31035,-0.31035 1.01929,0.0977 1.57541,0.90677 0.75043,1.09176 0.83378,0.84628 0.32329,-0.95209 -0.37831,-1.33271 -1.56261,-3.35771 -2.63177,-4.5 -1.06917,-1.14228 -2.85082,-3.53937 -3.95923,-5.32687 C 325.74376,426.4625 324.2701,425 323.57737,425 322.03398,425 317,415.99107 317,413.22898 c 0,-1.1002 -0.6692,-3.2893 -1.4871,-4.86467 -0.81791,-1.57537 -1.23996,-3.64432 -0.9379,-4.59766 0.33442,-1.05547 -0.41501,-2.69757 -1.91631,-4.19886 -1.47186,-1.47187 -2.00309,-2.61966 -1.31813,-2.84798 1.25839,-0.41946 -2.6535,-8.90471 -5.00499,-10.85627 C 305.60101,385.2539 305,384.20496 305,383.53254 c 0,-0.67241 -0.94607,-2.07875 -2.10238,-3.12519 -3.3559,-3.03705 -4.6872,-6.53229 -4.59969,-12.07624 C 298.38464,362.83735 296.91562,360 293.98454,360 292.14166,360 291,358.10768 291,355.05307 c 0,-0.98084 -0.9,-2.92752 -2,-4.32594 -2.64005,-3.35628 -2.52805,-4.11923 0.32983,-2.24668 3.39291,2.22313 3.85021,0.87367 1.08484,-3.20133 C 289.0866,343.3221 288,341.1087 288,340.36045 288,339.6122 287.34611,339 286.54692,339 c -0.7992,0 -2.20786,-1.59057 -3.13037,-3.53461 -0.9225,-1.94403 -2.60396,-4.18368 -3.73658,-4.97699 -1.13262,-0.79332 -1.74971,-1.752 -1.37131,-2.13039 0.78099,-0.78099 -3.55465,-8.7268 -6.59075,-12.07869 -1.40595,-1.5522 -1.71529,-2.6058 -1.02758,-3.5 1.0804,-1.40484 -0.85691,-6.2794 -2.02959,-5.10673 -0.36341,0.36341 -0.66242,-0.87676 -0.66448,-2.75592 -0.002,-1.87917 -0.89084,-4.8716 -1.97507,-6.64985 -1.15423,-1.89305 -1.69681,-3.96551 -1.30903,-5 0.56735,-1.51351 0.43316,-1.58064 -0.9359,-0.46826 -1.91602,1.55679 -2.05941,1.34476 -4.25057,-6.28536 -0.94558,-3.29274 -2.44321,-7.34274 -3.32807,-9 -0.88485,-1.65726 -1.51213,-3.36322 -1.39395,-3.79103 0.33559,-1.21477 -2.57306,-1.99813 -5.05591,-1.36165 -2.83651,0.72713 -6.34372,6.34824 -12.12315,19.43012 -2.50046,5.65985 -5.51455,11.65042 -6.69797,13.31239 -1.51813,2.13201 -1.98198,3.87026 -1.57534,5.90346 0.45917,2.29587 0.16861,3.01111 -1.42927,3.51826 -1.44334,0.4581 -1.83141,1.18541 -1.38423,2.59433 0.40254,1.26831 -0.43455,3.61705 -2.37697,6.66935 -1.64909,2.59136 -3.79325,6.39907 -4.7648,8.46157 -0.97155,2.0625 -2.24561,3.75103 -2.83124,3.75228 -0.58564,0.001 -1.1138,1.37286 -1.1737,3.04802 -0.11637,3.25447 -4.68872,8.9497 -7.18517,8.9497 -0.78094,0 -1.19178,0.59446 -0.91297,1.32103 1.16523,3.03655 -3.62399,16.0185 -8.42353,22.83334 C 196.84154,375.03373 196.40037,378 198,378 c 1.76256,0 1.07328,2.02758 -1.5,4.41242 -1.375,1.27431 -2.5,3.00467 -2.5,3.84526 0,0.84059 -0.66741,1.78445 -1.48314,2.09748 -0.84393,0.32384 -1.22881,1.23192 -0.89301,2.10699 0.36938,0.96259 0.029,1.53785 -0.90987,1.53785 -2.01176,0 -2.95447,2.69374 -1.18088,3.37433 1.09377,0.41972 0.61551,1.94013 -2.14929,6.83276 -1.95585,3.4611 -3.92215,6.74291 -4.36956,7.29291 -0.4474,0.55 -2.2872,3.925 -4.08844,7.5 -1.80124,3.575 -4.09642,7.08802 -5.1004,7.8067 C 171.62073,426.38491 171.41779,429 173.5,429 c 2.10035,0 1.86742,1.28945 -0.5,2.76793 -1.3911,0.86875 -2,2.33202 -2,4.80629 0,1.95649 -0.53073,4.54018 -1.17941,5.74152 -0.64867,1.20134 -1.08884,3.5835 -0.97814,5.29368 0.11516,1.77912 -0.44982,3.64977 -1.32059,4.37244 -1.22719,1.01848 -1.52186,1.01607 -1.52186,-0.0124 0,-0.7015 -0.9,-0.23775 -2,1.03056 -2.01841,2.32725 -2.38983,3.38639 -2.0516,5.85035 0.10195,0.7427 -0.25942,1.07547 -0.80303,0.73949 -0.54362,-0.33597 -1.68632,0.78816 -2.53934,2.49806 -1.42097,2.84841 -1.4066,3.30754 0.17152,5.47909 1.71656,2.36205 4.21454,3.10758 5.63912,1.68301 0.92903,-0.92904 2.91364,-1.03142 3.58333,-0.18486 0.275,0.34764 3.05449,0.92524 6.17665,1.28358 4.89401,0.56168 5.73971,0.41022 6.134,-1.0986 0.35318,-1.35152 0.48377,-1.25111 0.57335,0.44086 0.15108,2.85348 1.58296,3.66466 4.09533,2.32008 1.56924,-0.83983 2.02067,-0.77621 2.02067,0.28478 0,2.22065 4.82577,4.14945 10.0929,4.034 5.26654,-0.11544 5.84277,0.26549 3.25924,2.15462 -1.49087,1.09015 -1.44674,1.25754 0.46323,1.75701 1.1611,0.30363 2.59035,-0.0254 3.17611,-0.7312 0.81683,-0.98422 2.04883,-1.04257 5.28677,-0.25036 2.32196,0.5681 4.79269,1.47913 5.49051,2.02451 0.8764,0.68496 1.81294,0.49912 3.0285,-0.60094 0.96786,-0.87591 2.64692,-1.61416 3.73124,-1.64056 1.08433,-0.0264 3.86196,-0.31703 6.17252,-0.64583 l 4.20102,-0.59782 -1.1567,3.06444 c -2.16745,5.74224 2.59077,12.13228 5.78314,7.76646 0.78922,-1.07933 3.53064,-1.79195 8.56609,-2.22674 4.07299,-0.35169 8.41793,-1.2717 9.65543,-2.04448 2.2387,-1.398 2.8737,-0.81322 2.29444,2.11299 -0.10582,0.53456 0.74089,0.12732 1.88158,-0.90499 1.84046,-1.66559 2.07398,-1.69058 2.07398,-0.22194 0,0.91025 0.45,1.65499 1,1.65499 0.55,0 1,-0.9 1,-2 0,-1.1 0.42659,-2 0.94798,-2 0.57654,0 0.61011,1.07751 0.0857,2.75 -0.47427,1.5125 -1.12558,4.26737 -1.44736,6.12194 -0.4981,2.8708 -0.36895,3.19258 0.86904,2.16514 0.79975,-0.66373 2.61844,-3.1936 4.04154,-5.62193 z M 266,485.05902 c 0,-1.06754 0.38499,-2.17893 0.85554,-2.46974 0.47055,-0.29082 0.64309,0.58263 0.38343,1.94098 C 266.67495,487.48072 266,487.76877 266,485.05902 Z m -71.80569,-11.53189 c -1.27402,-2.79618 -0.15797,-3.3932 1.84086,-0.98475 0.84016,1.01233 0.94165,1.8808 0.29532,2.52713 -0.64632,0.64632 -1.38045,0.11627 -2.13618,-1.54238 z m 86.3484,-136.45803 c -0.31644,-0.512 -0.11799,-1.21356 0.44098,-1.55902 0.55897,-0.34546 1.01631,0.0734 1.01631,0.9309 0,1.75653 -0.60006,2.01516 -1.45729,0.62812 z M 270.5,325 c -0.33992,-0.55 -0.14148,-1 0.44098,-1 0.58246,0 1.05902,0.45 1.05902,1 0,0.55 -0.19844,1 -0.44098,1 -0.24254,0 -0.7191,-0.45 -1.05902,-1 z M 137,464.44098 c 0,-1.45136 -0.43284,-2.2915 -1,-1.94098 -0.55,0.33992 -1,1.49148 -1,2.55902 0,1.06754 0.45,1.94098 1,1.94098 0.55,0 1,-1.15156 1,-2.55902 z m 4.72193,-11.77459 c 0.76961,-0.45848 1.3222,-1.80848 1.22799,-3 -0.2946,-3.72567 0.004,-4.66639 1.48269,-4.66639 0.78794,0 1.72034,-0.90653 2.072,-2.01452 0.35166,-1.10799 1.03598,-1.76941 1.52072,-1.46983 0.48473,0.29959 1.37455,-1.38138 1.97737,-3.73548 1.61096,-6.29097 1.82921,-6.78017 3.02493,-6.78017 0.60618,0 0.75691,0.5551 0.33943,1.25 -0.54949,0.91463 -0.31505,0.89673 0.87381,-0.0667 0.89363,-0.72418 1.60825,-2.07418 1.58805,-3 -0.0202,-0.92581 0.64645,-4.15119 1.48144,-7.16751 0.835,-3.01632 1.28382,-5.8634 0.9974,-6.32685 -0.87687,-1.41879 2.80204,-10.05013 5.31905,-12.47941 1.30525,-1.25976 2.37319,-2.62197 2.37319,-3.02714 0,-0.40517 1.35,-2.21473 3,-4.02125 1.65,-1.80652 3,-3.86206 3,-4.56787 0,-0.70581 0.90276,-2.10028 2.00613,-3.09882 1.10337,-0.99854 1.78228,-2.03938 1.50868,-2.31298 -0.2736,-0.2736 -0.10591,-0.98886 0.37265,-1.58946 0.47856,-0.60061 1.86228,-4.24201 3.07493,-8.09201 3.17481,-10.07957 4.80067,-13.47827 6.78613,-14.18569 C 189.59671,360.9432 194.07515,353 191,353 c -1.79645,0 -1.05201,-2.60251 1.4046,-4.91037 1.32252,-1.24245 2.69292,-3.79589 3.04531,-5.67432 0.78841,-4.20257 2.37406,-4.57602 1.7634,-0.41531 -0.63518,4.32776 1.26264,3.69248 2.633,-0.88137 0.63959,-2.13476 1.84137,-4.44446 2.67062,-5.13268 1.04857,-0.87024 1.20002,-1.62208 0.4973,-2.4688 -0.69565,-0.83821 -0.52301,-2.19455 0.55417,-4.35381 0.86053,-1.72497 1.60271,-4.4769 1.6493,-6.11539 0.0466,-1.6385 0.40086,-2.78369 0.78727,-2.54488 0.38642,0.23882 1.22179,-0.70534 1.85639,-2.09813 0.91237,-2.00243 0.89065,-2.38065 -0.10377,-1.8074 -0.69168,0.39873 -0.24509,-0.3891 0.99241,-1.75074 1.2375,-1.36164 2.25,-3.4224 2.25,-4.57946 0,-3.42154 1.08876,-5.26734 3.10699,-5.26734 1.64595,0 2.40638,-1.56992 2.03066,-4.19231 -0.0546,-0.38077 1.24757,-2.03906 2.8936,-3.68509 1.64603,-1.64604 3.26717,-4.3647 3.60252,-6.04147 0.3473,-1.73647 1.05425,-2.77394 1.64249,-2.41039 0.66398,0.41036 0.72011,0.13676 0.15718,-0.76623 C 223.00531,285.61365 222.91943,283 224.2723,283 c 1.42776,0 7.05556,-8.21028 8.22549,-12 0.42447,-1.375 1.20758,-2.78027 1.74024,-3.12283 0.61047,-0.3926 0.54765,-1.40912 -0.16997,-2.75 -1.65896,-3.0998 -9.58725,-2.81256 -23.36829,0.84663 -6.15988,1.6356 -12.77477,3.17155 -14.69977,3.41325 -4.70202,0.59035 -6.73395,1.47726 -7.40784,3.23339 -0.43047,1.12178 -1.01995,1.22098 -2.51158,0.42268 C 183.50093,271.66254 183,271.72513 183,273.42804 c 0,1.00472 -1.70451,1.59961 -5.75,2.00681 -3.1625,0.31832 -7.73717,1.04394 -10.16593,1.61249 -3.41794,0.80012 -4.60096,0.74208 -5.23468,-0.2568 -0.47201,-0.74398 -0.82525,-0.82913 -0.83408,-0.20106 -0.0431,3.06488 -12.53971,4.81349 -13.65368,1.91052 -0.69725,-1.81698 -2.34561,-1.9885 -2.40262,-0.25 -0.0625,1.90635 -8.63213,5.39484 -16.45901,6.70008 -11.26509,1.87861 -11.72428,2.02307 -11.15406,3.50903 0.70084,1.82636 -0.72869,2.21344 -7.59594,2.0568 -3.1625,-0.0721 -5.75,0.2045 -5.75,0.61473 0,0.41024 -1.22632,0.66117 -2.72515,0.55762 -1.776517,-0.12272 -2.733808,0.31024 -2.750005,1.24377 -0.01757,1.01241 -2.369086,1.80624 -8.024845,2.70903 -4.4,0.70235 -11.15,1.83948 -15,2.52696 -3.85,0.68748 -8.726061,1.11345 -10.83569,0.9466 -3.578549,-0.28303 -3.762907,-0.16737 -2.75,1.72527 1.573683,2.94045 1.37849,3.22193 -1.480492,2.13495 -2.110383,-0.80237 -3.148451,-0.53155 -5.844391,1.52475 -1.803015,1.37522 -4.4574,2.50041 -5.898634,2.50041 -1.59697,0 -3.038477,0.78114 -3.690793,2 -0.636316,1.18897 -2.093823,2 -3.594201,2 -1.388108,0 -2.27752,-0.39854 -1.976471,-0.88565 0.624246,-1.01005 -3.057247,-1.87197 -5.679328,-1.32965 -0.9625,0.19907 -1.756891,1.11645 -1.765313,2.03862 -0.01007,1.10211 -0.26783,1.27983 -0.752187,0.51863 C 30.414957,310.05713 23,309.92764 23,311.19819 23,311.63918 23.507253,312 24.127229,312 c 1.102087,0 0.799317,9.40679 -0.339421,10.54553 C 23.007317,323.32602 19.950517,321.88908 20.5,321 c 0.908381,-1.46979 -2.070384,-1.78731 -3.940277,-0.42001 -1.557394,1.13879 -1.646083,1.61103 -0.550489,2.93114 0.753138,0.90747 1.678981,1.20066 2.187068,0.69257 C 19.400297,322.9997 26,325.16058 26,326.75879 c 0,0.69817 1.4625,2.59987 3.25,4.22599 1.796028,1.63389 2.636001,2.96971 1.877555,2.98591 -1.089181,0.0233 -1.122523,0.33045 -0.161548,1.48835 0.721862,0.86979 0.951496,2.64008 0.568598,4.3834 -0.571335,2.60128 -0.304901,3.04198 2.411549,3.98894 1.957807,0.6825 3.053846,1.74543 3.053846,2.96161 0,1.04337 0.951643,2.75428 2.114763,3.80202 1.16312,1.04775 2.520578,2.9664 3.016573,4.26368 0.744042,1.94605 1.161223,2.1434 2.384624,1.12806 1.273038,-1.05652 1.394481,-0.78896 0.858427,1.89131 C 44.823375,360.63312 45.01411,361 46.997445,361 c 1.645232,0 1.989232,0.33494 1.283801,1.25 -0.530004,0.6875 -0.651883,2.15 -0.270844,3.25 0.38104,1.1 1.037063,3.0125 1.45783,4.25 0.420767,1.2375 1.157403,2.25 1.636968,2.25 1.215896,0 4.8948,3.25489 4.8948,4.33065 0,0.48739 -1.225281,0.57864 -2.722846,0.20278 -2.70068,-0.67783 -2.707559,-0.6665 -0.845013,1.39159 1.032809,1.14124 2.37059,2.08055 2.972847,2.08736 1.115767,0.0126 5.595012,6.2642 5.595012,7.80884 0,0.46709 1.959155,2.83649 4.353677,5.26532 2.394523,2.42883 4.684096,5.45711 5.08794,6.72951 0.403845,1.2724 1.48219,2.62182 2.396323,2.99871 0.914133,0.37688 5.173256,4.3419 9.464719,8.81115 7.200655,7.49897 7.677354,8.25122 6.178571,9.75 C 86.982447,422.8747 87.053116,423 89.397187,423 c 1.846974,0 2.382986,0.40929 1.964439,1.5 -0.648954,1.69115 1.168368,2.0695 2.168385,0.45144 0.443009,-0.7168 1.094462,-0.67806 2.059017,0.12245 1.854053,1.53872 1.782977,2.56938 -0.230472,3.34201 -1.372472,0.52667 -1.434339,0.38034 -0.377555,-0.89301 C 96.004231,426.28998 95.993795,426 94.926195,426 93.560387,426 86,430.88876 86,431.77192 c 0,0.51719 6.610887,-0.29122 11,-1.34512 1.954424,-0.46929 2.172654,-0.36647 1,0.47114 -1.324157,0.94583 -1.317801,1.07323 0.05422,1.08675 2.30828,0.0227 10.9045,5.7406 11.67014,7.76251 1.30563,3.44794 8.31547,7.73715 11.34851,6.94399 1.06252,-0.27785 2.27171,0.10212 2.68709,0.84437 0.41539,0.74225 1.87683,1.79688 3.24765,2.34361 1.8553,0.73996 2.02826,1.01026 0.67665,1.05744 -0.99866,0.0349 -2.66726,-0.39233 -3.70801,-0.94932 -1.51022,-0.80825 -2.11901,-0.58905 -3.01528,1.08564 -0.61766,1.1541 -0.87963,2.34174 -0.58216,2.63921 0.29746,0.29747 3.89366,0.50181 7.99155,0.4541 5.53435,-0.0644 7.77591,0.30508 8.71506,1.43669 1.12157,1.35141 1.37575,1.31869 2.25079,-0.28974 0.54254,-0.99726 1.61611,-2.18831 2.38572,-2.6468 z M 52.191677,369.06468 C 53.498599,366.97197 55,367.23625 55,369.55902 55,370.35156 54.096187,371 52.991526,371 c -1.735771,0 -1.844371,-0.26277 -0.799849,-1.93532 z M 201.07895,328.41667 c 0.048,-1.16495 0.28494,-1.4019 0.60416,-0.60417 0.28887,0.72187 0.25335,1.58438 -0.0789,1.91667 -0.3323,0.33229 -0.56864,-0.25834 -0.52522,-1.3125 z M 203.5,313 c -0.33992,-0.55 -0.14148,-1 0.44098,-1 0.58246,0 1.05902,0.45 1.05902,1 0,0.55 -0.19844,1 -0.44098,1 -0.24254,0 -0.7191,-0.45 -1.05902,-1 z M 362.33228,451.72862 C 363.20836,453.14615 372,450.56913 372,448.8948 372,447.73206 375.23379,444 376.24129,444 c 0.43825,0 0.4886,1.2375 0.11189,2.75 -0.63381,2.54476 -0.55225,2.64064 1.09281,1.28472 0.97775,-0.80591 2.09322,-2.31812 2.47881,-3.36047 0.38559,-1.04235 2.92275,-3.1145 5.63814,-4.60479 3.7517,-2.05905 5.01303,-3.35304 5.25348,-5.38953 0.17866,-1.51316 0.94057,-2.67993 1.75,-2.67993 0.78847,0 1.32108,-0.5625 1.18358,-1.25 -0.15242,-0.76212 1.10707,-1.37891 3.22695,-1.58029 2.37989,-0.22607 4.5369,-1.42167 6.83625,-3.78924 C 406.99531,422.10396 415.98395,417 418.57214,417 420.19168,417 423,412.56032 423,410 c 0,-1.82681 0.2603,-1.93106 2.21262,-0.88621 2.17621,1.16467 2.18551,1.14278 0.56525,-1.33006 -1.22868,-1.87519 -1.35897,-2.80263 -0.51263,-3.64897 1.55994,-1.55994 2.41009,-1.42322 3.15066,0.50668 0.52667,1.37248 0.38034,1.43434 -0.89301,0.37756 C 426.28323,403.99017 426,404.01368 426,405.14542 c 0,1.4967 4.69464,8.85458 5.64959,8.85458 0.62993,0 -0.44833,-8.31196 -1.39997,-10.79189 -0.36646,-0.95496 -0.17733,-1.28147 0.49985,-0.86295 0.65373,0.40403 1.57772,-0.80651 2.31061,-3.02721 0.67814,-2.05478 3.42464,-5.81305 6.17573,-8.45077 3.09677,-2.96915 4.67338,-5.20509 4.20482,-5.96324 -0.4652,-0.7527 -0.33061,-0.95398 0.35469,-0.53044 1.4479,0.89485 3.52412,-3.04397 2.88758,-5.47809 -0.27329,-1.04507 0.11041,-2.23999 0.85266,-2.65537 0.74225,-0.41539 1.79688,-1.87683 2.34361,-3.24765 0.73996,-1.8553 1.01026,-2.02826 1.05744,-0.67665 0.0349,0.99866 -0.37783,2.64016 -0.91709,3.64778 -0.7754,1.44886 -0.48344,2.15771 1.39587,3.38908 2.3364,1.53087 2.38343,1.49633 2.79805,-2.05519 0.23194,-1.98672 0.123,-5.58053 -0.2421,-7.98624 -0.62112,-4.09277 -0.44261,-4.56822 2.77644,-7.39458 3.85008,-3.38041 5.75222,-3.36315 5.75222,0.0522 0,1.42962 0.80788,2.59289 2.14688,3.09131 1.7759,0.66106 2.22713,0.37932 2.61132,-1.63048 0.48852,-2.55552 -0.19525,-3.09258 -1.84148,-1.44635 -0.64436,0.64436 -1.05836,0.076 -1.20112,-1.64889 -0.11981,-1.44769 -0.66343,-3.16907 -1.20804,-3.82529 -0.54462,-0.65621 -0.67947,-1.50385 -0.29969,-1.88364 0.37979,-0.37979 0.56112,-2.81338 0.40296,-5.40799 -0.15817,-2.59461 0.0506,-4.38159 0.46387,-3.97106 0.4133,0.41052 1.57145,-0.60198 2.57368,-2.25 1.00222,-1.64802 2.27884,-2.9964 2.83692,-2.9964 1.1448,0 1.38585,-3.29551 0.31909,-4.36228 C 468.22358,334.55691 468.07182,332 469.08848,332 469.58982,332 470,330.39542 470,328.43426 c 0,-1.96116 0.46969,-4.44337 1.04377,-5.51604 0.86403,-1.61445 0.64878,-2.10881 -1.25,-2.87087 -2.28984,-0.919 -2.29001,-0.92069 -0.10279,-0.98396 2.84427,-0.0823 3.66979,-1.52076 2.32008,-4.04272 C 471.14423,313.40098 471.23428,313 472.46482,313 473.30917,313 474,312.475 474,311.83333 c 0,-0.64166 -0.29301,-0.87366 -0.65112,-0.51554 -0.35812,0.35812 -1.18125,-0.0739 -1.82917,-0.95995 -0.97432,-1.33246 -1.56783,-1.40246 -3.43206,-0.40475 -1.84569,0.98778 -2.57025,0.92014 -3.99958,-0.37339 -0.96005,-0.86883 -2.48349,-1.5797 -3.38543,-1.5797 -0.90458,0 -1.42392,-0.56275 -1.15826,-1.25506 0.34416,-0.89686 -1.15947,-1.34505 -5.2684,-1.57035 -5.93147,-0.32524 -6.77598,-0.61977 -6.77598,-2.36319 0,-1.05027 -14.15001,-1.49473 -15.1683,-0.47644 -0.95447,0.95448 -10.77114,-0.55085 -12.3317,-1.891 -0.825,-0.70848 -2.85,-1.60864 -4.5,-2.00036 -1.65,-0.39172 -3.73859,-1.35226 -4.64132,-2.13454 -0.90272,-0.78228 -2.7886,-1.54464 -4.19084,-1.69415 -1.40223,-0.1495 -3.20034,-0.81196 -3.99579,-1.47212 -0.79545,-0.66017 -7.00957,-1.8011 -13.80916,-2.53541 C 375.65732,289.18128 373,288.50211 373,286.55307 c 0,-1.50843 -7.34976,-4.07297 -8.90973,-3.10886 -0.61759,0.38169 -0.864,1.11289 -0.54756,1.62489 0.91307,1.47739 -2.38446,1.0807 -4.94099,-0.5944 -1.28035,-0.83892 -3.98346,-1.58755 -6.00691,-1.66362 C 348.12929,282.64321 346.62877,281 350.94098,281 352.62344,281 354,280.55 354,280 c 0,-0.98601 -1.35022,-1.38179 -3.70302,-1.08543 -0.66166,0.0833 -2.69749,-0.4729 -4.52407,-1.23609 -2.86222,-1.19591 -3.50846,-1.18699 -4.67761,0.0646 -1.00838,1.07947 -1.54404,1.14889 -2.08692,0.27049 -0.41896,-0.67789 -2.6016,-1.09077 -5.11936,-0.96841 -2.41396,0.11732 -5.13019,-0.10021 -6.03606,-0.4834 -0.90587,-0.38319 -2.25587,-0.57193 -3,-0.41943 -0.74413,0.15251 -2.37177,-0.28633 -3.61697,-0.9752 -1.34214,-0.74249 -3.6269,-0.99681 -5.61108,-0.62457 -2.88099,0.54047 -3.42773,0.31945 -3.92634,-1.5872 -0.39084,-1.4946 -1.08657,-2.02044 -2.13891,-1.61662 -0.87384,0.33533 -1.59438,0.0627 -1.63861,-0.62011 -0.0589,-0.90994 -0.20086,-0.91954 -0.56024,-0.0379 -0.33795,0.82907 -1.50586,0.57622 -3.92141,-0.84899 -1.89207,-1.11634 -4.98689,-2.07356 -6.87738,-2.12715 -1.8905,-0.0536 -3.23299,-0.42795 -2.98333,-0.83191 0.24966,-0.40397 -0.003,-1.01714 -0.56238,-1.3626 -0.55897,-0.34546 -1.01631,0.021 -1.01631,0.81427 0,0.79331 -0.9,1.67774 -2,1.9654 -1.23655,0.32336 -2,0.0307 -2,-0.76674 0,-1.36854 -0.56344,-1.59205 -11.45435,-4.54385 -12.23386,-3.31578 -12.5192,0.53316 -1.63934,22.11255 3.90153,7.73838 7.09369,14.69808 7.09369,15.46599 0,0.7679 1.16283,2.15811 2.58406,3.08934 1.87859,1.2309 2.46247,2.32923 2.13867,4.02305 -0.32722,1.71176 0.0124,2.32991 1.28008,2.32991 1.15297,0 2.29007,1.57604 3.42711,4.75 0.9359,2.6125 2.64834,6.88619 3.80543,9.49709 1.15709,2.6109 1.81775,5.03314 1.46814,5.38276 -0.34962,0.34961 0.41426,1.46153 1.6975,2.47093 2.74521,2.15938 4.3085,9.33942 2.50625,11.51098 -1.11798,1.34709 -1.02448,1.49827 1.09049,1.76324 1.65544,0.2074 7.51434,9.12926 10.39636,15.83146 3.7469,8.71347 4.15647,9.33237 5.96013,9.00623 1.70116,-0.3076 3.32106,3.88566 2.20112,5.69777 -0.34812,0.56327 0.22397,1.55928 1.27131,2.21335 1.15413,0.72077 1.71435,1.91541 1.42217,3.03271 -0.26515,1.01391 0.0401,1.84348 0.67839,1.84348 0.63825,0 1.08742,0.5625 0.99814,1.25 -0.35527,2.73593 0.14661,3.82412 1.63443,3.54384 1.15384,-0.21737 3.10074,3.47991 7.48067,14.20616 3.25649,7.975 5.92958,15.4375 5.94022,16.58333 0.0264,2.84952 0.93975,3.52963 3.15081,2.3463 1.62641,-0.87043 1.86852,-0.62162 1.86852,1.92018 0,2.00974 0.77781,3.42981 2.49478,4.55482 1.37214,0.89905 3.14917,3.2008 3.94898,5.11501 0.7998,1.9142 2.13632,3.48036 2.97003,3.48036 1.9617,0 4.37792,4.2361 2.72961,4.78553 -0.62887,0.20963 -1.1434,1.27322 -1.1434,2.36354 0,2.88421 1.92183,6.01727 3.20468,5.22443 0.66934,-0.41367 0.8211,-0.22423 0.38528,0.48094 -0.39548,0.6399 -0.39842,2.17193 -0.007,3.40451 0.6717,2.11271 0.75143,2.13031 1.39204,0.30743 0.42209,-1.20105 0.93613,-1.51845 1.35682,-0.83776 z m 5.80693,-4.32947 -2.36079,-1.19405 2.18615,-0.69385 c 2.49299,-0.79125 3.36173,-0.27521 2.87383,1.70708 -0.27318,1.10991 -0.79337,1.14476 -2.69919,0.18082 z M 320.8125,280.31689 c 0.72187,-0.28887 1.58438,-0.25335 1.91667,0.0789 0.33229,0.33229 -0.25834,0.56864 -1.3125,0.52522 -1.16495,-0.048 -1.4019,-0.28494 -0.60417,-0.60416 z M 336.5,280 c -0.33992,-0.55 -0.14148,-1 0.44098,-1 0.58246,0 1.05902,0.45 1.05902,1 0,0.55 -0.19844,1 -0.44098,1 -0.24254,0 -0.7191,-0.45 -1.05902,-1 z M 167,448 c 0,-0.55 -0.19844,-1 -0.44098,-1 -0.24254,0 -0.7191,0.45 -1.05902,1 -0.33992,0.55 -0.14148,1 0.44098,1 0.58246,0 1.05902,-0.45 1.05902,-1 z m 188,-9 c 0,-0.55 -0.45,-1 -1,-1 -0.55,0 -1,0.45 -1,1 0,0.55 0.45,1 1,1 0.55,0 1,-0.45 1,-1 z M 306.81642,372.67288 C 307.03112,370.85929 306.66676,370 305.68305,370 c -1.52215,0 -2.97555,3.71771 -2.04317,5.22633 1.00654,1.62861 2.85761,0.14064 3.17654,-2.55345 z m -116.78125,-2.21526 c 0.89422,-1.07746 0.96349,-1.85896 0.22981,-2.59264 -1.36209,-1.36209 -5.26498,0.61732 -5.26498,2.6702 0,1.93263 3.41047,1.88009 5.03517,-0.0776 z M 297.5,356 c -0.33992,-0.55 -1.06803,-1 -1.61803,-1 -0.55,0 -0.72189,0.45 -0.38197,1 0.33992,0.55 1.06803,1 1.61803,1 0.55,0 0.72189,-0.45 0.38197,-1 z m -101.04271,-2.9309 c 0.31644,-0.512 0.11799,-1.21356 -0.44098,-1.55902 -0.55897,-0.34546 -1.01631,0.0734 -1.01631,0.9309 0,1.75653 0.60006,2.01516 1.45729,0.62812 z M 18.1125,292.7125 C 17.295833,291.89583 17,292.00774 17,293.13333 c 0,1.98786 1.344703,3.33256 1.841667,1.84167 0.210833,-0.6325 -0.117292,-1.65063 -0.729167,-2.2625 z M 25.245407,291 c 0.87336,0 1.776035,-0.5625 2.005945,-1.25 0.460085,-1.37579 8.745418,-1.78555 8.747431,-0.43261 0.0014,0.93778 3.182925,0.11306 7.404855,-1.9195 C 46.789354,285.76791 49.386804,285.56512 48.5,287 c -0.339919,0.55 0.08352,1 0.940983,1 C 50.298442,288 51,287.55 51,287 c 0,-0.55 0.3375,-0.8917 0.75,-0.75934 1.174419,0.37684 11.25,-4.19986 11.25,-5.11017 0,-2.19507 13.678287,-4.12443 30,-4.23157 3.210027,-0.0211 14.4329,-3.53859 19.13615,-5.99772 C 115.97684,268.89306 123,268.30923 123,269.99809 c 0,1.10049 6.98082,0.74983 8.91897,-0.44801 0.66956,-0.41381 0.97582,-1.38186 0.68059,-2.15123 -0.29524,-0.76937 -0.21341,-1.4294 0.18182,-1.46675 0.39524,-0.0373 2.51862,-0.18687 4.71862,-0.3323 2.2,-0.14542 5.575,-0.56928 7.5,-0.94191 1.925,-0.37264 2.825,-0.38768 2,-0.0334 -2.56019,1.09932 -4.00197,2.56334 -3.43224,3.48518 0.30016,0.48566 1.84786,0.20968 3.43933,-0.61331 1.59147,-0.82298 4.26594,-1.49633 5.94325,-1.49633 1.79841,0 2.94709,-0.47828 2.79966,-1.1657 -0.1375,-0.64113 1.27067,-1.49619 3.12926,-1.90013 1.8586,-0.40395 3.6931,-1.24224 4.07667,-1.86287 0.38357,-0.62063 2.43788,-1.26549 4.56512,-1.43301 2.12725,-0.16753 4.02095,-0.76428 4.20822,-1.32611 0.18728,-0.56182 1.48437,-0.80283 2.88244,-0.53558 1.63207,0.31199 3.57376,-0.27694 5.42462,-1.64534 3.24376,-2.39821 5.08594,-2.74263 4.71367,-0.88126 -0.14746,0.73728 0.57036,1.12952 1.75,0.95628 1.1,-0.16155 4.79672,-0.63327 8.21494,-1.04827 3.41822,-0.41501 6.51488,-1.0545 6.88148,-1.4211 0.3666,-0.3666 1.61988,-0.1587 2.78506,0.46199 1.86872,0.99547 1.9654,0.94286 0.81996,-0.44615 -1.83694,-2.22756 -0.4998,-2.74893 8.51279,-3.31927 13.65373,-0.86405 13.62096,-0.85526 14.42674,-3.86819 0.62338,-2.33091 0.11226,-3.42013 -3.38565,-7.21491 -2.26593,-2.45824 -7.69201,-6.98689 -12.05797,-10.06366 -4.36595,-3.07677 -9.51893,-7.17496 -11.45106,-9.10709 -2.38334,-2.38335 -4.43475,-3.51296 -6.37962,-3.51296 -2.3595,0 -2.86667,-0.42474 -2.86667,-2.40072 0,-1.88113 -0.40057,-2.27359 -1.85078,-1.81331 -1.3207,0.41917 -3.33262,-0.84839 -7.0247,-4.42575 -2.84566,-2.75724 -6.31041,-5.75781 -7.69945,-6.66794 -1.62207,-1.06283 -2.30979,-2.21699 -1.92244,-3.22639 0.33169,-0.86438 0.31604,-1.28456 -0.0348,-0.93373 -2.51574,2.51574 -11.21261,-6.09442 -9.82039,-9.72249 0.5379,-1.40175 0.32884,-1.68122 -0.90382,-1.2082 -2.29349,0.88009 -11.17376,-4.25485 -18.55739,-10.73066 C 137.98767,170.10102 136,169.00135 136,171.00847 c 0,1.82433 -3.90594,-1.36102 -4.20858,-3.43216 -0.1642,-1.12372 -1.2994,-2.23049 -2.60044,-2.53532 -1.26996,-0.29754 -2.24916,-0.97342 -2.176,-1.50195 0.0732,-0.52852 -0.68778,-1.28439 -1.69098,-1.67971 -1.0032,-0.39532 -1.4314,-0.75039 -0.95156,-0.78904 0.47985,-0.0387 0.30764,-0.75084 -0.38267,-1.58262 -0.88828,-1.07031 -1.6184,-1.21084 -2.49801,-0.48083 -0.91504,0.75941 -3.31994,-0.85797 -9.11732,-6.1317 -4.33094,-3.93976 -9.61348,-8.56088 -11.73898,-10.26917 C 98.509962,140.89769 96.3836,138.4875 95.91021,137.25 94.948006,134.73468 92,134.16923 92,136.5 c 0,0.825 -0.45,1.5 -1,1.5 -0.55,0 -1,-0.64286 -1,-1.42857 C 90,134.49288 87.176851,132 84.822927,132 c -1.118818,0 -3.399684,-1.14897 -5.06859,-2.55326 -1.689736,-1.42182 -3.701117,-2.2974 -4.538974,-1.97589 -1.837591,0.70515 -5.748618,-2.52325 -4.209291,-3.4746 1.760346,-1.08796 -2.888089,-6.16847 -5.023693,-5.49066 -1.443588,0.45818 -1.707022,0.15745 -1.282872,-1.46451 C 65.045879,115.71656 64.750166,115 63.857178,115 c -0.756846,0 -1.938144,-0.9 -2.625105,-2 -0.686961,-1.1 -1.688823,-2 -2.226358,-2 -1.770644,0 -6.274901,7.86263 -5.719954,9.98475 0.299018,1.14345 -0.05738,2.34769 -0.821321,2.77521 -0.742254,0.41539 -1.796879,1.87683 -2.34361,3.24765 -0.739963,1.8553 -1.01026,2.02826 -1.057444,0.67665 -0.03486,-0.99866 0.377829,-2.64016 0.917092,-3.64778 0.774609,-1.44737 0.485667,-2.15626 -1.376125,-3.37615 -2.316739,-1.51798 -2.365268,-1.47951 -2.86877,2.27438 -0.281692,2.10017 -0.171844,5.67956 0.244105,7.95421 0.70855,3.87476 0.537817,4.32753 -2.705724,7.1754 C 39.362992,141.4982 37.5,141.44895 37.5,137.91168 c 0,-3.25001 -3.985912,-3.98556 -4.796684,-0.88516 -0.415538,1.58902 -0.184586,1.9884 0.907501,1.56933 0.862636,-0.33103 1.684903,0.15041 2.000035,1.17101 0.294329,0.95323 0.92581,2.47212 1.403291,3.37533 0.47748,0.9032 0.579992,1.93034 0.227803,2.28253 -0.352188,0.35219 -0.513675,2.70015 -0.358859,5.21768 0.177824,2.89169 -0.09057,4.3474 -0.728805,3.95295 -0.555659,-0.34341 -1.298164,0.28262 -1.65001,1.39119 -0.351847,1.10857 -1.509245,2.48094 -2.571997,3.04971 -1.905967,1.02004 -2.591259,3.97143 -1.236664,5.32603 C 31.776422,165.44309 31.92818,168 30.911516,168 30.410182,168 30,169.60458 30,171.56574 c 0,1.96116 -0.469694,4.44337 -1.043765,5.51604 -0.864031,1.61445 -0.648785,2.10881 1.25,2.87087 l 2.293765,0.92058 -2.281385,0.0634 c -2.740403,0.0761 -3.917717,2.5161 -2.208046,4.57612 0.991202,1.19433 0.962135,1.48727 -0.147577,1.48727 -2.423584,0 -4.204441,4.27378 -4.062761,9.75 0.143521,5.54734 -0.323689,6.28397 -2.284691,3.60214 -1.086602,-1.48602 -1.261101,-1.43312 -1.776716,0.5386 -0.314475,1.20255 -0.0064,2.71456 0.684522,3.36001 1.342124,1.25373 0.256417,8.00335 -1.688047,10.49424 -0.654836,0.83886 -0.456734,2.03121 0.607273,3.65509 1.869571,2.85332 1.438341,6.11393 -1.191142,9.00644 -3.434121,3.77762 -5.450193,9.36499 -4.807711,13.32415 0.424295,2.61462 0.138703,4.18377 -0.988078,5.42885 -1.062621,1.17418 -1.411881,2.8369 -1.059901,5.04587 0.935308,5.86982 1.291355,6.77144 3.262869,8.26262 1.756519,1.32855 1.774745,1.47141 0.191391,1.50019 C 12.302386,261.01268 12.546913,263 15,263 c 1.1,0 2,0.42659 2,0.94798 0,0.57654 -1.077512,0.61011 -2.75,0.0857 -1.5125,-0.47427 -4.2673713,-1.12558 -6.1219362,-1.44736 -2.870801,-0.4981 -3.1925837,-0.36895 -2.165146,0.86904 0.6637346,0.79975 3.1936059,2.61844 5.6219362,4.04154 C 14.013184,268.92 16,270.31694 16,270.60121 c 0,0.28428 -0.45,0.23875 -1,-0.10117 -1.355743,-0.8379 -1.243546,0.21693 0.580214,5.45487 1.058944,3.04135 1.341312,5.98027 0.889911,9.26235 -0.586287,4.26281 -0.395461,5.02358 1.684339,6.71492 2.039491,1.65856 2.55153,1.72219 3.924277,0.48765 C 22.947048,291.63891 24.372048,291 25.245407,291 Z M 125.5,268 c 0.33992,-0.55 0.81648,-1 1.05902,-1 0.24254,0 0.44098,0.45 0.44098,1 0,0.55 -0.47656,1 -1.05902,1 -0.58246,0 -0.7809,-0.45 -0.44098,-1 z M 13.75,266.33772 c 0.6875,-0.27741 1.8125,-0.27741 2.5,0 0.6875,0.27741 0.125,0.50439 -1.25,0.50439 -1.375,0 -1.9375,-0.22698 -1.25,-0.50439 z m 144.0625,-6.02083 c 0.72187,-0.28887 1.58437,-0.25335 1.91667,0.0789 0.33229,0.33229 -0.25834,0.56864 -1.3125,0.52522 -1.16495,-0.048 -1.4019,-0.28494 -0.60417,-0.60416 z m 13.69758,-7.3332 c 0.34546,-0.55897 1.04702,-0.75742 1.55902,-0.44098 1.38704,0.85723 1.12841,1.45729 -0.62812,1.45729 -0.85746,0 -1.27636,-0.45734 -0.9309,-1.01631 z M 201,248 c 0,-0.55 0.47656,-1 1.05902,-1 0.58246,0 0.7809,0.45 0.44098,1 -0.33992,0.55 -0.81648,1 -1.05902,1 C 201.19844,249 201,248.55 201,248 Z M 24.590374,196.14623 c -0.290213,-0.46958 0.583229,-1.35993 1.940983,-1.97856 2.619791,-1.19366 3.264763,-0.36379 1.268643,1.63233 -1.41353,1.41353 -2.478966,1.52846 -3.209626,0.34623 z M 480,288.5 c 0,-1.31008 0.45,-2.66008 1,-3 1.39439,-0.86178 1.24773,-2.10941 -0.44721,-3.80435 -0.79596,-0.79597 -1.45745,-2.29061 -1.46997,-3.32143 -0.0125,-1.03082 -0.30993,-3.32021 -0.66091,-5.08753 -0.44375,-2.23447 -0.17275,-3.67871 0.88962,-4.74108 1.15097,-1.15097 1.65142,-1.22167 2.02917,-0.28668 0.30444,0.75354 0.53242,0.5768 0.58035,-0.44991 0.0434,-0.93004 -0.41909,-1.99879 -1.02781,-2.375 -0.60872,-0.37621 -0.72122,-0.96527 -0.25,-1.30902 0.47122,-0.34375 1.53531,-2.65 2.36466,-5.125 1.76359,-5.26308 0.74523,-11.40534 -2.48226,-14.97167 l -1.97317,-2.18033 4.97376,0.54933 c 4.67511,0.51634 4.85368,0.45396 2.97377,-1.03876 -1.38608,-1.1006 -1.6163,-1.73191 -0.75,-2.05666 C 487.71831,238.56406 487.20872,237 485,237 c -1.1,0 -2,-0.42659 -2,-0.94798 0,-0.57654 1.07751,-0.61011 2.75,-0.0857 1.5125,0.47427 4.26737,1.12558 6.12194,1.44736 2.8708,0.4981 3.19258,0.36895 2.16514,-0.86904 -0.66373,-0.79975 -3.1936,-2.61844 -5.62193,-4.04154 -4.29474,-2.51688 -5.95108,-4.30651 -2.90336,-3.13699 1.2672,0.48627 1.2305,0.0587 -0.2268,-2.64301 -1.24373,-2.30571 -1.70094,-5.28677 -1.60629,-10.47314 0.0728,-3.9875 -0.16267,-7.25032 -0.5232,-7.25071 -0.36052,-3.8e-4 -0.72203,-1.15166 -0.80335,-2.55838 -0.0813,-1.40672 -0.9129,-3.40305 -1.84796,-4.43628 -0.93506,-1.03323 -1.44544,-2.29066 -1.13418,-2.79429 0.31126,-0.50364 -0.0803,-1.76949 -0.87024,-2.81302 -0.78989,-1.04353 -1.44047,-2.34732 -1.44573,-2.89732 -0.005,-0.55 0.87042,0.125 1.94596,1.5 1.07554,1.375 1.96553,3.0001 1.97776,3.61133 C 481.00454,199.94955 486,199.18842 486,197.84612 486,196.59637 477.07808,188 475.78099,188 c -1.01775,0 -0.62994,-9.48438 0.4312,-10.54553 0.83663,-0.83662 3.81693,0.68939 3.22305,1.65031 -0.71961,1.16436 2.64284,1.13157 4.50046,-0.0439 1.20686,-0.76367 1.22158,-1.16646 0.0924,-2.52707 -0.77466,-0.9334 -1.71629,-1.24562 -2.22438,-0.73753 -1.06672,1.06672 -7.8037,-0.87001 -7.8037,-2.24338 0,-0.52674 -1.43828,-2.44163 -3.19617,-4.25531 C 469.04594,167.48392 468.20104,166 468.92628,166 c 1.04226,0 1.06484,-0.30578 0.10771,-1.45904 -0.72186,-0.86979 -0.95149,-2.64008 -0.56859,-4.3834 0.57133,-2.60128 0.3049,-3.04198 -2.41155,-3.98894 C 464.36939,155.58141 463,154.38852 463,153.50838 c 0,-0.87762 -1.125,-2.80893 -2.5,-4.29181 -1.375,-1.48287 -2.5,-3.31572 -2.5,-4.07298 0,-0.87369 -0.71403,-1.19013 -1.95386,-0.86591 -1.69169,0.44239 -1.87619,0.12258 -1.375,-2.38336 0.50111,-2.50559 0.27701,-2.89432 -1.66858,-2.89432 -1.64524,0 -1.98924,-0.33494 -1.28381,-1.25 0.53001,-0.6875 0.65189,-2.15 0.27085,-3.25 -0.38104,-1.1 -1.03707,-3.0125 -1.45783,-4.25 C 450.111,129.0125 449.37437,128 448.8948,128 447.73206,128 444,124.76621 444,123.75871 c 0,-0.43825 1.13009,-0.51318 2.5113,-0.16652 2.03714,0.51129 2.39394,0.32445 1.8897,-0.98958 -0.34188,-0.89093 -1.61689,-1.86967 -2.83335,-2.17499 -1.21646,-0.30531 -2.99226,-1.87642 -3.94623,-3.49136 C 440.66745,115.32131 439.43581,114 438.88445,114 c -0.55137,0 -0.72226,-0.45341 -0.37976,-1.00759 0.35679,-0.5773 -0.48233,-0.50409 -1.96496,0.17144 -1.42323,0.64847 -2.85166,2.2308 -3.1743,3.51629 -0.36657,1.46054 -1.57668,2.56655 -3.22602,2.94851 -1.45168,0.33617 -3.20191,1.31827 -3.88941,2.18242 -0.75433,0.94816 -1.25,1.09887 -1.25,0.38006 0,-2.14245 -1.44865,-1.21325 -4.46592,2.86454 -2.64076,3.56895 -3.29855,3.93726 -6,3.35955 -1.66874,-0.35687 -2.71237,-0.31207 -2.31917,0.0995 0.3932,0.41162 -1.28922,3.09426 -3.73872,5.96143 -2.4495,2.86717 -4.2245,5.44216 -3.94446,5.72221 0.93516,0.93516 -8.45762,8.8016 -10.50939,8.8016 -1.11229,0 -2.02234,0.39541 -2.02234,0.87868 0,0.48327 -1.4625,1.45295 -3.25,2.15483 -7.34952,2.88587 -18.22628,11.51929 -24.60602,19.53101 -2.53809,3.18734 -6.68536,5.5487 -8.51328,4.84726 -2.50238,-0.96025 -8.87366,4.24737 -8.11621,6.63387 0.4603,1.45029 -0.17867,2.20502 -2.79085,3.29646 -1.86331,0.77854 -4.30365,2.5798 -5.42298,4.0028 -2.24447,2.85337 -3.86312,2.5286 -2.02966,-0.40724 1.67711,-2.68547 -0.0344,-3.72049 -1.85471,-1.12163 -0.84573,1.20746 -2.87509,2.88698 -4.50969,3.73226 -1.6346,0.84528 -2.69463,1.98566 -2.35563,2.53417 0.339,0.54851 -1.33379,2.81111 -3.7173,5.02799 -2.38352,2.21688 -3.77632,3.75056 -3.09512,3.40818 0.82621,-0.41527 1.03294,-0.0867 0.62095,0.98689 -0.33967,0.88518 -1.2222,1.3774 -1.96118,1.09383 -0.73897,-0.28357 -1.92525,0.25306 -2.63617,1.19253 -0.71092,0.93946 -2.18574,2.19685 -3.27737,2.79419 -1.09163,0.59734 -2.88478,2.49431 -3.98478,4.21548 -1.15739,1.81097 -2.58598,2.92374 -3.39088,2.64125 C 305.00216,215.70333 302,216.95175 302,218.56739 302,219.35532 301.31869,220 300.48598,220 c -2.22029,0 -8.45919,4.2832 -8.4736,5.81739 -0.008,0.89969 -0.72577,1.10185 -2.26238,0.6376 -1.72554,-0.52133 -1.98559,-0.40083 -1.11567,0.51694 1.27568,1.34585 0.62223,5.30467 -0.73695,4.46465 -1.31221,-0.81099 -7.17224,2.25087 -11.66038,6.09256 -2.18539,1.8706 -4.25773,3.11679 -4.60521,2.76931 -0.78892,-0.78891 -0.79543,1.48937 -0.0126,4.40915 0.77582,2.89362 5.41396,4.58796 22.8808,8.3585 19.26493,4.15869 20.16333,4.28766 20.95419,3.00802 0.45366,-0.73404 1.34448,-0.33819 2.5978,1.15438 1.59148,1.8953 2.06491,2.03183 2.85856,0.82435 0.81031,-1.23283 2.10914,-1.04599 8.77031,1.26168 4.30053,1.48986 8.60664,2.70357 9.56914,2.69715 0.9625,-0.006 1.75,0.71842 1.75,1.61076 0,1.14606 0.36703,1.33905 1.25,0.65726 0.6875,-0.53085 2.375,-0.91854 3.75,-0.86152 3.13284,0.1299 9,3.58333 9,5.29743 0,1.3712 1.24243,1.70863 2.32076,0.6303 1.65336,-1.65336 16.13971,0.19219 22.85659,2.91191 3.51199,1.42203 7.23847,1.22401 6.27588,-0.3335 -1.07071,-1.73244 2.61924,-0.93062 5.49219,1.19345 1.57545,1.16478 3.32613,1.83244 3.89041,1.48369 0.56429,-0.34875 1.31994,-0.15844 1.67923,0.42291 0.35929,0.58134 1.46209,0.80027 2.45067,0.48651 1.09759,-0.34837 2.02599,0.0251 2.38446,0.95932 0.77519,2.02011 2.64981,1.96551 2.64981,-0.0772 0,-1.11986 0.53048,-1.40323 1.75,-0.93482 2.08758,0.80183 13.14832,4.01214 22.40295,6.50232 3.65913,0.98457 7.69676,2.52124 8.97251,3.41481 3.09296,2.16639 4.21864,2.04854 3.58479,-0.37532 -0.62985,-2.40856 0.046,-2.53056 2.36958,-0.42775 1.39913,1.26619 2.45216,1.37487 5.4096,0.55828 2.56907,-0.70935 4.39904,-0.68284 6.09143,0.0883 1.77339,0.80801 3.08331,0.79961 4.90729,-0.0315 2.64525,-1.20525 5.51185,-0.65428 5.51185,1.0594 0,2.76257 6.35788,4.93155 7.33772,2.50325 0.31227,-0.77389 0.53446,-0.60993 0.58333,0.43045 0.0438,0.93263 1.08023,1.84547 2.32895,2.05128 3.09388,0.50991 3.75,0.032 3.75,-2.73173 z m 3,-55.40638 c 0,-0.49851 0.9,-0.67103 2,-0.38337 1.1,0.28766 2,0.69553 2,0.90638 0,0.21085 -0.9,0.38337 -2,0.38337 -1.1,0 -2,-0.40787 -2,-0.90638 z M 317.54271,214.0691 c -0.31644,-0.512 -0.11799,-1.21356 0.44098,-1.55902 0.55897,-0.34546 1.01631,0.0734 1.01631,0.9309 0,1.75653 -0.60006,2.01516 -1.45729,0.62812 z M 327.5,200 c 0.33992,-0.55 0.81648,-1 1.05902,-1 0.24254,0 0.44098,0.45 0.44098,1 0,0.55 -0.47656,1 -1.05902,1 -0.58246,0 -0.7809,-0.45 -0.44098,-1 z M 445.67487,132.5951 C 444.64579,129.91338 444.85543,129 446.5,129 c 1.64322,0 1.73756,0.53476 0.60458,3.42689 -0.70047,1.78807 -0.80346,1.80019 -1.42971,0.16821 z M 463,287 c 0,-0.55 -0.19844,-1 -0.44098,-1 -0.24254,0 -0.7191,0.45 -1.05902,1 -0.33992,0.55 -0.14148,1 0.44098,1 0.58246,0 1.05902,-0.45 1.05902,-1 z m -80.59196,-3.5 C 380.6707,280.84848 378,280.12143 378,282.3 c 0,1.86257 2.09718,3.7 4.22305,3.7 1.71474,0 1.72573,-0.14853 0.18499,-2.5 z M 363.5,280 c -0.33992,-0.55 -1.04148,-1 -1.55902,-1 -0.51754,0 -0.94098,0.45 -0.94098,1 0,0.55 0.70156,1 1.55902,1 0.85746,0 1.2809,-0.45 0.94098,-1 z m -242.74912,-3.75124 c 0.58444,-1.7553 -3.89437,-3.30629 -5.59118,-1.93621 -1.09838,0.88688 -1.01162,1.32256 0.48066,2.41374 2.11336,1.54533 4.51161,1.32123 5.11052,-0.47753 z m 16.24132,-5.47732 c 0.004,-0.40071 -1.1172,-0.21598 -2.4922,0.41051 -1.375,0.6265 -2.5,1.47451 -2.5,1.88448 0,0.40997 1.12149,0.22524 2.4922,-0.41052 1.37071,-0.63575 2.49571,-1.48376 2.5,-1.88447 z m 116.48076,-17.33676 c 2.00961,-2.16841 2.22457,-3.00389 1.38935,-5.39982 -1.62589,-4.66404 -8.19314,-4.92512 -9.91579,-0.3942 -1.07121,2.8175 0.54982,7.05726 2.94281,7.69685 2.913,0.77857 3.18427,0.68612 5.58363,-1.90283 z m -11.43001,-26.08809 c 1.82193,-6.50727 1.89556,-40.26593 0.0918,-42.06933 -1.15371,-1.15345 -1.11497,-1.64159 0.25,-3.14986 2.04305,-2.25755 2.04416,-3.1274 0.004,-3.1274 -1.3086,0 -1.48434,-0.67673 -0.93548,-3.60239 0.3717,-1.98131 0.84663,-6.55171 1.0554,-10.15644 0.22779,-3.93304 0.90182,-6.88527 1.68548,-7.3823 0.82382,-0.52249 0.88635,-0.8339 0.16939,-0.84356 -3.05361,-0.0411 -1.79455,-11.12237 1.56186,-13.74631 1.00894,-0.78875 1.20943,-1.50726 0.55806,-2 -2.46526,-1.86487 -3.94158,-17.68738 -2.41399,-25.87203 0.49576,-2.65623 -0.18618,-4.2894 -1.56943,-3.7586 -1.10218,0.42295 -1.5,-0.13146 -1.5,-2.0904 0,-1.4663 0.35454,-2.44689 0.78786,-2.17908 1.60998,0.99502 1.15341,-4.78098 -0.53514,-6.76991 -1.31192,-1.5453 -1.35234,-1.756662 -0.16071,-0.840423 2.04447,1.571983 3.27612,0.392713 1.64931,-1.579169 -0.98906,-1.198864 -0.9873,-1.590127 0.009,-1.925343 0.6875,-0.231391 1.25,-1.269089 1.25,-2.305994 0,-1.29954 -0.4861,-1.698749 -1.56456,-1.284902 -1.35148,0.518611 -1.47849,-0.200683 -0.93254,-5.281385 C 241.85051,84.146794 242.51834,76.775 242.98695,71 c 0.46862,-5.775 1.17816,-11.802572 1.57676,-13.394605 0.68906,-2.752131 0.59249,-2.861414 -1.96202,-2.220273 l -2.68675,0.674331 1.71923,-2.623878 c 1.63051,-2.488477 1.62614,-2.796738 -0.0848,-5.973685 -1.01484,-1.884439 -1.59034,-4.467429 -1.3156,-5.904672 0.26862,-1.405175 -0.10979,-3.342894 -0.8409,-4.306041 -1.51999,-2.002387 -1.87757,-6.668747 -0.44308,-5.782186 1.66629,1.029825 2.81607,-2.746775 3.26161,-10.713137 0.41618,-7.441521 0.36189,-7.679702 -1.38917,-6.095013 C 239.12899,16.193244 239,16.192829 239,14.654988 239,13.744744 238.55,13 238,13 c -0.55,0 -1,0.9 -1,2 0,1.1 -0.42659,2 -0.94798,2 -0.58064,0 -0.55227,-1.135149 0.0732,-2.929447 0.56167,-1.611196 0.86897,-4.1986964 0.6829,-5.7500004 -0.32784,-2.7332549 -0.44109,-2.6580622 -3.659,2.4294474 -3.2239,5.096956 -4.96438,6.816832 -3.783,3.73821 0.48715,-1.269487 0.0635,-1.234121 -2.64301,0.220661 -2.23993,1.20397 -5.34108,1.704043 -10.16612,1.639326 -5.28349,-0.07087 -7.31513,0.305936 -8.5,1.576469 -0.85636,0.918277 -1.16442,1.085885 -0.68458,0.372464 1.57949,-2.348345 -2.3177,-1.442776 -4.89878,1.138303 -1.37697,1.376972 -2.70129,2.00527 -3.04715,1.445663 -0.37693,-0.609891 -1.52218,-0.393207 -2.98393,0.564567 -1.30472,0.854885 -2.72555,1.544331 -3.1574,1.532101 -1.19409,-0.03382 4.0522,-3.930038 5.32615,-3.955528 C 200.0422,18.993606 199.13936,14 197.70331,14 196.40046,14 188,22.890104 188,24.268889 c 0,1.338275 -8.84429,0.291728 -10.33696,-1.223175 -0.88614,-0.899328 -0.72479,-1.503973 0.67766,-2.539596 1.25177,-0.924358 1.63022,-2.022386 1.18285,-3.431926 -0.55099,-1.736009 -0.98925,-1.895325 -2.69806,-0.980798 -1.43241,0.766602 -1.72558,1.406516 -0.98409,2.148002 0.74148,0.741487 0.63639,1.867762 -0.35276,3.780575 -0.77488,1.498454 -1.12682,3.006514 -0.78209,3.351245 C 175.05128,25.717947 174.71726,26 173.96427,26 c -0.75298,0 -2.85298,1.438275 -4.66666,3.196167 C 167.48392,30.954059 166,31.838226 166,31.160983 c 0,-0.939737 -0.49571,-0.966057 -2.09314,-0.111136 -1.15123,0.616119 -3.133,0.859227 -4.40394,0.540242 -1.90005,-0.476882 -2.49638,-0.04762 -3.35484,2.414969 C 155.57386,35.652276 154.46073,37 153.67446,37 c -0.78626,0 -1.95537,0.633548 -2.59801,1.407885 -0.64264,0.774337 -2.7497,2.158243 -4.68236,3.075348 -3.0485,1.44661 -3.34042,1.880952 -2.204,3.279345 1.14228,1.405606 1.05396,1.514455 -0.69009,0.850561 -3.42183,-1.302558 -3.80495,-1.184137 -4.45418,1.37678 -0.39039,1.539922 -0.90291,2.050328 -1.3433,1.337761 -0.67493,-1.092062 -2.05725,-0.872729 -7.779,1.234295 -0.86707,0.319295 -2.35501,1.898472 -3.30654,3.509281 -2.1926,3.711772 -3.87533,3.813038 -2.97016,0.178744 0.63381,-2.544758 0.55225,-2.640641 -1.09281,-1.284718 -0.97775,0.805905 -2.09322,2.318114 -2.47881,3.360464 -0.38559,1.042351 -2.92275,3.114507 -5.63814,4.604792 -3.7517,2.059049 -5.01303,3.353042 -5.25348,5.389536 C 108.99841,66.888324 108.248,68 107.37456,68 c -0.82093,0 -1.23803,0.411898 -0.92689,0.915328 0.89072,1.441212 -4.34408,7.061654 -5.98916,6.430377 -0.795863,-0.305401 -1.19805,-0.958121 -0.893749,-1.45049 C 99.869061,73.402847 99.66464,73 99.110491,73 98.556342,73 94.105399,76.804186 89.219507,81.453747 80.925385,89.34668 80.225409,89.796838 78.668033,88.239461 77.110656,86.682084 77,86.753826 77,89.320898 c 0,2.527662 -0.178498,2.65394 -2.212623,1.56531 -2.176208,-1.164672 -2.185511,-1.142782 -0.565243,1.330059 1.128016,1.72157 1.323331,2.838268 0.619525,3.542074 -1.608279,1.608279 1.849265,6.070169 4.984654,6.432599 1.892333,0.21874 2.767072,0.9666 2.993238,2.55906 0.175753,1.2375 0.94913,2.25 1.718615,2.25 0.769485,0 1.185654,0.5625 0.92482,1.25 -0.276201,0.728 1.511699,2.294 4.281384,3.75 3.25412,1.71067 4.756047,3.13147 4.756949,4.5 7.26e-4,1.1 0.540726,2 1.2,2 0.659275,0 1.761181,0.5625 2.448681,1.25 0.6875,0.6875 1.774314,1.25 2.41514,1.25 0.64083,0 2.34648,0.92924 3.79035,2.06498 1.44386,1.13575 3.08775,1.77912 3.65309,1.42972 1.85764,-1.14808 7.58834,3.35812 13.98289,10.99511 4.14616,4.95175 7.0072,7.51541 8.39845,7.5255 1.56349,0.0113 1.75896,0.2378 0.7546,0.87421 -0.99749,0.63206 0.32302,2.0484 5,5.36287 3.49551,2.47719 8.34938,5.50947 10.78637,6.7384 4.82624,2.43379 8.23748,5.85452 7.61722,7.6384 -0.21594,0.62105 1.12896,2.60395 2.98866,4.40645 2.84424,2.75675 3.62603,3.07414 4.92225,1.99837 1.77771,-1.47537 4.05451,-0.14209 5.03551,2.94875 0.31459,0.99118 1.91667,2.35914 3.56018,3.0399 4.1109,1.70279 4.69613,3.07751 0.995,2.33728 C 170.09589,177.96918 169,178.15426 169,178.875 c 0,0.61875 0.43434,1.125 0.9652,1.125 0.53087,0 2.50773,1.35435 4.39303,3.00967 2.11703,1.85877 4.0391,2.77509 5.02636,2.39624 0.95411,-0.36612 1.83584,0.005 2.18716,0.92046 0.5773,1.50442 5.94158,4.08739 7.94528,3.82576 0.55937,-0.073 1.46418,0.87535 2.0107,2.10753 0.54651,1.23219 1.77635,2.17784 2.73296,2.10145 0.95662,-0.0764 1.73931,0.43656 1.73931,1.13987 0,0.70332 1.98695,2.21274 4.41544,3.35427 3.5548,1.67095 4.31172,2.47207 3.88336,4.11012 -0.37875,1.44837 -0.0492,2.03463 1.14359,2.03463 0.99073,0 1.39025,0.46177 0.97743,1.12973 -0.42422,0.68641 -0.15307,0.9462 0.69098,0.66202 0.7855,-0.26446 2.15877,0.79101 3.16007,2.42876 0.97398,1.59306 3.10863,3.65765 4.74368,4.58798 1.63504,0.93033 3.01118,2.36651 3.05807,3.19151 0.0584,1.02724 0.24424,1.10603 0.58966,0.25 0.27741,-0.6875 1.57776,-1.25 2.88967,-1.25 1.5338,0 2.209,0.45937 1.89147,1.28684 -0.42642,1.11124 2.36895,4.26843 11.05658,12.48766 1.1,1.04069 2.96977,1.91092 4.15504,1.93383 1.70641,0.033 2.41168,-0.875 3.38791,-4.36174 z M 197.981,191.47711 c -1.05678,-1.27335 -0.99492,-1.41968 0.37756,-0.89301 0.90279,0.34643 1.64144,1.03173 1.64144,1.52289 0,1.28596 -0.57887,1.10536 -2.019,-0.62988 z M 183.5,186 c -0.33992,-0.55 -0.14148,-1 0.44098,-1 0.58246,0 1.05902,0.45 1.05902,1 0,0.55 -0.19844,1 -0.44098,1 -0.24254,0 -0.7191,-0.45 -1.05902,-1 z M 129,53.094085 c 0,-1.664975 0.30643,-1.761305 2.42393,-0.762003 1.6222,0.765558 2.03565,1.390883 1.25,1.890602 C 130.5983,55.542913 129,55.05193 129,53.094085 Z M 232.73121,15.919841 c 0.35361,-1.352204 0.8069,-1.805497 1.05655,-1.056551 0.24048,0.721441 -0.0382,1.787158 -0.61931,2.36826 -0.74207,0.742068 -0.87221,0.351636 -0.43724,-1.311709 z m 32.53654,212.441699 c 1.74264,-0.90115 7.44153,-5.23126 12.66421,-9.62247 5.22268,-4.3912 11.16623,-9.03851 13.20788,-10.32735 2.17216,-1.37122 3.84652,-3.29092 4.03613,-4.62753 C 295.41477,202.1008 296.15756,201.5 298,201.5 c 1.81545,0 2.42072,-0.47405 2.21048,-1.73122 -0.2632,-1.5738 7.99627,-7.87966 16.50588,-12.60174 1.32116,-0.73312 2.85147,-2.31918 3.40067,-3.52456 1.32734,-2.91317 8.44473,-5.25108 10.58316,-3.47633 1.25048,1.0378 1.43857,0.91084 1.15247,-0.77791 -0.19554,-1.15427 0.89425,-3.48717 2.54597,-5.45013 3.34138,-3.97101 12.85562,-11.56664 15.56571,-12.42679 2.27264,-0.72131 3.51528,-3.59686 1.96768,-4.55333 -0.75133,-0.46435 -0.36919,-1.23881 1.1291,-2.28825 1.24565,-0.87248 2.66119,-1.34136 3.14565,-1.04195 1.39157,0.86004 3.79171,-1.6609 3.80854,-4.00023 0.0126,-1.74679 0.19155,-1.8591 1,-0.62756 0.87201,1.32835 1.09433,1.32935 1.94281,0.009 0.52697,-0.82019 1.76447,-1.49519 2.75,-1.5 1.20359,-0.006 1.72528,-0.68192 1.58903,-2.05918 -0.15641,-1.58096 2.44546,-3.8706 11.36369,-10 10.22226,-7.02565 15.50503,-10.33005 18.83916,-11.78398 0.55,-0.23984 0.1,-1.1484 -1,-2.01902 -1.93942,-1.53501 -1.94181,-1.58392 -0.0787,-1.61476 2.19181,-0.0363 5.57874,-2.76998 5.57874,-4.50279 0,-0.63856 1.575,-2.55541 3.5,-4.25968 1.925,-1.70426 3.5,-3.79623 3.5,-4.64881 0,-0.85258 0.9,-2.03182 2,-2.62052 1.15939,-0.62048 2,-0.67462 2,-0.1288 0,1.09751 3.90712,0.3048 5.79551,-1.17585 0.71253,-0.55868 1.06737,-1.6103 0.78853,-2.33695 -0.33484,-0.872573 0.20698,-1.242603 1.59574,-1.089784 1.57824,0.173671 2.19525,-0.41365 2.47373,-2.354702 0.29892,-2.083593 -0.78279,-3.686623 -5.56701,-8.25 C 414.82058,85.548761 411.24163,83 410.13325,83 c -2.71577,0 -3.70433,-1.845802 -1.44663,-2.701109 0.99736,-0.377841 2.40802,-1.274662 3.13481,-1.992937 C 412.91277,77.227391 412.689,77 410.53624,77 c -2.38022,0 -2.50376,-0.192165 -1.42245,-2.212623 1.16467,-2.176208 1.14278,-2.185511 -1.33006,-0.565243 -1.87519,1.228675 -2.80263,1.358965 -3.64897,0.512623 -1.55994,-1.559936 -1.42322,-2.410088 0.50668,-3.15066 1.37248,-0.526667 1.43434,-0.380336 0.37756,0.893011 C 403.99577,73.710024 404.0062,74 405.0738,74 406.43961,74 414,69.111245 414,68.228075 c 0,-0.517184 -6.61089,0.291223 -11,1.345125 -1.78943,0.429673 -2.10716,0.322482 -1.11787,-0.37713 1.09587,-0.774984 0.88875,-1.131997 -1,-1.723744 C 397.61478,66.448665 390,61.1363 390,59.880531 c 0,-2.441784 -8.217,-7.318553 -11.07287,-6.571725 -1.09364,0.285992 -2.28213,-0.120731 -2.73915,-0.937389 -0.44402,-0.793417 -2.13046,-1.837887 -3.74764,-2.321044 -2.5585,-0.764388 -2.63961,-0.88963 -0.6246,-0.96442 1.27366,-0.04727 3.16726,0.369768 4.20801,0.92676 1.51022,0.808245 2.11901,0.589051 3.01528,-1.085647 0.61766,-1.154097 0.85332,-2.368049 0.5237,-2.697671 -0.32962,-0.329621 -3.85358,-0.541563 -7.83102,-0.47098 -8.02261,0.142366 -11.50538,-1.577606 -11.97692,-5.914827 C 359.54811,37.942483 359.97201,37.5 362,37.5 c 3.27021,0 4.1445,-3.967445 1.05247,-4.776028 -2.32969,-0.609228 -2.63812,0.245071 -0.80247,2.222732 1.00102,1.078458 0.99848,1.204566 -0.0127,0.633112 -0.6945,-0.392476 -2.60299,-0.04498 -4.24109,0.77221 -1.6381,0.817191 -3.20026,1.126766 -3.47147,0.687944 -0.2712,-0.438821 -2.59263,-0.561209 -5.15873,-0.271973 -3.18747,0.359274 -4.45515,0.185321 -4.00128,-0.54906 0.36539,-0.591219 -0.24266,-1.362819 -1.35123,-1.714665 -1.10857,-0.351847 -2.48094,-1.509245 -3.04971,-2.571997 -1.03763,-1.93883 -3.9778,-2.584893 -5.38042,-1.182275 -0.92903,0.929038 -2.91364,1.031419 -3.58333,0.184856 -0.275,-0.347633 -3.05449,-0.92524 -6.17665,-1.283573 -4.89401,-0.561688 -5.73971,-0.410221 -6.134,1.098602 -0.35318,1.351513 -0.48377,1.251103 -0.57335,-0.440868 -0.15108,-2.853472 -1.58296,-3.664659 -4.09533,-2.320077 C 313.45143,28.828769 313,28.765148 313,27.704163 c 0,-0.751412 -1.2375,-1.944747 -2.75,-2.651855 -1.5125,-0.707108 -3.5375,-1.686962 -4.5,-2.177453 -0.9625,-0.490492 -1.75,-0.506471 -1.75,-0.03551 0,0.470962 -1.35,0.894678 -3,0.941591 -3.29547,0.0937 -4.00559,-1.179525 -1.25,-2.241198 1.64204,-0.632645 1.63553,-0.738489 -0.10554,-1.715739 -1.37901,-0.774036 -2.22587,-0.671166 -3.2976,0.400572 -1.1674,1.167396 -2.24252,1.234459 -5.64447,0.352085 -2.31131,-0.599495 -4.79325,-1.468573 -5.5154,-1.931285 -0.81047,-0.519298 -1.9696,-0.247093 -3.02851,0.711203 -0.94352,0.853873 -2.60266,1.574101 -3.68698,1.600507 -1.08433,0.02641 -3.94326,0.324782 -6.35319,0.663059 -3.10312,0.435576 -4.18015,0.288933 -3.69099,-0.502546 0.37989,-0.614677 0.10166,-1.124486 -0.6183,-1.132908 C 266.85783,19.97356 266.91003,19.70439 268,19 c 1.29269,-0.835399 1.26629,-0.971491 -0.19098,-0.984687 -0.93004,-0.0084 -2.02017,0.517318 -2.42251,1.168311 -0.50161,0.811632 -0.95697,0.575921 -1.44888,-0.75 -0.63853,-1.721141 -0.84548,-1.608173 -1.88321,1.028015 -0.89564,2.27521 -0.88623,3.484119 0.0406,5.215911 0.95031,1.775676 0.93839,2.577265 -0.0562,3.775626 -0.69444,0.836745 -1.00139,2.202085 -0.68212,3.034089 C 261.7196,32.432959 261.3617,33 260.40119,33 c -0.99064,0 -1.35478,0.621341 -1.02558,1.75 0.28074,0.9625 0.81303,3.893319 1.18287,6.51293 0.58329,4.131472 0.45827,4.680743 -0.94304,4.143011 C 258.54119,44.993695 258,45.324364 258,46.393011 258,47.276855 258.44469,48 258.98821,48 c 0.54352,0 0.89909,0.7875 0.79017,1.75 -0.3116,2.753551 1.36498,11.25 2.21994,11.25 1.31419,0 2.29537,11.106312 1.08786,12.313822 C 262.48878,73.91122 262,76.335 262,78.7 c 0,2.365 -0.45,4.3 -1,4.3 -1.43,0 -1.23768,5.343927 0.25,6.946704 0.75522,0.813649 0.7967,1.092998 0.10478,0.705744 -0.62986,-0.352528 -1.38836,-0.0073 -1.68553,0.7671 -0.72303,1.884181 0.24959,16.163312 1.40964,20.695042 1.05369,4.11624 0.21774,9.91188 -1.38415,9.59635 -1.19273,-0.23494 -2.74335,6.99882 -1.94578,9.07724 0.28002,0.72972 1.09698,1.10118 1.81547,0.82547 1.888,-0.7245 2.30142,1.44079 0.91034,4.76794 -0.74646,1.78537 -0.91533,4.16504 -0.44389,6.25533 0.87347,3.87285 -0.49528,5.6332 -1.44326,1.85617 -1.13508,-4.52254 -2.21262,-2.59889 -2.21262,3.95005 0,3.54372 0.36563,6.21716 0.8125,5.94098 0.44687,-0.27619 0.84505,-0.1381 0.88483,0.30686 1.03031,11.52345 1.01855,11.47861 2.84434,10.8496 1.15625,-0.39835 1.08738,-0.16043 -0.25531,0.88203 -1.53703,1.19334 -1.76597,2.46507 -1.39561,7.75245 0.24368,3.47872 0.76984,7.27547 1.16927,8.43723 0.5744,1.67072 0.23901,2.25966 -1.6044,2.8173 -1.46103,0.44196 -1.84865,0.90274 -1.03888,1.23496 0.99187,0.40692 1.02148,0.85558 0.12755,1.9327 -0.93499,1.12659 -0.75795,1.40275 0.89925,1.40275 1.13488,0 2.33836,0.44485 2.67438,0.98855 0.34351,0.5558 -0.0348,0.74073 -0.86429,0.42244 -2.23846,-0.85898 -3.92591,3.25921 -3.36706,8.21727 0.26876,2.38447 0.14201,4.12117 -0.28167,3.85932 -0.42368,-0.26185 -1.03965,0.22575 -1.36882,1.08355 -0.4494,1.17112 -0.13271,1.41182 1.27125,0.96622 1.32904,-0.42182 2.02311,-0.007 2.40009,1.43461 0.29169,1.11542 0.15485,2.02804 -0.30408,2.02804 -0.81777,0 -1.58664,5.28774 -2.29014,15.75 -0.3497,5.20059 -0.32589,5.25 2.52905,5.25 1.58514,0 4.30786,-0.73731 6.0505,-1.63846 z M 264,173.5 c 0,-0.825 0.17686,-1.5 0.39301,-1.5 0.21616,0 0.65203,0.675 0.96862,1.5 0.31658,0.825 0.13972,1.5 -0.39301,1.5 C 264.43588,175 264,174.325 264,173.5 Z m -4,-15.05902 c 0,-0.85746 0.45734,-1.27636 1.01631,-0.9309 0.55897,0.34546 0.75742,1.04702 0.44098,1.55902 C 260.60006,160.45614 260,160.19751 260,158.44098 Z M 303.96483,27.457618 c -0.84016,-1.012324 -0.94165,-1.8808 -0.29532,-2.527125 0.64632,-0.646326 1.38045,-0.116268 2.13618,1.542381 1.27402,2.796179 0.15797,3.393194 -1.84086,0.984744 z M 344,181 c 0,-0.55 -0.19844,-1 -0.44098,-1 -0.24254,0 -0.7191,0.45 -1.05902,1 -0.33992,0.55 -0.14148,1 0.44098,1 0.58246,0 1.05902,-0.45 1.05902,-1 z m -184.27083,-7.60417 c -0.3323,-0.33229 -1.1948,-0.36781 -1.91667,-0.0789 -0.79773,0.31922 -0.56078,0.55618 0.60417,0.60416 1.05416,0.0434 1.64479,-0.19293 1.3125,-0.52522 z M 360.5,169 c 0,-2.25315 -4.88497,-1.95506 -5.32405,0.32489 -0.28417,1.47558 0.19175,1.7627 2.4863,1.5 C 359.37363,170.62896 360.5,169.90462 360.5,169 Z M 149,164.93426 C 149,163.22444 147.01657,160 145.96482,160 c -1.0863,0 -1.32694,4.30455 -0.29815,5.33333 1.05073,1.05074 3.33333,0.77746 3.33333,-0.39907 z m 107,-31.24313 c 0,-0.71988 -0.69982,-2.18238 -1.55517,-3.25 -1.49339,-1.86402 -1.51185,-1.85176 -0.46481,0.30887 0.59969,1.2375 0.82296,2.25 0.49615,2.25 -0.32681,0 -0.31609,0.45 0.0238,1 0.85485,1.38317 1.5,1.25033 1.5,-0.30887 z m 0.66768,-17.53061 c 1.62745,-2.60596 0.0653,-5.01377 -2.09146,-3.22377 -1.88146,1.56147 -2.10054,5.06325 -0.31677,5.06325 0.6927,0 1.7764,-0.82776 2.40823,-1.83948 z M 71.451885,89.930571 c -1.511945,-2.181739 -2.95182,-3.763969 -3.199721,-3.516069 -0.247901,0.247901 -0.136267,2.312012 0.248075,4.586913 0.492831,2.917042 1.102156,3.981402 2.067257,3.611058 0.75265,-0.288819 1.690253,-0.0044 2.083564,0.631947 0.528907,0.855789 0.823782,0.831055 1.132463,-0.09499 0.229545,-0.688635 -0.819692,-3.037121 -2.331638,-5.218859 z M 242,35 c 0,-0.55 -0.47656,-1 -1.05902,-1 -0.58246,0 -0.7809,0.45 -0.44098,1 0.33992,0.55 0.81648,1 1.05902,1 C 241.80156,36 242,35.55 242,35 Z"
       id="path116" />
  </g>
</svg>
